font.ufo
<glyph name="exclam" format="1">
  <advance width="259"/>
  <unicode hex="0021"/>
  <outline>
    <contour>
      <point x="195" y="229" type="line"/>
      <point x="203" y="722" type="line"/>
      <point x="57" y="722" type="line"/>
      <point x="64" y="229" type="line"/>
    </contour>
    <contour>
      <point x="194" y="55" type="curve"/>
      <point x="194" y="98"/>
      <point x="166" y="119"/>
      <point x="129" y="119" type="curve"/>
      <point x="91" y="119"/>
      <point x="66" y="96"/>
      <point x="66" y="55" type="curve"/>
      <point x="194" y="55"/>
      <point x="65" y="55"/>
      <point x="194" y="55" type="curve"/>
      <point x="194" y="11"/>
      <point x="167" y="-8"/>
      <point x="129" y="-8" type="curve"/>
      <point x="90" y="-8"/>
      <point x="66" y="13"/>
      <point x="66" y="55" type="curve"/>
      <point x="194" y="55"/>
      <point x="65" y="55"/>
    </contour>
  </outline>
</glyph>
<glyph name="quotedbl" format="1">
  <advance width="399"/>
  <unicode hex="0022"/>
  <outline>
    <contour>
      <point x="167" y="616" type="line"/>
      <point x="177" y="827" type="line"/>
      <point x="53" y="827" type="line"/>
      <point x="62" y="616" type="line"/>
    </contour>
    <contour>
      <point x="337" y="616" type="line"/>
      <point x="347" y="827" type="line"/>
      <point x="224" y="827" type="line"/>
      <point x="233" y="616" type="line"/>
    </contour>
  </outline>
</glyph>
<glyph name="numbersign" format="1">
  <advance width="526"/>
  <unicode hex="0023"/>
  <outline>
    <contour>
      <point x="41" y="221" type="line"/>
      <point x="421" y="221" type="line"/>
      <point x="443" y="320" type="line"/>
      <point x="63" y="320" type="line"/>
    </contour>
    <contour>
      <point x="84" y="438" type="line"/>
      <point x="465" y="438" type="line"/>
      <point x="487" y="536" type="line"/>
      <point x="105" y="536" type="line"/>
    </contour>
    <contour>
      <point x="347" y="39" type="line"/>
      <point x="489" y="722" type="line"/>
      <point x="364" y="722" type="line"/>
      <point x="221" y="39" type="line"/>
    </contour>
    <contour>
      <point x="159" y="46" type="line"/>
      <point x="302" y="722" type="line"/>
      <point x="176" y="722" type="line"/>
      <point x="40" y="46" type="line"/>
    </contour>
  </outline>
</glyph>
<glyph name="dollar" format="1">
  <advance width="461"/>
  <unicode hex="0024"/>
  <outline>
    <contour>
      <point x="160" y="92" type="curve"/>
      <point x="160" y="212"/>
      <point x="160" y="89"/>
      <point x="160" y="209" type="curve"/>
      <point x="62" y="209"/>
      <point x="160" y="209"/>
      <point x="62" y="209" type="curve"/>
      <point x="62" y="89"/>
      <point x="62" y="212"/>
      <point x="62" y="92" type="curve"/>
      <point x="160" y="92"/>
      <point x="62" y="92"/>
    </contour>
    <contour>
      <point x="287" y="635" type="curve"/>
      <point x="287" y="515"/>
      <point x="287" y="640"/>
      <point x="287" y="520" type="curve"/>
      <point x="386" y="520"/>
      <point x="287" y="520"/>
      <point x="386" y="520" type="curve"/>
      <point x="386" y="640"/>
      <point x="386" y="515"/>
      <point x="386" y="635" type="curve"/>
      <point x="287" y="635"/>
      <point x="386" y="635"/>
    </contour>
    <contour>
      <point x="283" y="-43" type="curve"/>
      <point x="283" y="-12"/>
      <point x="283" y="61"/>
      <point x="283" y="92" type="curve"/>
      <point x="158" y="92"/>
      <point x="283" y="92"/>
      <point x="158" y="92" type="curve"/>
      <point x="158" y="61"/>
      <point x="158" y="-12"/>
      <point x="158" y="-43" type="curve"/>
      <point x="283" y="-43"/>
      <point x="158" y="-43"/>
    </contour>
    <contour>
      <point x="291" y="637" type="curve"/>
      <point x="291" y="669"/>
      <point x="291" y="742"/>
      <point x="291" y="773" type="curve"/>
      <point x="166" y="773"/>
      <point x="291" y="773"/>
      <point x="166" y="773" type="curve"/>
      <point x="166" y="742"/>
      <point x="166" y="669"/>
      <point x="166" y="637" type="curve"/>
      <point x="291" y="637"/>
      <point x="166" y="637"/>
    </contour>
    <contour>
      <point x="62" y="92" type="curve"/>
      <point x="103" y="64"/>
      <point x="154" y="43"/>
      <point x="215" y="43" type="curve"/>
      <point x="337" y="43"/>
      <point x="424" y="115"/>
      <point x="424" y="218" type="curve"/>
      <point x="424" y="307"/>
      <point x="355" y="368"/>
      <point x="266" y="418" type="curve"/>
      <point x="216" y="447"/>
      <point x="178" y="471"/>
      <point x="178" y="523" type="curve"/>
      <point x="178" y="556"/>
      <point x="195" y="590"/>
      <point x="229" y="590" type="curve"/>
      <point x="268" y="590"/>
      <point x="294" y="574"/>
      <point x="324" y="552" type="curve"/>
      <point x="386" y="635"/>
      <point x="324" y="552"/>
      <point x="386" y="635" type="curve"/>
      <point x="338" y="669"/>
      <point x="296" y="687"/>
      <point x="234" y="687" type="curve"/>
      <point x="125" y="687"/>
      <point x="53" y="619"/>
      <point x="53" y="523" type="curve"/>
      <point x="53" y="435"/>
      <point x="108" y="377"/>
      <point x="193" y="329" type="curve"/>
      <point x="247" y="298"/>
      <point x="300" y="271"/>
      <point x="300" y="213" type="curve"/>
      <point x="300" y="173"/>
      <point x="271" y="140"/>
      <point x="226" y="140" type="curve"/>
      <point x="186" y="140"/>
      <point x="156" y="163"/>
      <point x="129" y="180" type="curve"/>
      <point x="62" y="92"/>
      <point x="129" y="180"/>
    </contour>
  </outline>
</glyph>
<glyph name="percent" format="1">
  <advance width="925"/>
  <unicode hex="0025"/>
  <outline>
    <contour>
      <point x="383" y="-44" type="line"/>
      <point x="664" y="714" type="line"/>
      <point x="550" y="714" type="line"/>
      <point x="269" y="-44" type="line"/>
    </contour>
    <contour>
      <point x="136" y="503" type="curve"/>
      <point x="136" y="571"/>
      <point x="144" y="630"/>
      <point x="202" y="630" type="curve"/>
      <point x="261" y="631"/>
      <point x="271" y="571"/>
      <point x="271" y="502" type="curve"/>
      <point x="271" y="432"/>
      <point x="267" y="371"/>
      <point x="208" y="371" type="curve"/>
      <point x="147" y="371"/>
      <point x="136" y="432"/>
      <point x="136" y="503" type="curve"/>
      <point x="98" y="503"/>
      <point x="72" y="503"/>
      <point x="34" y="503" type="curve"/>
      <point x="34" y="377"/>
      <point x="87" y="284"/>
      <point x="203" y="284" type="curve"/>
      <point x="322" y="284"/>
      <point x="378" y="378"/>
      <point x="378" y="506" type="curve"/>
      <point x="378" y="629"/>
      <point x="322" y="718"/>
      <point x="207" y="717" type="curve"/>
      <point x="91" y="717"/>
      <point x="34" y="627"/>
      <point x="34" y="503" type="curve"/>
      <point x="72" y="503"/>
      <point x="98" y="503"/>
    </contour>
    <contour>
      <point x="649" y="176" type="curve"/>
      <point x="649" y="244"/>
      <point x="658" y="303"/>
      <point x="716" y="303" type="curve"/>
      <point x="775" y="304"/>
      <point x="784" y="245"/>
      <point x="784" y="174" type="curve"/>
      <point x="784" y="106"/>
      <point x="780" y="44"/>
      <point x="722" y="44" type="curve"/>
      <point x="660" y="44"/>
      <point x="649" y="105"/>
      <point x="649" y="176" type="curve"/>
      <point x="611" y="176"/>
      <point x="585" y="176"/>
      <point x="547" y="176" type="curve"/>
      <point x="547" y="50"/>
      <point x="601" y="-43"/>
      <point x="717" y="-43" type="curve"/>
      <point x="836" y="-43"/>
      <point x="891" y="51"/>
      <point x="891" y="179" type="curve"/>
      <point x="891" y="302"/>
      <point x="836" y="391"/>
      <point x="722" y="390" type="curve"/>
      <point x="605" y="390"/>
      <point x="547" y="300"/>
      <point x="547" y="176" type="curve"/>
      <point x="585" y="176"/>
      <point x="611" y="176"/>
    </contour>
  </outline>
</glyph>
<glyph name="ampersand" format="1">
  <advance width="542"/>
  <unicode hex="0026"/>
  <outline>
    <contour>
      <point x="522" y="34" type="line"/>
      <point x="453" y="135"/>
      <point x="373" y="270"/>
      <point x="300" y="374" type="curve"/>
      <point x="262" y="431"/>
      <point x="209" y="483"/>
      <point x="209" y="553" type="curve"/>
      <point x="209" y="589"/>
      <point x="211" y="629"/>
      <point x="240" y="629" type="curve"/>
      <point x="270" y="629"/>
      <point x="271" y="592"/>
      <point x="271" y="555" type="curve"/>
      <point x="271" y="496"/>
      <point x="245" y="452"/>
      <point x="198" y="416" type="curve"/>
      <point x="118" y="353"/>
      <point x="49" y="297"/>
      <point x="49" y="198" type="curve"/>
      <point x="49" y="81"/>
      <point x="120" y="-5"/>
      <point x="234" y="-5" type="curve"/>
      <point x="398" y="-5"/>
      <point x="465" y="142"/>
      <point x="502" y="313" type="curve"/>
      <point x="395" y="338"/>
      <point x="502" y="313"/>
      <point x="395" y="338" type="curve"/>
      <point x="368" y="217"/>
      <point x="351" y="94"/>
      <point x="240" y="94" type="curve"/>
      <point x="193" y="94"/>
      <point x="175" y="142"/>
      <point x="175" y="198" type="curve"/>
      <point x="175" y="257"/>
      <point x="203" y="299"/>
      <point x="251" y="337" type="curve"/>
      <point x="330" y="399"/>
      <point x="396" y="457"/>
      <point x="397" y="555" type="curve"/>
      <point x="397" y="655"/>
      <point x="339" y="727"/>
      <point x="245" y="727" type="curve"/>
      <point x="150" y="727"/>
      <point x="94" y="653"/>
      <point x="94" y="553" type="curve"/>
      <point x="94" y="457"/>
      <point x="155" y="392"/>
      <point x="210" y="314" type="curve"/>
      <point x="277" y="215"/>
      <point x="364" y="73"/>
      <point x="426" y="-20" type="curve"/>
    </contour>
  </outline>
</glyph>
<glyph name="quotesingle" format="1">
  <advance width="229"/>
  <unicode hex="0027"/>
  <outline>
    <contour>
      <point x="167" y="616" type="line"/>
      <point x="177" y="827" type="line"/>
      <point x="53" y="827" type="line"/>
      <point x="62" y="616" type="line"/>
    </contour>
  </outline>
</glyph>
<glyph name="parenleft" format="1">
  <advance width="303"/>
  <unicode hex="0028"/>
  <outline>
    <contour>
      <point x="300" y="-208" type="curve"/>
      <point x="181" y="-35"/>
      <point x="160" y="118"/>
      <point x="160" y="326" type="curve"/>
      <point x="160" y="535"/>
      <point x="183" y="689"/>
      <point x="299" y="864" type="curve"/>
      <point x="223" y="927"/>
      <point x="299" y="864"/>
      <point x="223" y="927" type="curve"/>
      <point x="89" y="729"/>
      <point x="39" y="565"/>
      <point x="39" y="326" type="curve"/>
      <point x="39" y="86"/>
      <point x="90" y="-78"/>
      <point x="224" y="-278" type="curve"/>
      <point x="300" y="-208"/>
      <point x="224" y="-278"/>
    </contour>
  </outline>
</glyph>
<glyph name="parenright" format="1">
  <advance width="305"/>
  <unicode hex="0029"/>
  <outline>
    <contour>
      <point x="72" y="-291" type="curve"/>
      <point x="208" y="-85"/>
      <point x="267" y="83"/>
      <point x="267" y="329" type="curve"/>
      <point x="267" y="569"/>
      <point x="215" y="733"/>
      <point x="74" y="930" type="curve"/>
      <point x="1" y="860"/>
      <point x="74" y="930"/>
      <point x="1" y="860" type="curve"/>
      <point x="121" y="687"/>
      <point x="145" y="534"/>
      <point x="145" y="324" type="curve"/>
      <point x="145" y="111"/>
      <point x="113" y="-45"/>
      <point x="-3" y="-228" type="curve"/>
      <point x="72" y="-291"/>
      <point x="-3" y="-228"/>
    </contour>
  </outline>
</glyph>
<glyph name="asterisk" format="1">
  <advance width="514"/>
  <unicode hex="002A"/>
  <outline>
    <contour>
      <point x="295" y="528" type="line"/>
      <point x="301" y="740" type="line"/>
      <point x="214" y="740" type="line"/>
      <point x="220" y="528" type="line"/>
    </contour>
    <contour>
      <point x="267" y="494" type="line"/>
      <point x="469" y="560" type="line"/>
      <point x="438" y="642" type="line"/>
      <point x="242" y="564" type="line"/>
    </contour>
    <contour>
      <point x="227" y="508" type="line"/>
      <point x="357" y="340" type="line"/>
      <point x="424" y="396" type="line"/>
      <point x="285" y="555" type="line"/>
    </contour>
    <contour>
      <point x="230" y="556" type="line"/>
      <point x="91" y="397" type="line"/>
      <point x="157" y="341" type="line"/>
      <point x="287" y="509" type="line"/>
    </contour>
    <contour>
      <point x="273" y="565" type="line"/>
      <point x="76" y="642" type="line"/>
      <point x="45" y="559" type="line"/>
      <point x="248" y="494" type="line"/>
    </contour>
  </outline>
</glyph>
<glyph name="plus" format="1">
  <advance width="574"/>
  <unicode hex="002B"/>
  <outline>
    <contour>
      <point x="39" y="261" type="curve"/>
      <point x="535" y="261" type="line"/>
      <point x="535" y="369"/>
      <point x="535" y="261"/>
      <point x="535" y="369" type="curve"/>
      <point x="39" y="369" type="line"/>
      <point x="39" y="261"/>
      <point x="39" y="369"/>
    </contour>
    <contour>
      <point x="344" y="58" type="curve"/>
      <point x="344" y="578" type="line"/>
      <point x="219" y="578"/>
      <point x="353" y="578"/>
      <point x="228" y="578" type="curve"/>
      <point x="228" y="58" type="line"/>
      <point x="353" y="58"/>
      <point x="219" y="58"/>
    </contour>
  </outline>
</glyph>
<glyph name="comma" format="1">
  <advance width="260"/>
  <unicode hex="002C"/>
  <outline>
    <contour>
      <point x="55" y="-115" type="line"/>
      <point x="139" y="-112"/>
      <point x="193" y="-49"/>
      <point x="193" y="49" type="curve"/>
      <point x="193" y="131"/>
      <point x="165" y="170"/>
      <point x="124" y="170" type="curve"/>
      <point x="87" y="170"/>
      <point x="61" y="148"/>
      <point x="61" y="105" type="curve"/>
      <point x="61" y="73"/>
      <point x="78" y="46"/>
      <point x="110" y="45" type="curve"/>
      <point x="110" y="22"/>
      <point x="109" y="-33"/>
      <point x="53" y="-46" type="curve"/>
    </contour>
  </outline>
</glyph>
<glyph name="hyphen" format="1">
  <advance width="318"/>
  <unicode hex="002D"/>
  <outline>
    <contour>
      <point x="63" y="228" type="curve"/>
      <point x="128" y="228"/>
      <point x="192" y="228"/>
      <point x="256" y="228" type="curve"/>
      <point x="256" y="335"/>
      <point x="256" y="228"/>
      <point x="256" y="335" type="curve"/>
      <point x="192" y="335"/>
      <point x="128" y="335"/>
      <point x="63" y="335" type="curve"/>
      <point x="63" y="228"/>
      <point x="63" y="335"/>
    </contour>
  </outline>
</glyph>
<glyph name="period" format="1">
  <advance width="244"/>
  <unicode hex="002E"/>
  <outline>
    <contour>
      <point x="186" y="55" type="curve"/>
      <point x="186" y="98"/>
      <point x="158" y="119"/>
      <point x="121" y="119" type="curve"/>
      <point x="83" y="119"/>
      <point x="58" y="96"/>
      <point x="58" y="55" type="curve"/>
      <point x="186" y="55"/>
      <point x="57" y="55"/>
      <point x="186" y="55" type="curve"/>
      <point x="186" y="11"/>
      <point x="159" y="-8"/>
      <point x="121" y="-8" type="curve"/>
      <point x="82" y="-8"/>
      <point x="58" y="13"/>
      <point x="58" y="55" type="curve"/>
      <point x="186" y="55"/>
      <point x="57" y="55"/>
    </contour>
  </outline>
</glyph>
<glyph name="slash" format="1">
  <advance width="453"/>
  <unicode hex="002F"/>
  <outline>
    <contour>
      <point x="149" y="-21" type="curve"/>
      <point x="243" y="250"/>
      <point x="336" y="520"/>
      <point x="429" y="791" type="curve"/>
      <point x="305" y="791"/>
      <point x="429" y="791"/>
      <point x="305" y="791" type="curve"/>
      <point x="212" y="520"/>
      <point x="117" y="250"/>
      <point x="24" y="-21" type="curve"/>
      <point x="149" y="-21"/>
      <point x="24" y="-21"/>
    </contour>
  </outline>
</glyph>
<glyph name="zero" format="1">
  <advance width="573"/>
  <unicode hex="0030"/>
  <outline>
    <contour>
      <point x="169" y="360" type="curve"/>
      <point x="169" y="500"/>
      <point x="167" y="625"/>
      <point x="283" y="625" type="curve"/>
      <point x="400" y="625"/>
      <point x="406" y="503"/>
      <point x="406" y="363" type="curve"/>
      <point x="406" y="223"/>
      <point x="408" y="98"/>
      <point x="293" y="98" type="curve"/>
      <point x="177" y="98"/>
      <point x="169" y="220"/>
      <point x="169" y="360" type="curve"/>
      <point x="51" y="360"/>
      <point x="169" y="360"/>
      <point x="51" y="360" type="curve"/>
      <point x="51" y="156"/>
      <point x="108" y="-5"/>
      <point x="287" y="-5" type="curve"/>
      <point x="468" y="-5"/>
      <point x="523" y="156"/>
      <point x="523" y="363" type="curve"/>
      <point x="523" y="567"/>
      <point x="471" y="727"/>
      <point x="295" y="727" type="curve"/>
      <point x="112" y="727"/>
      <point x="51" y="567"/>
      <point x="51" y="360" type="curve"/>
      <point x="169" y="360"/>
      <point x="51" y="360"/>
    </contour>
  </outline>
</glyph>
<glyph name="two" format="1">
  <advance width="486"/>
  <unicode hex="0032"/>
  <outline>
    <contour>
      <point x="431" y="98" type="curve"/>
      <point x="431" y="193"/>
      <point x="431" y="82"/>
      <point x="431" y="178" type="curve"/>
      <point x="332" y="178"/>
      <point x="431" y="178"/>
      <point x="332" y="178" type="curve"/>
      <point x="332" y="82"/>
      <point x="332" y="193"/>
      <point x="332" y="98" type="curve"/>
      <point x="431" y="98"/>
      <point x="332" y="98"/>
    </contour>
    <contour>
      <point x="46" y="0" type="curve"/>
      <point x="199" y="0"/>
      <point x="339" y="0"/>
      <point x="431" y="0" type="curve"/>
      <point x="431" y="98"/>
      <point x="431" y="0"/>
      <point x="431" y="98" type="curve"/>
      <point x="318" y="98"/>
      <point x="159" y="98"/>
      <point x="47" y="98" type="curve"/>
      <point x="46" y="0"/>
      <point x="47" y="98"/>
    </contour>
    <contour>
      <point x="130" y="526" type="curve"/>
      <point x="155" y="578"/>
      <point x="168" y="625"/>
      <point x="220" y="625" type="curve"/>
      <point x="272" y="625"/>
      <point x="283" y="570"/>
      <point x="283" y="505" type="curve"/>
      <point x="283" y="411"/>
      <point x="243" y="340"/>
      <point x="189" y="274" type="curve"/>
      <point x="142" y="214"/>
      <point x="98" y="160"/>
      <point x="47" y="98" type="curve"/>
      <point x="47" y="0"/>
      <point x="47" y="98"/>
      <point x="47" y="0" type="curve"/>
      <point x="158" y="55"/>
      <point x="212" y="135"/>
      <point x="266" y="204" type="curve"/>
      <point x="346" y="295"/>
      <point x="398" y="382"/>
      <point x="398" y="511" type="curve"/>
      <point x="398" y="639"/>
      <point x="343" y="727"/>
      <point x="226" y="727" type="curve"/>
      <point x="131" y="727"/>
      <point x="73" y="664"/>
      <point x="43" y="576" type="curve"/>
      <point x="130" y="526"/>
      <point x="43" y="576"/>
    </contour>
  </outline>
</glyph>
<glyph name="five" format="1">
  <advance width="431"/>
  <unicode hex="0035"/>
  <outline>
    <contour>
      <point x="52" y="722" type="curve"/>
      <point x="52" y="623"/>
      <point x="52" y="517"/>
      <point x="52" y="383" type="curve"/>
      <point x="171" y="343"/>
      <point x="52" y="383"/>
      <point x="171" y="343" type="curve"/>
      <point x="171" y="435"/>
      <point x="171" y="533"/>
      <point x="171" y="624" type="curve"/>
      <point x="52" y="722"/>
      <point x="171" y="624"/>
    </contour>
    <contour>
      <point x="171" y="343" type="curve"/>
      <point x="178" y="359"/>
      <point x="187" y="373"/>
      <point x="208" y="373" type="curve"/>
      <point x="256" y="373"/>
      <point x="261" y="310"/>
      <point x="261" y="241" type="curve"/>
      <point x="261" y="170"/>
      <point x="242" y="97"/>
      <point x="184" y="97" type="curve"/>
      <point x="150" y="97"/>
      <point x="131" y="109"/>
      <point x="106" y="130" type="curve"/>
      <point x="42" y="43"/>
      <point x="106" y="130"/>
      <point x="42" y="43" type="curve"/>
      <point x="85" y="10"/>
      <point x="124" y="-5"/>
      <point x="178" y="-5" type="curve"/>
      <point x="305" y="-5"/>
      <point x="386" y="104"/>
      <point x="386" y="240" type="curve"/>
      <point x="386" y="370"/>
      <point x="337" y="477"/>
      <point x="229" y="477" type="curve"/>
      <point x="168" y="477"/>
      <point x="115" y="460"/>
      <point x="52" y="382" type="curve"/>
      <point x="171" y="343"/>
      <point x="52" y="382"/>
    </contour>
    <contour>
      <point x="363" y="722" type="curve"/>
      <point x="274" y="722"/>
      <point x="145" y="722"/>
      <point x="52" y="722" type="curve"/>
      <point x="171" y="624"/>
      <point x="52" y="722"/>
      <point x="171" y="624" type="curve"/>
      <point x="224" y="624"/>
      <point x="313" y="624"/>
      <point x="363" y="624" type="curve"/>
      <point x="363" y="722"/>
      <point x="363" y="624"/>
    </contour>
  </outline>
</glyph>
<glyph name="six" format="1">
  <advance width="484"/>
  <unicode hex="0036"/>
  <outline>
    <contour>
      <point x="149" y="210" type="curve"/>
      <point x="160" y="279"/>
      <point x="187" y="343"/>
      <point x="247" y="343" type="curve"/>
      <point x="304" y="343"/>
      <point x="314" y="287"/>
      <point x="314" y="223" type="curve"/>
      <point x="314" y="163"/>
      <point x="302" y="106"/>
      <point x="250" y="106" type="curve"/>
      <point x="184" y="106"/>
      <point x="167" y="175"/>
      <point x="167" y="258" type="curve"/>
      <point x="167" y="440"/>
      <point x="237" y="570"/>
      <point x="413" y="639" type="curve"/>
      <point x="377" y="729"/>
      <point x="413" y="639"/>
      <point x="377" y="729" type="curve"/>
      <point x="154" y="645"/>
      <point x="46" y="488"/>
      <point x="46" y="252" type="curve"/>
      <point x="46" y="101"/>
      <point x="110" y="-11"/>
      <point x="249" y="-11" type="curve"/>
      <point x="376" y="-11"/>
      <point x="439" y="87"/>
      <point x="439" y="223" type="curve"/>
      <point x="439" y="353"/>
      <point x="383" y="445"/>
      <point x="271" y="445" type="curve"/>
      <point x="149" y="445"/>
      <point x="90" y="316"/>
      <point x="94" y="231" type="curve"/>
      <point x="148" y="210"/>
      <point x="95" y="231"/>
    </contour>
  </outline>
</glyph>
<glyph name="nine" format="1">
  <advance width="485"/>
  <unicode hex="0039"/>
  <outline>
    <contour>
      <point x="347" y="473" type="curve"/>
      <point x="328" y="410"/>
      <point x="302" y="379"/>
      <point x="241" y="379" type="curve"/>
      <point x="184" y="379"/>
      <point x="165" y="437"/>
      <point x="165" y="504" type="curve"/>
      <point x="165" y="563"/>
      <point x="184" y="616"/>
      <point x="232" y="616" type="curve"/>
      <point x="302" y="616"/>
      <point x="319" y="547"/>
      <point x="319" y="464" type="curve"/>
      <point x="319" y="282"/>
      <point x="251" y="149"/>
      <point x="85" y="79" type="curve"/>
      <point x="137" y="-17"/>
      <point x="85" y="79"/>
      <point x="137" y="-17" type="curve"/>
      <point x="324" y="64"/>
      <point x="437" y="234"/>
      <point x="437" y="470" type="curve"/>
      <point x="437" y="621"/>
      <point x="375" y="733"/>
      <point x="236" y="733" type="curve"/>
      <point x="109" y="733"/>
      <point x="45" y="635"/>
      <point x="45" y="499" type="curve"/>
      <point x="45" y="369"/>
      <point x="108" y="277"/>
      <point x="230" y="277" type="curve"/>
      <point x="334" y="277"/>
      <point x="385" y="385"/>
      <point x="407" y="451" type="curve"/>
      <point x="347" y="473"/>
      <point x="407" y="451"/>
    </contour>
  </outline>
</glyph>
<glyph name="colon" format="1">
  <advance width="255"/>
  <unicode hex="003A"/>
  <outline>
    <contour>
      <point x="190" y="365" type="curve"/>
      <point x="190" y="407"/>
      <point x="164" y="429"/>
      <point x="126" y="429" type="curve"/>
      <point x="88" y="429"/>
      <point x="63" y="406"/>
      <point x="63" y="365" type="curve"/>
      <point x="191" y="365"/>
      <point x="62" y="365"/>
      <point x="190" y="365" type="curve"/>
      <point x="190" y="321"/>
      <point x="165" y="301"/>
      <point x="126" y="301" type="curve"/>
      <point x="88" y="301"/>
      <point x="63" y="323"/>
      <point x="63" y="365" type="curve"/>
      <point x="191" y="365"/>
      <point x="62" y="365"/>
    </contour>
    <contour>
      <point x="190" y="59" type="curve"/>
      <point x="190" y="102"/>
      <point x="164" y="124"/>
      <point x="126" y="124" type="curve"/>
      <point x="88" y="124"/>
      <point x="63" y="100"/>
      <point x="63" y="59" type="curve"/>
      <point x="191" y="59"/>
      <point x="63" y="59"/>
      <point x="190" y="59" type="curve"/>
      <point x="190" y="16"/>
      <point x="165" y="-4"/>
      <point x="126" y="-4" type="curve"/>
      <point x="88" y="-4"/>
      <point x="63" y="18"/>
      <point x="63" y="59" type="curve"/>
      <point x="191" y="59"/>
      <point x="63" y="59"/>
    </contour>
  </outline>
</glyph>
<glyph name="semicolon" format="1">
  <advance width="277"/>
  <unicode hex="003B"/>
  <outline>
    <contour>
      <point x="63" y="-208" type="line"/>
      <point x="156" y="-205"/>
      <point x="216" y="-140"/>
      <point x="216" y="-42" type="curve"/>
      <point x="216" y="39"/>
      <point x="184" y="79"/>
      <point x="140" y="79" type="curve"/>
      <point x="98" y="79"/>
      <point x="70" y="56"/>
      <point x="70" y="14" type="curve"/>
      <point x="70" y="-19"/>
      <point x="87" y="-45"/>
      <point x="124" y="-46" type="curve"/>
      <point x="124" y="-70"/>
      <point x="124" y="-124"/>
      <point x="61" y="-138" type="curve"/>
    </contour>
    <contour>
      <point x="204" y="383" type="curve"/>
      <point x="204" y="426"/>
      <point x="177" y="448"/>
      <point x="140" y="448" type="curve"/>
      <point x="101" y="448"/>
      <point x="77" y="424"/>
      <point x="77" y="383" type="curve"/>
      <point x="205" y="383"/>
      <point x="77" y="383"/>
      <point x="204" y="383" type="curve"/>
      <point x="204" y="340"/>
      <point x="178" y="320"/>
      <point x="140" y="320" type="curve"/>
      <point x="101" y="320"/>
      <point x="77" y="341"/>
      <point x="77" y="383" type="curve"/>
      <point x="205" y="383"/>
      <point x="77" y="383"/>
    </contour>
  </outline>
</glyph>
<glyph name="less" format="1">
  <advance width="497"/>
  <unicode hex="003C"/>
  <outline>
    <contour>
      <point x="434" y="625" type="curve"/>
      <point x="301" y="535"/>
      <point x="167" y="445"/>
      <point x="34" y="355" type="curve"/>
      <point x="34" y="245"/>
      <point x="34" y="355"/>
      <point x="34" y="245" type="curve"/>
      <point x="167" y="335"/>
      <point x="301" y="425"/>
      <point x="434" y="515" type="curve"/>
      <point x="434" y="625"/>
      <point x="434" y="515"/>
    </contour>
    <contour>
      <point x="442" y="91" type="curve"/>
      <point x="304" y="179"/>
      <point x="168" y="267"/>
      <point x="34" y="355" type="curve"/>
      <point x="34" y="245"/>
      <point x="34" y="355"/>
      <point x="34" y="245" type="curve"/>
      <point x="168" y="157"/>
      <point x="304" y="69"/>
      <point x="442" y="-19" type="curve"/>
      <point x="442" y="91"/>
      <point x="442" y="-19"/>
    </contour>
  </outline>
</glyph>
<glyph name="equal" format="1">
  <advance width="549"/>
  <unicode hex="003D"/>
  <outline>
    <contour>
      <point x="67" y="165" type="curve"/>
      <point x="205" y="165"/>
      <point x="343" y="165"/>
      <point x="481" y="165" type="curve"/>
      <point x="481" y="270"/>
      <point x="481" y="165"/>
      <point x="481" y="270" type="curve"/>
      <point x="343" y="270"/>
      <point x="205" y="270"/>
      <point x="67" y="270" type="curve"/>
      <point x="67" y="165"/>
      <point x="67" y="270"/>
    </contour>
    <contour>
      <point x="67" y="387" type="curve"/>
      <point x="205" y="387"/>
      <point x="343" y="387"/>
      <point x="481" y="387" type="curve"/>
      <point x="481" y="492"/>
      <point x="481" y="387"/>
      <point x="481" y="492" type="curve"/>
      <point x="343" y="492"/>
      <point x="205" y="492"/>
      <point x="67" y="492" type="curve"/>
      <point x="67" y="387"/>
      <point x="67" y="492"/>
    </contour>
  </outline>
</glyph>
<glyph name="greater" format="1">
  <advance width="499"/>
  <unicode hex="003E"/>
  <outline>
    <contour>
      <point x="63" y="-19" type="curve"/>
      <point x="196" y="71"/>
      <point x="330" y="161"/>
      <point x="465" y="251" type="curve"/>
      <point x="465" y="361"/>
      <point x="465" y="251"/>
      <point x="465" y="361" type="curve"/>
      <point x="330" y="271"/>
      <point x="196" y="181"/>
      <point x="63" y="91" type="curve"/>
      <point x="63" y="-19"/>
      <point x="63" y="91"/>
    </contour>
    <contour>
      <point x="57" y="515" type="curve"/>
      <point x="192" y="427"/>
      <point x="328" y="339"/>
      <point x="465" y="251" type="curve"/>
      <point x="465" y="361"/>
      <point x="465" y="251"/>
      <point x="465" y="361" type="curve"/>
      <point x="328" y="449"/>
      <point x="192" y="537"/>
      <point x="57" y="625" type="curve"/>
      <point x="57" y="515"/>
      <point x="57" y="625"/>
    </contour>
  </outline>
</glyph>
<glyph name="question" format="1">
  <advance width="444"/>
  <unicode hex="003F"/>
  <outline>
    <contour>
      <point x="158" y="373" type="curve"/>
      <point x="158" y="336"/>
      <point x="158" y="258"/>
      <point x="158" y="221" type="curve"/>
      <point x="270" y="221"/>
      <point x="158" y="221"/>
      <point x="270" y="221" type="curve"/>
      <point x="270" y="258"/>
      <point x="270" y="336"/>
      <point x="270" y="373" type="curve"/>
      <point x="158" y="373"/>
      <point x="270" y="373"/>
    </contour>
    <contour>
      <point x="100" y="589" type="line"/>
      <point x="129" y="622"/>
      <point x="151" y="641"/>
      <point x="191" y="641" type="curve"/>
      <point x="254" y="641"/>
      <point x="281" y="585"/>
      <point x="281" y="518" type="curve"/>
      <point x="281" y="436"/>
      <point x="244" y="373"/>
      <point x="170" y="373" type="curve"/>
      <point x="170" y="337"/>
      <point x="169" y="316"/>
      <point x="169" y="280" type="curve"/>
      <point x="314" y="280"/>
      <point x="400" y="375"/>
      <point x="400" y="518" type="curve"/>
      <point x="400" y="656"/>
      <point x="322" y="746"/>
      <point x="197" y="746" type="curve"/>
      <point x="124" y="746"/>
      <point x="71" y="721"/>
      <point x="34" y="670" type="curve"/>
    </contour>
    <contour>
      <point x="279" y="61" type="curve"/>
      <point x="279" y="104"/>
      <point x="252" y="125"/>
      <point x="214" y="125" type="curve"/>
      <point x="175" y="125"/>
      <point x="151" y="102"/>
      <point x="151" y="61" type="curve"/>
      <point x="279" y="61"/>
      <point x="151" y="61"/>
      <point x="279" y="61" type="curve"/>
      <point x="279" y="17"/>
      <point x="253" y="-2"/>
      <point x="214" y="-2" type="curve"/>
      <point x="175" y="-2"/>
      <point x="151" y="19"/>
      <point x="151" y="61" type="curve"/>
      <point x="279" y="61"/>
      <point x="151" y="61"/>
    </contour>
  </outline>
</glyph>
<glyph name="at" format="1">
  <advance width="657"/>
  <unicode hex="0040"/>
  <outline>
    <contour>
      <point x="420" y="-20" type="curve"/>
      <point x="395" y="-39"/>
      <point x="375" y="-47"/>
      <point x="343" y="-47" type="curve"/>
      <point x="218" y="-47"/>
      <point x="154" y="67"/>
      <point x="154" y="210" type="curve"/>
      <point x="154" y="346"/>
      <point x="213" y="456"/>
      <point x="332" y="456" type="curve"/>
      <point x="448" y="456"/>
      <point x="505" y="346"/>
      <point x="505" y="212" type="curve"/>
      <point x="505" y="161"/>
      <point x="508" y="115"/>
      <point x="489" y="115" type="curve"/>
      <point x="473" y="115"/>
      <point x="477" y="160"/>
      <point x="477" y="214" type="curve"/>
      <point x="477" y="323"/>
      <point x="430" y="406"/>
      <point x="330" y="406" type="curve"/>
      <point x="221" y="406"/>
      <point x="185" y="326"/>
      <point x="185" y="211" type="curve"/>
      <point x="185" y="94"/>
      <point x="217" y="10"/>
      <point x="322" y="10" type="curve"/>
      <point x="417" y="10"/>
      <point x="450" y="90"/>
      <point x="460" y="196" type="curve"/>
      <point x="380" y="215"/>
      <point x="460" y="196"/>
      <point x="380" y="215" type="curve"/>
      <point x="371" y="163"/>
      <point x="381" y="107"/>
      <point x="334" y="107" type="curve"/>
      <point x="298" y="107"/>
      <point x="294" y="159"/>
      <point x="294" y="216" type="curve"/>
      <point x="294" y="263"/>
      <point x="291" y="306"/>
      <point x="326" y="306" type="curve"/>
      <point x="370" y="306"/>
      <point x="363" y="260"/>
      <point x="363" y="209" type="curve"/>
      <point x="363" y="105"/>
      <point x="388" y="22"/>
      <point x="480" y="22" type="curve"/>
      <point x="577" y="22"/>
      <point x="608" y="106"/>
      <point x="608" y="217" type="curve"/>
      <point x="608" y="414"/>
      <point x="516" y="558"/>
      <point x="334" y="558" type="curve"/>
      <point x="140" y="558"/>
      <point x="45" y="412"/>
      <point x="45" y="205" type="curve"/>
      <point x="45" y="0"/>
      <point x="147" y="-145"/>
      <point x="338" y="-145" type="curve"/>
      <point x="394" y="-145"/>
      <point x="420" y="-137"/>
      <point x="470" y="-103" type="curve"/>
      <point x="420" y="-20"/>
      <point x="470" y="-103"/>
    </contour>
  </outline>
</glyph>
<glyph name="B" format="1">
  <advance width="553"/>
  <unicode hex="0042"/>
  <outline>
    <contour>
      <point x="183" y="722" type="curve"/>
      <point x="141" y="722"/>
      <point x="100" y="722"/>
      <point x="58" y="722" type="curve"/>
      <point x="58" y="624"/>
      <point x="58" y="722"/>
      <point x="58" y="624" type="curve"/>
      <point x="186" y="624"/>
      <point x="55" y="624"/>
      <point x="183" y="624" type="curve"/>
      <point x="183" y="722"/>
      <point x="183" y="624"/>
    </contour>
    <contour>
      <point x="182" y="98" type="curve"/>
      <point x="54" y="98"/>
      <point x="185" y="98"/>
      <point x="57" y="98" type="curve"/>
      <point x="57" y="0"/>
      <point x="57" y="98"/>
      <point x="57" y="0" type="curve"/>
      <point x="100" y="0"/>
      <point x="141" y="0"/>
      <point x="182" y="0" type="curve"/>
      <point x="182" y="98"/>
      <point x="182" y="0"/>
    </contour>
    <contour>
      <point x="176" y="624" type="curve"/>
      <point x="220" y="624"/>
      <point x="241" y="624"/>
      <point x="284" y="624" type="curve"/>
      <point x="337" y="624"/>
      <point x="353" y="587"/>
      <point x="353" y="539" type="curve"/>
      <point x="353" y="493"/>
      <point x="339" y="454"/>
      <point x="293" y="454" type="curve"/>
      <point x="248" y="454"/>
      <point x="222" y="454"/>
      <point x="176" y="454" type="curve"/>
      <point x="176" y="426"/>
      <point x="176" y="382"/>
      <point x="176" y="355" type="curve"/>
      <point x="207" y="355"/>
      <point x="224" y="355"/>
      <point x="256" y="355" type="curve"/>
      <point x="368" y="355"/>
      <point x="476" y="411"/>
      <point x="476" y="533" type="curve"/>
      <point x="476" y="651"/>
      <point x="410" y="722"/>
      <point x="294" y="722" type="curve"/>
      <point x="247" y="722"/>
      <point x="222" y="722"/>
      <point x="176" y="722" type="curve"/>
      <point x="176" y="694"/>
      <point x="176" y="652"/>
    </contour>
    <contour>
      <point x="248" y="0" type="curve"/>
      <point x="248" y="241"/>
      <point x="248" y="481"/>
      <point x="248" y="722" type="curve"/>
      <point x="118" y="722"/>
      <point x="248" y="722"/>
      <point x="118" y="722" type="curve"/>
      <point x="118" y="481"/>
      <point x="118" y="241"/>
      <point x="118" y="0" type="curve"/>
      <point x="248" y="0"/>
      <point x="118" y="0"/>
    </contour>
    <contour>
      <point x="176" y="355" type="curve"/>
      <point x="222" y="355"/>
      <point x="248" y="355"/>
      <point x="293" y="355" type="curve"/>
      <point x="364" y="355"/>
      <point x="383" y="296"/>
      <point x="383" y="225" type="curve"/>
      <point x="383" y="154"/>
      <point x="357" y="98"/>
      <point x="290" y="98" type="curve"/>
      <point x="245" y="98"/>
      <point x="222" y="98"/>
      <point x="176" y="98" type="curve"/>
      <point x="176" y="70"/>
      <point x="176" y="28"/>
      <point x="176" y="0" type="curve"/>
      <point x="224" y="0"/>
      <point x="251" y="0"/>
      <point x="299" y="0" type="curve"/>
      <point x="432" y="0"/>
      <point x="509" y="86"/>
      <point x="509" y="221" type="curve"/>
      <point x="509" y="370"/>
      <point x="404" y="454"/>
      <point x="256" y="454" type="curve"/>
      <point x="224" y="454"/>
      <point x="207" y="454"/>
      <point x="176" y="454" type="curve"/>
      <point x="176" y="426"/>
      <point x="176" y="382"/>
    </contour>
  </outline>
</glyph>
<glyph name="C" format="1">
  <advance width="550"/>
  <unicode hex="0043"/>
  <outline>
    <contour>
      <point x="303" y="786" type="move" name="top"/>
    </contour>
    <contour>
      <point x="336" y="3" type="move" name="bottom"/>
    </contour>
    <contour>
      <point x="394" y="654" type="curve"/>
      <point x="394" y="534"/>
      <point x="394" y="661"/>
      <point x="394" y="541" type="curve"/>
      <point x="493" y="541"/>
      <point x="394" y="541"/>
      <point x="493" y="541" type="curve"/>
      <point x="493" y="661"/>
      <point x="493" y="534"/>
      <point x="493" y="654" type="curve"/>
      <point x="394" y="654"/>
      <point x="493" y="654"/>
    </contour>
    <contour>
      <point x="493" y="654" type="curve"/>
      <point x="443" y="697"/>
      <point x="381" y="727"/>
      <point x="309" y="727" type="curve"/>
      <point x="121" y="727"/>
      <point x="48" y="563"/>
      <point x="48" y="345" type="curve"/>
      <point x="48" y="145"/>
      <point x="120" y="-5"/>
      <point x="298" y="-5" type="curve"/>
      <point x="391" y="-5"/>
      <point x="454" y="31"/>
      <point x="506" y="100" type="curve"/>
      <point x="430" y="171"/>
      <point x="506" y="100"/>
      <point x="429" y="171" type="curve"/>
      <point x="394" y="128"/>
      <point x="361" y="97"/>
      <point x="304" y="97" type="curve"/>
      <point x="191" y="97"/>
      <point x="173" y="213"/>
      <point x="173" y="349" type="curve"/>
      <point x="173" y="498"/>
      <point x="187" y="625"/>
      <point x="305" y="625" type="curve"/>
      <point x="352" y="625"/>
      <point x="394" y="604"/>
      <point x="425" y="576" type="curve"/>
      <point x="493" y="654"/>
      <point x="425" y="576"/>
    </contour>
  </outline>
</glyph>
<glyph name="D" format="1">
  <advance width="630"/>
  <unicode hex="0044"/>
  <outline>
    <contour>
      <point x="282" y="786" type="move" name="top"/>
    </contour>
    <contour>
      <point x="187" y="98" type="curve"/>
      <point x="55" y="98"/>
      <point x="190" y="98"/>
      <point x="58" y="98" type="curve"/>
      <point x="58" y="0"/>
      <point x="58" y="98"/>
      <point x="58" y="0" type="curve"/>
      <point x="102" y="0"/>
      <point x="144" y="0"/>
      <point x="187" y="0" type="curve"/>
      <point x="187" y="98"/>
      <point x="187" y="0"/>
    </contour>
    <contour>
      <point x="187" y="722" type="curve"/>
      <point x="144" y="722"/>
      <point x="102" y="722"/>
      <point x="58" y="722" type="curve"/>
      <point x="58" y="624"/>
      <point x="58" y="722"/>
      <point x="58" y="624" type="curve"/>
      <point x="190" y="624"/>
      <point x="55" y="624"/>
      <point x="187" y="624" type="curve"/>
      <point x="187" y="722"/>
      <point x="187" y="624"/>
    </contour>
    <contour>
      <point x="123" y="722" type="curve"/>
      <point x="123" y="481"/>
      <point x="123" y="241"/>
      <point x="123" y="0" type="curve"/>
      <point x="249" y="0"/>
      <point x="123" y="0"/>
      <point x="249" y="0" type="curve"/>
      <point x="249" y="241"/>
      <point x="249" y="481"/>
      <point x="249" y="722" type="curve"/>
      <point x="123" y="722"/>
      <point x="249" y="722"/>
    </contour>
    <contour>
      <point x="187" y="0" type="curve"/>
      <point x="229" y="0"/>
      <point x="269" y="0"/>
      <point x="311" y="0" type="curve"/>
      <point x="505" y="0"/>
      <point x="581" y="143"/>
      <point x="581" y="354" type="curve"/>
      <point x="581" y="573"/>
      <point x="508" y="722"/>
      <point x="309" y="722" type="curve"/>
      <point x="268" y="722"/>
      <point x="228" y="722"/>
      <point x="187" y="722" type="curve"/>
      <point x="187" y="627"/>
      <point x="187" y="720"/>
      <point x="187" y="624" type="curve"/>
      <point x="228" y="624"/>
      <point x="264" y="624"/>
      <point x="304" y="624" type="curve"/>
      <point x="435" y="624"/>
      <point x="456" y="505"/>
      <point x="456" y="353" type="curve"/>
      <point x="456" y="211"/>
      <point x="440" y="98"/>
      <point x="323" y="98" type="curve"/>
      <point x="277" y="98"/>
      <point x="233" y="98"/>
      <point x="187" y="98" type="curve"/>
      <point x="187" y="2"/>
      <point x="187" y="95"/>
    </contour>
  </outline>
</glyph>
<glyph name="F" format="1">
  <advance width="476"/>
  <unicode hex="0046"/>
  <outline>
    <contour>
      <point x="186" y="0" type="curve"/>
      <point x="230" y="0"/>
      <point x="186" y="0"/>
      <point x="319" y="0" type="curve"/>
      <point x="319" y="98"/>
      <point x="319" y="0"/>
      <point x="319" y="98" type="curve"/>
      <point x="186" y="98"/>
      <point x="319" y="98"/>
      <point x="186" y="98" type="curve"/>
      <point x="186" y="0"/>
      <point x="186" y="98"/>
    </contour>
    <contour>
      <point x="186" y="722" type="curve"/>
      <point x="143" y="722"/>
      <point x="101" y="722"/>
      <point x="57" y="722" type="curve"/>
      <point x="57" y="624"/>
      <point x="57" y="722"/>
      <point x="57" y="624" type="curve"/>
      <point x="189" y="624"/>
      <point x="54" y="624"/>
      <point x="186" y="624" type="curve"/>
      <point x="186" y="722"/>
      <point x="186" y="624"/>
    </contour>
    <contour>
      <point x="186" y="98" type="curve"/>
      <point x="54" y="98"/>
      <point x="189" y="98"/>
      <point x="57" y="98" type="curve"/>
      <point x="57" y="0"/>
      <point x="57" y="98"/>
      <point x="57" y="0" type="curve"/>
      <point x="101" y="0"/>
      <point x="143" y="0"/>
      <point x="186" y="0" type="curve"/>
      <point x="186" y="98"/>
      <point x="186" y="0"/>
    </contour>
    <contour>
      <point x="351" y="673" type="curve"/>
      <point x="351" y="553"/>
      <point x="351" y="674"/>
      <point x="351" y="554" type="curve"/>
      <point x="450" y="554"/>
      <point x="351" y="554"/>
      <point x="450" y="554" type="curve"/>
      <point x="450" y="674"/>
      <point x="450" y="553"/>
      <point x="450" y="673" type="curve"/>
      <point x="351" y="673"/>
      <point x="450" y="673"/>
    </contour>
    <contour>
      <point x="189" y="323" type="curve"/>
      <point x="260" y="323"/>
      <point x="331" y="323"/>
      <point x="401" y="323" type="curve"/>
      <point x="401" y="422"/>
      <point x="401" y="323"/>
      <point x="401" y="422" type="curve"/>
      <point x="331" y="422"/>
      <point x="260" y="422"/>
      <point x="189" y="422" type="curve"/>
      <point x="189" y="323"/>
      <point x="189" y="422"/>
    </contour>
    <contour>
      <point x="249" y="0" type="curve"/>
      <point x="249" y="722" type="line"/>
      <point x="124" y="722"/>
      <point x="249" y="722"/>
      <point x="124" y="722" type="curve"/>
      <point x="124" y="481"/>
      <point x="124" y="241"/>
      <point x="124" y="0" type="curve"/>
      <point x="249" y="0"/>
      <point x="124" y="0"/>
    </contour>
    <contour>
      <point x="179" y="624" type="curve"/>
      <point x="268" y="624"/>
      <point x="359" y="624"/>
      <point x="450" y="624" type="curve"/>
      <point x="450" y="722"/>
      <point x="450" y="624"/>
      <point x="450" y="722" type="curve"/>
      <point x="359" y="722"/>
      <point x="268" y="722"/>
      <point x="179" y="722" type="curve"/>
      <point x="179" y="624"/>
      <point x="179" y="722"/>
    </contour>
  </outline>
</glyph>
<glyph name="H" format="1">
  <advance width="655"/>
  <unicode hex="0048"/>
  <outline>
    <contour>
      <point x="490" y="624" type="curve"/>
      <point x="618" y="624"/>
      <point x="491" y="624"/>
      <point x="619" y="624" type="curve"/>
      <point x="619" y="722"/>
      <point x="619" y="624"/>
      <point x="619" y="722" type="curve"/>
      <point x="576" y="722"/>
      <point x="532" y="722"/>
      <point x="490" y="722" type="curve"/>
      <point x="490" y="624"/>
      <point x="490" y="722"/>
    </contour>
    <contour>
      <point x="490" y="0" type="curve"/>
      <point x="532" y="0"/>
      <point x="576" y="0"/>
      <point x="619" y="0" type="curve"/>
      <point x="619" y="98"/>
      <point x="619" y="0"/>
      <point x="619" y="98" type="curve"/>
      <point x="491" y="98"/>
      <point x="618" y="98"/>
      <point x="490" y="98" type="curve"/>
      <point x="490" y="0"/>
      <point x="490" y="98"/>
    </contour>
    <contour>
      <point x="490" y="98" type="curve"/>
      <point x="362" y="98"/>
      <point x="489" y="98"/>
      <point x="360" y="98" type="curve"/>
      <point x="360" y="0"/>
      <point x="360" y="98"/>
      <point x="360" y="0" type="curve"/>
      <point x="403" y="0"/>
      <point x="447" y="0"/>
      <point x="490" y="0" type="curve"/>
      <point x="490" y="98"/>
      <point x="490" y="0"/>
    </contour>
    <contour>
      <point x="490" y="722" type="curve"/>
      <point x="447" y="722"/>
      <point x="403" y="722"/>
      <point x="360" y="722" type="curve"/>
      <point x="360" y="624"/>
      <point x="360" y="722"/>
      <point x="360" y="624" type="curve"/>
      <point x="489" y="624"/>
      <point x="362" y="624"/>
      <point x="490" y="624" type="curve"/>
      <point x="490" y="722"/>
      <point x="490" y="624"/>
    </contour>
    <contour>
      <point x="166" y="624" type="curve"/>
      <point x="295" y="624"/>
      <point x="167" y="624"/>
      <point x="296" y="624" type="curve"/>
      <point x="296" y="722"/>
      <point x="296" y="624"/>
      <point x="296" y="722" type="curve"/>
      <point x="253" y="722"/>
      <point x="209" y="722"/>
      <point x="166" y="722" type="curve"/>
      <point x="166" y="624"/>
      <point x="166" y="722"/>
    </contour>
    <contour>
      <point x="166" y="722" type="curve"/>
      <point x="124" y="722"/>
      <point x="80" y="722"/>
      <point x="37" y="722" type="curve"/>
      <point x="37" y="624"/>
      <point x="37" y="722"/>
      <point x="37" y="624" type="curve"/>
      <point x="165" y="624"/>
      <point x="38" y="624"/>
      <point x="166" y="624" type="curve"/>
      <point x="166" y="722"/>
      <point x="166" y="624"/>
    </contour>
    <contour>
      <point x="166" y="0" type="curve"/>
      <point x="209" y="0"/>
      <point x="167" y="0"/>
      <point x="296" y="0" type="curve"/>
      <point x="296" y="98"/>
      <point x="296" y="0"/>
      <point x="296" y="98" type="curve"/>
      <point x="167" y="98"/>
      <point x="295" y="98"/>
      <point x="166" y="98" type="curve"/>
      <point x="166" y="0"/>
      <point x="166" y="98"/>
    </contour>
    <contour>
      <point x="166" y="98" type="curve"/>
      <point x="38" y="98"/>
      <point x="165" y="98"/>
      <point x="37" y="98" type="curve"/>
      <point x="37" y="0"/>
      <point x="37" y="98"/>
      <point x="37" y="0" type="curve"/>
      <point x="80" y="0"/>
      <point x="124" y="0"/>
      <point x="166" y="0" type="curve"/>
      <point x="166" y="98"/>
      <point x="166" y="0"/>
    </contour>
    <contour>
      <point x="229" y="0" type="curve"/>
      <point x="229" y="722" type="line"/>
      <point x="104" y="722"/>
      <point x="229" y="722"/>
      <point x="104" y="722" type="curve"/>
      <point x="104" y="481"/>
      <point x="104" y="241"/>
      <point x="104" y="0" type="curve"/>
      <point x="229" y="0"/>
      <point x="104" y="0"/>
    </contour>
    <contour>
      <point x="489" y="412" type="curve"/>
      <point x="380" y="412"/>
      <point x="273" y="412"/>
      <point x="166" y="412" type="curve"/>
      <point x="166" y="313"/>
      <point x="166" y="412"/>
      <point x="166" y="313" type="curve"/>
      <point x="273" y="313"/>
      <point x="380" y="313"/>
      <point x="489" y="313" type="curve"/>
      <point x="489" y="412"/>
      <point x="489" y="313"/>
    </contour>
    <contour>
      <point x="552" y="41" type="curve"/>
      <point x="552" y="254"/>
      <point x="552" y="468"/>
      <point x="552" y="681" type="curve"/>
      <point x="427" y="681"/>
      <point x="552" y="681"/>
      <point x="427" y="681" type="curve"/>
      <point x="427" y="41" type="line"/>
      <point x="552" y="41"/>
      <point x="427" y="41"/>
    </contour>
  </outline>
</glyph>
<glyph name="K" format="1">
  <advance width="597"/>
  <unicode hex="004B"/>
  <outline>
    <contour>
      <point x="323" y="-13" type="move" name="bottom"/>
    </contour>
    <contour>
      <point x="438" y="722" type="curve"/>
      <point x="395" y="722"/>
      <point x="364" y="722"/>
      <point x="322" y="722" type="curve"/>
      <point x="322" y="624"/>
      <point x="322" y="722"/>
      <point x="322" y="624" type="curve"/>
      <point x="451" y="624"/>
      <point x="309" y="624"/>
      <point x="438" y="624" type="curve"/>
      <point x="438" y="722"/>
      <point x="438" y="624"/>
    </contour>
    <contour>
      <point x="435" y="0" type="curve"/>
      <point x="498" y="0"/>
      <point x="505" y="0"/>
      <point x="569" y="0" type="curve"/>
      <point x="569" y="98"/>
      <point x="569" y="0"/>
      <point x="569" y="98" type="curve"/>
      <point x="381" y="98"/>
      <point x="622" y="98"/>
      <point x="435" y="98" type="curve"/>
      <point x="435" y="0"/>
      <point x="435" y="98"/>
    </contour>
    <contour>
      <point x="408" y="624" type="curve"/>
      <point x="538" y="624"/>
      <point x="416" y="624"/>
      <point x="545" y="624" type="curve"/>
      <point x="545" y="722"/>
      <point x="545" y="624"/>
      <point x="545" y="722" type="curve"/>
      <point x="502" y="722"/>
      <point x="452" y="722"/>
      <point x="408" y="722" type="curve"/>
      <point x="408" y="624"/>
      <point x="408" y="722"/>
    </contour>
    <contour>
      <point x="162" y="722" type="curve"/>
      <point x="121" y="722"/>
      <point x="79" y="722"/>
      <point x="37" y="722" type="curve"/>
      <point x="37" y="624"/>
      <point x="37" y="722"/>
      <point x="37" y="624" type="curve"/>
      <point x="162" y="624"/>
      <point x="38" y="624"/>
      <point x="162" y="624" type="curve"/>
      <point x="162" y="722"/>
      <point x="162" y="624"/>
    </contour>
    <contour>
      <point x="162" y="624" type="curve"/>
      <point x="294" y="624"/>
      <point x="124" y="624"/>
      <point x="256" y="624" type="curve"/>
      <point x="256" y="722"/>
      <point x="256" y="624"/>
      <point x="256" y="722" type="curve"/>
      <point x="212" y="722"/>
      <point x="206" y="722"/>
      <point x="162" y="722" type="curve"/>
      <point x="162" y="624"/>
      <point x="162" y="722"/>
    </contour>
    <contour>
      <point x="162" y="0" type="curve"/>
      <point x="209" y="0"/>
      <point x="125" y="0"/>
      <point x="268" y="0" type="curve"/>
      <point x="268" y="98"/>
      <point x="268" y="0"/>
      <point x="268" y="98" type="curve"/>
      <point x="125" y="98"/>
      <point x="305" y="98"/>
      <point x="162" y="98" type="curve"/>
      <point x="162" y="0"/>
      <point x="162" y="98"/>
    </contour>
    <contour>
      <point x="162" y="98" type="curve"/>
      <point x="38" y="98"/>
      <point x="162" y="98"/>
      <point x="37" y="98" type="curve"/>
      <point x="37" y="0"/>
      <point x="37" y="98"/>
      <point x="37" y="0" type="curve"/>
      <point x="79" y="0"/>
      <point x="121" y="0"/>
      <point x="162" y="0" type="curve"/>
      <point x="162" y="98"/>
      <point x="162" y="0"/>
    </contour>
    <contour>
      <point x="422" y="722" type="curve"/>
      <point x="217" y="380" type="line"/>
      <point x="347" y="380"/>
      <point x="217" y="380"/>
      <point x="347" y="380" type="curve"/>
      <point x="506" y="665" type="line"/>
      <point x="433" y="665"/>
      <point x="495" y="722"/>
    </contour>
    <contour>
      <point x="225" y="0" type="curve"/>
      <point x="225" y="722" type="line"/>
      <point x="100" y="722"/>
      <point x="225" y="722"/>
      <point x="100" y="722" type="curve"/>
      <point x="100" y="481"/>
      <point x="100" y="241"/>
      <point x="100" y="0" type="curve"/>
      <point x="225" y="0"/>
      <point x="100" y="0"/>
    </contour>
    <contour>
      <point x="535" y="45" type="curve"/>
      <point x="347" y="380" type="line"/>
      <point x="217" y="380"/>
      <point x="347" y="380"/>
      <point x="217" y="380" type="curve"/>
      <point x="437" y="0" type="line"/>
      <point x="524" y="0"/>
      <point x="448" y="45"/>
    </contour>
  </outline>
</glyph>
<glyph name="L" format="1">
  <advance width="463"/>
  <unicode hex="004C"/>
  <outline>
    <contour>
      <point x="167" y="786" type="move" name="top"/>
    </contour>
    <contour>
      <point x="296" y="-9" type="move" name="bottom"/>
    </contour>
    <contour>
      <point x="445" y="49" type="curve"/>
      <point x="445" y="169"/>
      <point x="445" y="48"/>
      <point x="445" y="168" type="curve"/>
      <point x="345" y="168"/>
      <point x="445" y="168"/>
      <point x="345" y="168" type="curve"/>
      <point x="345" y="48"/>
      <point x="345" y="169"/>
      <point x="345" y="49" type="curve"/>
      <point x="445" y="49"/>
      <point x="345" y="49"/>
    </contour>
    <contour>
      <point x="167" y="98" type="curve"/>
      <point x="39" y="98"/>
      <point x="166" y="98"/>
      <point x="38" y="98" type="curve"/>
      <point x="37" y="0"/>
      <point x="38" y="98"/>
      <point x="37" y="0" type="curve"/>
      <point x="80" y="0"/>
      <point x="124" y="0"/>
      <point x="167" y="0" type="curve"/>
      <point x="167" y="98"/>
      <point x="167" y="0"/>
    </contour>
    <contour>
      <point x="167" y="722" type="curve"/>
      <point x="124" y="722"/>
      <point x="80" y="722"/>
      <point x="38" y="722" type="curve"/>
      <point x="37" y="624"/>
      <point x="38" y="722"/>
      <point x="37" y="624" type="curve"/>
      <point x="166" y="624"/>
      <point x="38" y="624"/>
      <point x="167" y="624" type="curve"/>
      <point x="167" y="722"/>
      <point x="167" y="624"/>
    </contour>
    <contour>
      <point x="167" y="624" type="curve"/>
      <point x="295" y="624"/>
      <point x="168" y="624"/>
      <point x="296" y="624" type="curve"/>
      <point x="296" y="722"/>
      <point x="296" y="624"/>
      <point x="296" y="722" type="curve"/>
      <point x="253" y="722"/>
      <point x="209" y="722"/>
      <point x="167" y="722" type="curve"/>
      <point x="167" y="624"/>
      <point x="167" y="722"/>
    </contour>
    <contour>
      <point x="230" y="0" type="curve"/>
      <point x="230" y="241"/>
      <point x="230" y="481"/>
      <point x="230" y="722" type="curve"/>
      <point x="105" y="722"/>
      <point x="230" y="722"/>
      <point x="105" y="722" type="curve"/>
      <point x="105" y="481"/>
      <point x="105" y="241"/>
      <point x="105" y="0" type="curve"/>
      <point x="230" y="0"/>
      <point x="105" y="0"/>
    </contour>
    <contour>
      <point x="167" y="0" type="curve"/>
      <point x="259" y="0"/>
      <point x="353" y="0"/>
      <point x="445" y="0" type="curve"/>
      <point x="445" y="98"/>
      <point x="445" y="0"/>
      <point x="445" y="98" type="curve"/>
      <point x="353" y="98"/>
      <point x="259" y="98"/>
      <point x="167" y="98" type="curve"/>
      <point x="167" y="0"/>
      <point x="167" y="98"/>
    </contour>
  </outline>
</glyph>
<glyph name="M" format="1">
  <advance width="731"/>
  <unicode hex="004D"/>
  <outline>
    <contour>
      <point x="594" y="0" type="curve"/>
      <point x="634" y="0"/>
      <point x="675" y="0"/>
      <point x="714" y="0" type="curve"/>
      <point x="714" y="98"/>
      <point x="714" y="0"/>
      <point x="714" y="98" type="curve"/>
      <point x="594" y="98"/>
      <point x="713" y="98"/>
      <point x="594" y="98" type="curve"/>
      <point x="594" y="0"/>
      <point x="594" y="98"/>
    </contour>
    <contour>
      <point x="594" y="98" type="curve"/>
      <point x="485" y="98"/>
      <point x="592" y="98"/>
      <point x="484" y="98" type="curve"/>
      <point x="484" y="0"/>
      <point x="484" y="98"/>
      <point x="484" y="0" type="curve"/>
      <point x="521" y="0"/>
      <point x="558" y="0"/>
      <point x="594" y="0" type="curve"/>
      <point x="594" y="98"/>
      <point x="594" y="0"/>
    </contour>
    <contour>
      <point x="139" y="98" type="curve"/>
      <point x="19" y="98"/>
      <point x="137" y="98"/>
      <point x="18" y="98" type="curve"/>
      <point x="18" y="0"/>
      <point x="18" y="98"/>
      <point x="18" y="0" type="curve"/>
      <point x="58" y="0"/>
      <point x="99" y="0"/>
      <point x="139" y="0" type="curve"/>
      <point x="139" y="98"/>
      <point x="139" y="0"/>
    </contour>
    <contour>
      <point x="177" y="722" type="curve"/>
      <point x="138" y="722"/>
      <point x="98" y="722"/>
      <point x="58" y="722" type="curve"/>
      <point x="58" y="624"/>
      <point x="58" y="722"/>
      <point x="58" y="624" type="curve"/>
      <point x="177" y="624"/>
      <point x="58" y="624"/>
      <point x="177" y="624" type="curve"/>
      <point x="177" y="722"/>
      <point x="177" y="624"/>
    </contour>
    <contour>
      <point x="552" y="624" type="curve"/>
      <point x="671" y="624"/>
      <point x="554" y="624"/>
      <point x="672" y="624" type="curve"/>
      <point x="672" y="722"/>
      <point x="672" y="624"/>
      <point x="672" y="722" type="curve"/>
      <point x="632" y="722"/>
      <point x="592" y="722"/>
      <point x="552" y="722" type="curve"/>
      <point x="552" y="624"/>
      <point x="552" y="722"/>
    </contour>
    <contour>
      <point x="139" y="0" type="curve"/>
      <point x="175" y="0"/>
      <point x="139" y="0"/>
      <point x="248" y="0" type="curve"/>
      <point x="248" y="98"/>
      <point x="248" y="0"/>
      <point x="248" y="98" type="curve"/>
      <point x="139" y="98"/>
      <point x="246" y="98"/>
      <point x="139" y="98" type="curve"/>
      <point x="139" y="0"/>
      <point x="139" y="98"/>
    </contour>
    <contour>
      <point x="663" y="0" type="curve"/>
      <point x="649" y="241"/>
      <point x="631" y="481"/>
      <point x="618" y="722" type="curve"/>
      <point x="504" y="722"/>
      <point x="618" y="722"/>
      <point x="504" y="722" type="curve"/>
      <point x="517" y="481"/>
      <point x="525" y="241"/>
      <point x="538" y="0" type="curve"/>
      <point x="663" y="0"/>
      <point x="538" y="0"/>
    </contour>
    <contour>
      <point x="190" y="0" type="curve"/>
      <point x="202" y="241"/>
      <point x="214" y="481"/>
      <point x="227" y="722" type="curve"/>
      <point x="124" y="722"/>
      <point x="227" y="722"/>
      <point x="124" y="722" type="curve"/>
      <point x="111" y="481"/>
      <point x="99" y="241"/>
      <point x="86" y="0" type="curve"/>
      <point x="190" y="0"/>
      <point x="86" y="0"/>
    </contour>
    <contour>
      <point x="414" y="0" type="curve"/>
      <point x="352" y="241"/>
      <point x="290" y="481"/>
      <point x="228" y="722" type="curve"/>
      <point x="126" y="722"/>
      <point x="228" y="722"/>
      <point x="126" y="722" type="curve"/>
      <point x="187" y="481"/>
      <point x="250" y="241"/>
      <point x="311" y="0" type="curve"/>
      <point x="414" y="0"/>
      <point x="311" y="0"/>
    </contour>
    <contour>
      <point x="420" y="0" type="curve"/>
      <point x="481" y="241"/>
      <point x="541" y="481"/>
      <point x="601" y="722" type="curve"/>
      <point x="498" y="722"/>
      <point x="601" y="722"/>
      <point x="499" y="722" type="curve"/>
      <point x="438" y="481"/>
      <point x="377" y="241"/>
      <point x="316" y="0" type="curve"/>
      <point x="420" y="0"/>
      <point x="316" y="0"/>
    </contour>
  </outline>
</glyph>
<glyph name="N" format="1">
  <advance width="676"/>
  <unicode hex="004E"/>
  <outline>
    <contour>
      <point x="343" y="786" type="move" name="top"/>
    </contour>
    <contour>
      <point x="406" y="-12" type="move" name="bottom"/>
    </contour>
    <contour>
      <point x="164" y="722" type="curve"/>
      <point x="122" y="722"/>
      <point x="80" y="722"/>
      <point x="38" y="722" type="curve"/>
      <point x="38" y="624"/>
      <point x="38" y="722"/>
      <point x="38" y="624" type="curve"/>
      <point x="164" y="624"/>
      <point x="39" y="624"/>
      <point x="164" y="624" type="curve"/>
      <point x="164" y="722"/>
      <point x="164" y="624"/>
    </contour>
    <contour>
      <point x="521" y="624" type="curve"/>
      <point x="645" y="624"/>
      <point x="522" y="624"/>
      <point x="645" y="624" type="curve"/>
      <point x="645" y="722"/>
      <point x="645" y="624"/>
      <point x="645" y="722" type="curve"/>
      <point x="603" y="722"/>
      <point x="561" y="722"/>
      <point x="521" y="722" type="curve"/>
      <point x="521" y="624"/>
      <point x="521" y="722"/>
    </contour>
    <contour>
      <point x="518" y="722" type="curve"/>
      <point x="478" y="722"/>
      <point x="438" y="722"/>
      <point x="399" y="722" type="curve"/>
      <point x="399" y="624"/>
      <point x="399" y="722"/>
      <point x="399" y="624" type="curve"/>
      <point x="518" y="624"/>
      <point x="399" y="624"/>
      <point x="518" y="624" type="curve"/>
      <point x="518" y="722"/>
      <point x="518" y="624"/>
    </contour>
    <contour>
      <point x="163" y="98" type="curve"/>
      <point x="39" y="98"/>
      <point x="163" y="98"/>
      <point x="38" y="98" type="curve"/>
      <point x="37" y="0"/>
      <point x="38" y="98"/>
      <point x="37" y="0" type="curve"/>
      <point x="79" y="0"/>
      <point x="121" y="0"/>
      <point x="163" y="0" type="curve"/>
      <point x="163" y="98"/>
      <point x="163" y="0"/>
    </contour>
    <contour>
      <point x="163" y="0" type="curve"/>
      <point x="201" y="0"/>
      <point x="164" y="0"/>
      <point x="282" y="0" type="curve"/>
      <point x="282" y="98"/>
      <point x="282" y="0"/>
      <point x="282" y="98" type="curve"/>
      <point x="164" y="98"/>
      <point x="281" y="98"/>
      <point x="163" y="98" type="curve"/>
      <point x="163" y="0"/>
      <point x="163" y="98"/>
    </contour>
    <contour>
      <point x="582" y="0" type="curve"/>
      <point x="463" y="241"/>
      <point x="345" y="481"/>
      <point x="227" y="722" type="curve"/>
      <point x="102" y="722"/>
      <point x="228" y="722"/>
      <point x="102" y="722" type="curve"/>
      <point x="219" y="481"/>
      <point x="337" y="241"/>
      <point x="456" y="0" type="curve"/>
      <point x="582" y="0"/>
      <point x="455" y="0"/>
    </contour>
    <contour>
      <point x="454" y="722" type="curve"/>
      <point x="454" y="481"/>
      <point x="454" y="241"/>
      <point x="454" y="0" type="curve"/>
      <point x="580" y="0"/>
      <point x="454" y="0"/>
      <point x="580" y="0" type="curve"/>
      <point x="580" y="241"/>
      <point x="580" y="481"/>
      <point x="580" y="722" type="curve"/>
      <point x="454" y="722"/>
      <point x="580" y="722"/>
    </contour>
    <contour>
      <point x="225" y="0" type="curve"/>
      <point x="225" y="241"/>
      <point x="225" y="481"/>
      <point x="225" y="722" type="curve"/>
      <point x="100" y="722"/>
      <point x="225" y="722"/>
      <point x="100" y="722" type="curve"/>
      <point x="100" y="481"/>
      <point x="100" y="241"/>
      <point x="100" y="0" type="curve"/>
      <point x="225" y="0"/>
      <point x="100" y="0"/>
    </contour>
  </outline>
</glyph>
<glyph name="P" format="1">
  <advance width="520"/>
  <unicode hex="0050"/>
  <outline>
    <contour>
      <point x="187" y="722" type="curve"/>
      <point x="143" y="722"/>
      <point x="101" y="722"/>
      <point x="57" y="722" type="curve"/>
      <point x="57" y="624"/>
      <point x="57" y="722"/>
      <point x="57" y="624" type="curve"/>
      <point x="190" y="624"/>
      <point x="54" y="624"/>
      <point x="187" y="624" type="curve"/>
      <point x="187" y="722"/>
      <point x="187" y="624"/>
    </contour>
    <contour>
      <point x="187" y="98" type="curve"/>
      <point x="54" y="98"/>
      <point x="190" y="98"/>
      <point x="57" y="98" type="curve"/>
      <point x="57" y="0"/>
      <point x="57" y="98"/>
      <point x="57" y="0" type="curve"/>
      <point x="101" y="0"/>
      <point x="143" y="0"/>
      <point x="187" y="0" type="curve"/>
      <point x="187" y="98"/>
      <point x="187" y="0"/>
    </contour>
    <contour>
      <point x="187" y="0" type="curve"/>
      <point x="230" y="0"/>
      <point x="183" y="0"/>
      <point x="317" y="0" type="curve"/>
      <point x="317" y="98"/>
      <point x="317" y="0"/>
      <point x="317" y="98" type="curve"/>
      <point x="183" y="98"/>
      <point x="320" y="98"/>
      <point x="187" y="98" type="curve"/>
      <point x="187" y="0"/>
      <point x="187" y="98"/>
    </contour>
    <contour>
      <point x="168" y="303" type="curve"/>
      <point x="211" y="273"/>
      <point x="256" y="257"/>
      <point x="313" y="257" type="curve"/>
      <point x="421" y="259"/>
      <point x="487" y="346"/>
      <point x="487" y="477" type="curve"/>
      <point x="487" y="617"/>
      <point x="412" y="722"/>
      <point x="280" y="722" type="curve"/>
      <point x="249" y="722"/>
      <point x="219" y="722"/>
      <point x="189" y="722" type="curve"/>
      <point x="189" y="624"/>
      <point x="189" y="722"/>
      <point x="189" y="624" type="curve"/>
      <point x="214" y="624"/>
      <point x="238" y="624"/>
      <point x="264" y="624" type="curve"/>
      <point x="332" y="624"/>
      <point x="362" y="558"/>
      <point x="362" y="481" type="curve"/>
      <point x="362" y="412"/>
      <point x="350" y="350"/>
      <point x="295" y="350" type="curve"/>
      <point x="259" y="350"/>
      <point x="236" y="363"/>
      <point x="207" y="383" type="curve"/>
      <point x="169" y="306"/>
      <point x="207" y="383"/>
    </contour>
    <contour>
      <point x="248" y="0" type="curve"/>
      <point x="248" y="241"/>
      <point x="248" y="481"/>
      <point x="248" y="722" type="curve"/>
      <point x="123" y="722"/>
      <point x="248" y="722"/>
      <point x="123" y="722" type="curve"/>
      <point x="123" y="481"/>
      <point x="123" y="241"/>
      <point x="123" y="0" type="curve"/>
      <point x="248" y="0"/>
      <point x="123" y="0"/>
    </contour>
  </outline>
</glyph>
<glyph name="Q" format="1">
  <advance width="578"/>
  <unicode hex="0051"/>
  <outline>
    <contour>
      <point x="254" y="24" type="curve"/>
      <point x="317" y="-137"/>
      <point x="410" y="-215"/>
      <point x="571" y="-215" type="curve"/>
      <point x="571" y="-112"/>
      <point x="571" y="-215"/>
      <point x="571" y="-112" type="curve"/>
      <point x="459" y="-112"/>
      <point x="406" y="-42"/>
      <point x="362" y="72" type="curve"/>
      <point x="254" y="24"/>
      <point x="362" y="72"/>
    </contour>
    <contour>
      <point x="172" y="360" type="curve"/>
      <point x="172" y="495"/>
      <point x="185" y="619"/>
      <point x="298" y="619" type="curve"/>
      <point x="412" y="619"/>
      <point x="432" y="497"/>
      <point x="432" y="360" type="curve"/>
      <point x="432" y="224"/>
      <point x="420" y="97"/>
      <point x="306" y="97" type="curve"/>
      <point x="190" y="98"/>
      <point x="172" y="222"/>
      <point x="172" y="360" type="curve"/>
      <point x="47" y="360"/>
      <point x="172" y="360"/>
      <point x="47" y="360" type="curve"/>
      <point x="47" y="157"/>
      <point x="121" y="-5"/>
      <point x="301" y="-5" type="curve"/>
      <point x="484" y="-5"/>
      <point x="557" y="160"/>
      <point x="557" y="366" type="curve"/>
      <point x="557" y="567"/>
      <point x="488" y="731"/>
      <point x="309" y="731" type="curve"/>
      <point x="124" y="731"/>
      <point x="47" y="565"/>
      <point x="47" y="360" type="curve"/>
      <point x="172" y="360"/>
      <point x="47" y="360"/>
    </contour>
  </outline>
</glyph>
<glyph name="T" format="1">
  <advance width="456"/>
  <unicode hex="0054"/>
  <outline>
    <contour>
      <point x="228" y="786" type="move" name="top"/>
    </contour>
    <contour>
      <point x="286" y="-12" type="move" name="bottom"/>
    </contour>
    <contour>
      <point x="24" y="672" type="curve"/>
      <point x="24" y="552"/>
      <point x="24" y="674"/>
      <point x="24" y="554" type="curve"/>
      <point x="122" y="554"/>
      <point x="24" y="554"/>
      <point x="122" y="554" type="curve"/>
      <point x="122" y="674"/>
      <point x="122" y="552"/>
      <point x="122" y="672" type="curve"/>
      <point x="24" y="672"/>
      <point x="122" y="672"/>
    </contour>
    <contour>
      <point x="334" y="672" type="curve"/>
      <point x="334" y="552"/>
      <point x="334" y="674"/>
      <point x="334" y="554" type="curve"/>
      <point x="432" y="554"/>
      <point x="334" y="554"/>
      <point x="432" y="554" type="curve"/>
      <point x="432" y="674"/>
      <point x="432" y="552"/>
      <point x="432" y="672" type="curve"/>
      <point x="334" y="672"/>
      <point x="432" y="672"/>
    </contour>
    <contour>
      <point x="227" y="0" type="curve"/>
      <point x="270" y="0"/>
      <point x="313" y="0"/>
      <point x="357" y="0" type="curve"/>
      <point x="357" y="98"/>
      <point x="357" y="0"/>
      <point x="357" y="98" type="curve"/>
      <point x="226" y="98"/>
      <point x="358" y="98"/>
      <point x="227" y="98" type="curve"/>
      <point x="227" y="0"/>
      <point x="227" y="98"/>
    </contour>
    <contour>
      <point x="227" y="98" type="curve"/>
      <point x="97" y="98"/>
      <point x="229" y="98"/>
      <point x="98" y="98" type="curve"/>
      <point x="98" y="0"/>
      <point x="98" y="98"/>
      <point x="98" y="0" type="curve"/>
      <point x="141" y="0"/>
      <point x="184" y="0"/>
      <point x="227" y="0" type="curve"/>
      <point x="227" y="98"/>
      <point x="227" y="0"/>
    </contour>
    <contour>
      <point x="290" y="0" type="curve"/>
      <point x="290" y="237"/>
      <point x="290" y="473"/>
      <point x="290" y="710" type="curve"/>
      <point x="166" y="710"/>
      <point x="290" y="710"/>
      <point x="166" y="710" type="curve"/>
      <point x="165" y="473"/>
      <point x="166" y="237"/>
      <point x="166" y="0" type="curve"/>
      <point x="290" y="0"/>
      <point x="166" y="0"/>
    </contour>
    <contour>
      <point x="24" y="618" type="curve"/>
      <point x="159" y="618"/>
      <point x="296" y="618"/>
      <point x="432" y="618" type="curve"/>
      <point x="432" y="726"/>
      <point x="432" y="614"/>
      <point x="432" y="722" type="curve"/>
      <point x="296" y="722"/>
      <point x="159" y="722"/>
      <point x="24" y="722" type="curve"/>
      <point x="24" y="614"/>
      <point x="24" y="726"/>
    </contour>
  </outline>
</glyph>
<glyph name="U" format="1">
  <advance width="655"/>
  <unicode hex="0055"/>
  <outline>
    <contour>
      <point x="331" y="786" type="move" name="top"/>
    </contour>
    <contour>
      <point x="382" y="-8" type="move" name="bottom"/>
    </contour>
    <contour>
      <point x="493" y="624" type="curve"/>
      <point x="621" y="624"/>
      <point x="492" y="624"/>
      <point x="620" y="624" type="curve"/>
      <point x="620" y="722"/>
      <point x="620" y="624"/>
      <point x="620" y="722" type="curve"/>
      <point x="578" y="722"/>
      <point x="536" y="722"/>
      <point x="493" y="722" type="curve"/>
      <point x="493" y="624"/>
      <point x="493" y="722"/>
    </contour>
    <contour>
      <point x="493" y="722" type="curve"/>
      <point x="450" y="722"/>
      <point x="409" y="722"/>
      <point x="367" y="722" type="curve"/>
      <point x="367" y="624"/>
      <point x="367" y="722"/>
      <point x="367" y="624" type="curve"/>
      <point x="495" y="624"/>
      <point x="366" y="624"/>
      <point x="493" y="624" type="curve"/>
      <point x="493" y="722"/>
      <point x="493" y="624"/>
    </contour>
    <contour>
      <point x="164" y="722" type="curve"/>
      <point x="121" y="722"/>
      <point x="79" y="722"/>
      <point x="37" y="722" type="curve"/>
      <point x="38" y="624"/>
      <point x="37" y="722"/>
      <point x="38" y="624" type="curve"/>
      <point x="165" y="624"/>
      <point x="37" y="624"/>
      <point x="164" y="624" type="curve"/>
      <point x="164" y="722"/>
      <point x="164" y="624"/>
    </contour>
    <contour>
      <point x="164" y="624" type="curve"/>
      <point x="292" y="624"/>
      <point x="162" y="624"/>
      <point x="290" y="624" type="curve"/>
      <point x="290" y="722"/>
      <point x="290" y="624"/>
      <point x="290" y="722" type="curve"/>
      <point x="248" y="722"/>
      <point x="207" y="722"/>
      <point x="164" y="722" type="curve"/>
      <point x="164" y="624"/>
      <point x="164" y="722"/>
    </contour>
    <contour>
      <point x="105" y="681" type="curve"/>
      <point x="105" y="546"/>
      <point x="105" y="407"/>
      <point x="105" y="272" type="curve"/>
      <point x="105" y="100"/>
      <point x="166" y="-5"/>
      <point x="324" y="-5" type="curve"/>
      <point x="488" y="-5"/>
      <point x="551" y="104"/>
      <point x="551" y="280" type="curve"/>
      <point x="551" y="414"/>
      <point x="551" y="549"/>
      <point x="551" y="681" type="curve"/>
      <point x="436" y="681"/>
      <point x="551" y="681"/>
      <point x="436" y="681" type="curve"/>
      <point x="436" y="542"/>
      <point x="436" y="405"/>
      <point x="436" y="267" type="curve"/>
      <point x="436" y="174"/>
      <point x="412" y="103"/>
      <point x="333" y="103" type="curve"/>
      <point x="237" y="103"/>
      <point x="220" y="181"/>
      <point x="220" y="291" type="curve"/>
      <point x="220" y="421"/>
      <point x="220" y="553"/>
      <point x="220" y="681" type="curve"/>
      <point x="105" y="681"/>
      <point x="220" y="681"/>
    </contour>
  </outline>
</glyph>
<glyph name="V" format="1">
  <advance width="590"/>
  <unicode hex="0056"/>
  <outline>
    <contour>
      <point x="465" y="722" type="curve"/>
      <point x="421" y="722"/>
      <point x="378" y="722"/>
      <point x="334" y="722" type="curve"/>
      <point x="334" y="624"/>
      <point x="334" y="722"/>
      <point x="334" y="624" type="curve"/>
      <point x="466" y="624"/>
      <point x="333" y="624"/>
      <point x="465" y="624" type="curve"/>
      <point x="465" y="722"/>
      <point x="465" y="624"/>
    </contour>
    <contour>
      <point x="113" y="722" type="curve"/>
      <point x="75" y="722"/>
      <point x="39" y="722"/>
      <point x="0" y="722" type="curve"/>
      <point x="0" y="624"/>
      <point x="0" y="722"/>
      <point x="0" y="624" type="curve"/>
      <point x="114" y="624"/>
      <point x="-1" y="624"/>
      <point x="113" y="624" type="curve"/>
      <point x="113" y="722"/>
      <point x="113" y="624"/>
    </contour>
    <contour>
      <point x="472" y="624" type="curve"/>
      <point x="585" y="624"/>
      <point x="470" y="624"/>
      <point x="584" y="624" type="curve"/>
      <point x="584" y="722"/>
      <point x="584" y="624"/>
      <point x="584" y="722" type="curve"/>
      <point x="547" y="722"/>
      <point x="510" y="722"/>
      <point x="472" y="722" type="curve"/>
      <point x="472" y="624"/>
      <point x="472" y="722"/>
    </contour>
    <contour>
      <point x="120" y="624" type="curve"/>
      <point x="251" y="624"/>
      <point x="118" y="624"/>
      <point x="250" y="624" type="curve"/>
      <point x="250" y="722"/>
      <point x="250" y="624"/>
      <point x="250" y="722" type="curve"/>
      <point x="206" y="722"/>
      <point x="163" y="722"/>
      <point x="120" y="722" type="curve"/>
      <point x="120" y="624"/>
      <point x="120" y="722"/>
    </contour>
    <contour>
      <point x="416" y="722" type="curve"/>
      <point x="358" y="480"/>
      <point x="303" y="242"/>
      <point x="248" y="0" type="curve"/>
      <point x="376" y="0"/>
      <point x="232" y="0"/>
      <point x="360" y="0" type="curve"/>
      <point x="421" y="241"/>
      <point x="481" y="481"/>
      <point x="542" y="722" type="curve"/>
      <point x="416" y="722"/>
      <point x="542" y="722"/>
    </contour>
    <contour>
      <point x="42" y="722" type="curve"/>
      <point x="104" y="481"/>
      <point x="166" y="241"/>
      <point x="227" y="0" type="curve"/>
      <point x="356" y="0"/>
      <point x="214" y="0"/>
      <point x="343" y="0" type="curve"/>
      <point x="286" y="242"/>
      <point x="229" y="482"/>
      <point x="170" y="722" type="curve"/>
      <point x="42" y="722"/>
      <point x="170" y="722"/>
    </contour>
  </outline>
</glyph>
<glyph name="W" format="1">
  <advance width="725"/>
  <unicode hex="0057"/>
  <outline>
    <contour>
      <point x="127" y="624" type="curve"/>
      <point x="229" y="624"/>
      <point x="126" y="624"/>
      <point x="228" y="624" type="curve"/>
      <point x="228" y="722"/>
      <point x="228" y="624"/>
      <point x="228" y="722" type="curve"/>
      <point x="195" y="722"/>
      <point x="162" y="722"/>
      <point x="127" y="722" type="curve"/>
      <point x="127" y="624"/>
      <point x="127" y="722"/>
    </contour>
    <contour>
      <point x="118" y="722" type="curve"/>
      <point x="81" y="722"/>
      <point x="45" y="722"/>
      <point x="8" y="722" type="curve"/>
      <point x="8" y="624"/>
      <point x="8" y="722"/>
      <point x="8" y="624" type="curve"/>
      <point x="119" y="624"/>
      <point x="7" y="624"/>
      <point x="118" y="624" type="curve"/>
      <point x="118" y="722"/>
      <point x="118" y="624"/>
    </contour>
    <contour>
      <point x="602" y="722" type="curve"/>
      <point x="568" y="722"/>
      <point x="536" y="722"/>
      <point x="502" y="722" type="curve"/>
      <point x="502" y="624"/>
      <point x="502" y="722"/>
      <point x="502" y="624" type="curve"/>
      <point x="604" y="624"/>
      <point x="501" y="624"/>
      <point x="602" y="624" type="curve"/>
      <point x="602" y="722"/>
      <point x="602" y="624"/>
    </contour>
    <contour>
      <point x="608" y="624" type="curve"/>
      <point x="718" y="624"/>
      <point x="606" y="624"/>
      <point x="717" y="624" type="curve"/>
      <point x="717" y="722"/>
      <point x="717" y="624"/>
      <point x="717" y="722" type="curve"/>
      <point x="681" y="722"/>
      <point x="645" y="722"/>
      <point x="608" y="722" type="curve"/>
      <point x="608" y="624"/>
      <point x="608" y="722"/>
    </contour>
    <contour>
      <point x="282" y="0" type="curve"/>
      <point x="327" y="241"/>
      <point x="371" y="481"/>
      <point x="416" y="722" type="curve"/>
      <point x="314" y="722"/>
      <point x="415" y="722"/>
      <point x="313" y="722" type="curve"/>
      <point x="272" y="482"/>
      <point x="233" y="243"/>
      <point x="193" y="0" type="curve"/>
      <point x="291" y="0"/>
      <point x="184" y="0"/>
    </contour>
    <contour>
      <point x="316" y="722" type="curve"/>
      <point x="356" y="481"/>
      <point x="396" y="241"/>
      <point x="438" y="0" type="curve"/>
      <point x="535" y="0"/>
      <point x="426" y="0"/>
      <point x="523" y="0" type="curve"/>
      <point x="487" y="245"/>
      <point x="454" y="481"/>
      <point x="419" y="722" type="curve"/>
      <point x="317" y="722"/>
      <point x="418" y="722"/>
    </contour>
    <contour>
      <point x="59" y="722" type="curve"/>
      <point x="100" y="481"/>
      <point x="140" y="241"/>
      <point x="180" y="0" type="curve"/>
      <point x="279" y="0"/>
      <point x="181" y="0"/>
      <point x="280" y="0" type="curve"/>
      <point x="241" y="241"/>
      <point x="202" y="481"/>
      <point x="164" y="722" type="curve"/>
      <point x="59" y="722"/>
      <point x="164" y="722"/>
    </contour>
    <contour>
      <point x="561" y="722" type="curve"/>
      <point x="521" y="481"/>
      <point x="479" y="241"/>
      <point x="439" y="0" type="curve"/>
      <point x="538" y="0"/>
      <point x="441" y="0"/>
      <point x="539" y="0" type="curve"/>
      <point x="581" y="241"/>
      <point x="623" y="481"/>
      <point x="666" y="722" type="curve"/>
      <point x="561" y="722"/>
      <point x="666" y="722"/>
    </contour>
  </outline>
</glyph>
<glyph name="X" format="1">
  <advance width="549"/>
  <unicode hex="0058"/>
  <outline>
    <contour>
      <point x="141" y="0" type="curve"/>
      <point x="180" y="0"/>
      <point x="140" y="0"/>
      <point x="256" y="0" type="curve"/>
      <point x="256" y="98"/>
      <point x="256" y="0"/>
      <point x="256" y="98" type="curve"/>
      <point x="140" y="98"/>
      <point x="258" y="98"/>
      <point x="141" y="98" type="curve"/>
      <point x="141" y="0"/>
      <point x="141" y="98"/>
    </contour>
    <contour>
      <point x="121" y="98" type="curve"/>
      <point x="12" y="98"/>
      <point x="122" y="98"/>
      <point x="14" y="98" type="curve"/>
      <point x="12" y="0"/>
      <point x="14" y="98"/>
      <point x="12" y="0" type="curve"/>
      <point x="49" y="0"/>
      <point x="85" y="0"/>
      <point x="121" y="0" type="curve"/>
      <point x="121" y="98"/>
      <point x="121" y="0"/>
    </contour>
    <contour>
      <point x="426" y="0" type="curve"/>
      <point x="462" y="0"/>
      <point x="498" y="0"/>
      <point x="533" y="0" type="curve"/>
      <point x="533" y="98"/>
      <point x="533" y="0"/>
      <point x="533" y="98" type="curve"/>
      <point x="424" y="98"/>
      <point x="535" y="98"/>
      <point x="426" y="98" type="curve"/>
      <point x="426" y="0"/>
      <point x="426" y="98"/>
    </contour>
    <contour>
      <point x="406" y="98" type="curve"/>
      <point x="289" y="98"/>
      <point x="407" y="98"/>
      <point x="291" y="98" type="curve"/>
      <point x="291" y="0"/>
      <point x="291" y="98"/>
      <point x="291" y="0" type="curve"/>
      <point x="329" y="0"/>
      <point x="367" y="0"/>
      <point x="406" y="0" type="curve"/>
      <point x="406" y="98"/>
      <point x="406" y="0"/>
    </contour>
    <contour>
      <point x="414" y="624" type="curve"/>
      <point x="524" y="624"/>
      <point x="413" y="624"/>
      <point x="523" y="624" type="curve"/>
      <point x="523" y="722"/>
      <point x="523" y="624"/>
      <point x="523" y="722" type="curve"/>
      <point x="485" y="722"/>
      <point x="450" y="722"/>
      <point x="414" y="722" type="curve"/>
      <point x="414" y="624"/>
      <point x="414" y="722"/>
    </contour>
    <contour>
      <point x="429" y="722" type="curve"/>
      <point x="387" y="722"/>
      <point x="346" y="722"/>
      <point x="303" y="722" type="curve"/>
      <point x="303" y="624"/>
      <point x="303" y="722"/>
      <point x="303" y="624" type="curve"/>
      <point x="430" y="624"/>
      <point x="302" y="624"/>
      <point x="429" y="624" type="curve"/>
      <point x="429" y="722"/>
      <point x="429" y="624"/>
    </contour>
    <contour>
      <point x="134" y="722" type="curve"/>
      <point x="98" y="722"/>
      <point x="63" y="722"/>
      <point x="26" y="722" type="curve"/>
      <point x="26" y="624"/>
      <point x="26" y="722"/>
      <point x="26" y="624" type="curve"/>
      <point x="135" y="624"/>
      <point x="25" y="624"/>
      <point x="134" y="624" type="curve"/>
      <point x="134" y="722"/>
      <point x="134" y="624"/>
    </contour>
    <contour>
      <point x="119" y="624" type="curve"/>
      <point x="247" y="624"/>
      <point x="118" y="624"/>
      <point x="246" y="624" type="curve"/>
      <point x="246" y="722"/>
      <point x="246" y="624"/>
      <point x="246" y="722" type="curve"/>
      <point x="202" y="722"/>
      <point x="161" y="722"/>
      <point x="119" y="722" type="curve"/>
      <point x="119" y="624"/>
      <point x="119" y="722"/>
    </contour>
    <contour>
      <point x="375" y="722" type="curve"/>
      <point x="264" y="479"/>
      <point x="152" y="237"/>
      <point x="41" y="-7" type="curve"/>
      <point x="164" y="-7"/>
      <point x="41" y="0"/>
      <point x="164" y="0" type="curve"/>
      <point x="275" y="243"/>
      <point x="386" y="484"/>
      <point x="497" y="727" type="curve"/>
      <point x="375" y="727"/>
      <point x="497" y="722"/>
    </contour>
    <contour>
      <point x="54" y="728" type="curve"/>
      <point x="163" y="484"/>
      <point x="274" y="243"/>
      <point x="384" y="0" type="curve"/>
      <point x="506" y="0"/>
      <point x="384" y="-4"/>
      <point x="506" y="-4" type="curve"/>
      <point x="396" y="238"/>
      <point x="286" y="479"/>
      <point x="176" y="722" type="curve"/>
      <point x="54" y="722"/>
      <point x="176" y="728"/>
    </contour>
  </outline>
</glyph>
<glyph name="bracketleft" format="1">
  <advance width="267"/>
  <unicode hex="005B"/>
  <outline>
    <contour>
      <point x="225" y="769" type="curve"/>
      <point x="192" y="769"/>
      <point x="159" y="769"/>
      <point x="125" y="769" type="curve"/>
      <point x="112" y="769"/>
      <point x="79" y="769"/>
      <point x="66" y="769" type="curve"/>
      <point x="66" y="754"/>
      <point x="66" y="737"/>
      <point x="66" y="722" type="curve"/>
      <point x="66" y="458"/>
      <point x="66" y="196"/>
      <point x="66" y="-68" type="curve"/>
      <point x="66" y="-84"/>
      <point x="66" y="-93"/>
      <point x="66" y="-114" type="curve"/>
      <point x="80" y="-114"/>
      <point x="110" y="-114"/>
      <point x="124" y="-114" type="curve"/>
      <point x="158" y="-114"/>
      <point x="192" y="-114"/>
      <point x="225" y="-114" type="curve"/>
      <point x="225" y="-6"/>
      <point x="225" y="-114"/>
      <point x="225" y="-6" type="curve"/>
      <point x="192" y="-6"/>
      <point x="158" y="-6"/>
      <point x="124" y="-6" type="curve"/>
      <point x="192" y="-6"/>
      <point x="124" y="-6"/>
      <point x="192" y="-6" type="curve"/>
      <point x="192" y="-68"/>
      <point x="192" y="-6"/>
      <point x="192" y="-68" type="curve"/>
      <point x="192" y="196"/>
      <point x="192" y="458"/>
      <point x="192" y="722" type="curve"/>
      <point x="192" y="662"/>
      <point x="192" y="722"/>
      <point x="192" y="662" type="curve"/>
      <point x="125" y="662"/>
      <point x="192" y="662"/>
      <point x="125" y="662" type="curve"/>
      <point x="159" y="662"/>
      <point x="192" y="662"/>
      <point x="225" y="662" type="curve"/>
      <point x="225" y="769"/>
      <point x="225" y="662"/>
    </contour>
  </outline>
</glyph>
<glyph name="backslash" format="1">
  <advance width="439"/>
  <unicode hex="005C"/>
  <outline>
    <contour>
      <point x="414" y="-68" type="curve"/>
      <point x="328" y="236"/>
      <point x="241" y="540"/>
      <point x="156" y="844" type="curve"/>
      <point x="25" y="844"/>
      <point x="156" y="844"/>
      <point x="25" y="844" type="curve"/>
      <point x="111" y="540"/>
      <point x="198" y="236"/>
      <point x="284" y="-68" type="curve"/>
      <point x="414" y="-68"/>
      <point x="284" y="-68"/>
    </contour>
  </outline>
</glyph>
<glyph name="bracketright" format="1">
  <advance width="269"/>
  <unicode hex="005D"/>
  <outline>
    <contour>
      <point x="43" y="662" type="curve"/>
      <point x="76" y="662"/>
      <point x="110" y="662"/>
      <point x="143" y="662" type="curve"/>
      <point x="133" y="674"/>
      <point x="115" y="673"/>
      <point x="105" y="685" type="curve"/>
      <point x="96" y="697"/>
      <point x="86" y="709"/>
      <point x="77" y="722" type="curve"/>
      <point x="77" y="458"/>
      <point x="76" y="196"/>
      <point x="77" y="-68" type="curve"/>
      <point x="86" y="-54"/>
      <point x="98" y="-44"/>
      <point x="108" y="-33" type="curve"/>
      <point x="117" y="-21"/>
      <point x="135" y="-19"/>
      <point x="144" y="-6" type="curve"/>
      <point x="111" y="-6"/>
      <point x="76" y="-6"/>
      <point x="43" y="-6" type="curve"/>
      <point x="42" y="-114"/>
      <point x="43" y="-6"/>
      <point x="42" y="-114" type="curve"/>
      <point x="76" y="-114"/>
      <point x="111" y="-114"/>
      <point x="144" y="-114" type="curve"/>
      <point x="202" y="-114"/>
      <point x="144" y="-114"/>
      <point x="202" y="-114" type="curve"/>
      <point x="202" y="-68"/>
      <point x="202" y="-114"/>
      <point x="202" y="-68" type="curve"/>
      <point x="201" y="196"/>
      <point x="202" y="458"/>
      <point x="202" y="722" type="curve"/>
      <point x="202" y="769"/>
      <point x="202" y="722"/>
      <point x="202" y="769" type="curve"/>
      <point x="143" y="769"/>
      <point x="202" y="769"/>
      <point x="143" y="769" type="curve"/>
      <point x="110" y="769"/>
      <point x="76" y="769"/>
      <point x="43" y="769" type="curve"/>
      <point x="43" y="662"/>
      <point x="43" y="769"/>
    </contour>
  </outline>
</glyph>
<glyph name="asciicircum" format="1">
  <advance width="444"/>
  <unicode hex="005E"/>
  <outline>
    <contour>
      <point x="169" y="455" type="curve"/>
      <point x="207" y="558"/>
      <point x="245" y="660"/>
      <point x="284" y="762" type="curve"/>
      <point x="159" y="762"/>
      <point x="285" y="762"/>
      <point x="159" y="762" type="curve"/>
      <point x="120" y="660"/>
      <point x="82" y="558"/>
      <point x="44" y="455" type="curve"/>
      <point x="169" y="455"/>
      <point x="44" y="455"/>
    </contour>
    <contour>
      <point x="399" y="455" type="curve"/>
      <point x="362" y="555"/>
      <point x="322" y="661"/>
      <point x="284" y="762" type="curve"/>
      <point x="159" y="762"/>
      <point x="284" y="762"/>
      <point x="159" y="762" type="curve"/>
      <point x="197" y="661"/>
      <point x="237" y="555"/>
      <point x="275" y="455" type="curve"/>
      <point x="399" y="455"/>
      <point x="275" y="455"/>
    </contour>
  </outline>
</glyph>
<glyph name="underscore" format="1">
  <advance width="449"/>
  <unicode hex="005F"/>
  <outline>
    <contour>
      <point x="0" y="-187" type="curve"/>
      <point x="149" y="-187"/>
      <point x="300" y="-187"/>
      <point x="449" y="-187" type="curve"/>
      <point x="449" y="-88"/>
      <point x="449" y="-187"/>
      <point x="449" y="-88" type="curve"/>
      <point x="300" y="-88"/>
      <point x="149" y="-88"/>
      <point x="0" y="-88" type="curve"/>
      <point x="0" y="-187"/>
      <point x="0" y="-88"/>
    </contour>
  </outline>
</glyph>
<glyph name="grave" format="1">
  <advance width="313"/>
  <unicode hex="0060"/>
  <outline>
    <contour>
      <point x="216" y="598" type="move" name="_top"/>
    </contour>
    <contour>
      <point x="273" y="599" type="line"/>
      <point x="202" y="765" type="line"/>
      <point x="51" y="765" type="line"/>
      <point x="157" y="599" type="line"/>
    </contour>
  </outline>
</glyph>
<glyph name="b" format="1">
  <advance width="536"/>
  <unicode hex="0062"/>
  <outline>
    <contour>
      <point x="158" y="800" type="curve"/>
      <point x="114" y="800"/>
      <point x="70" y="800"/>
      <point x="29" y="800" type="curve"/>
      <point x="28" y="693"/>
      <point x="29" y="810"/>
      <point x="28" y="702" type="curve"/>
      <point x="172" y="702"/>
      <point x="13" y="702"/>
      <point x="158" y="702" type="curve"/>
      <point x="158" y="810"/>
      <point x="158" y="692"/>
    </contour>
    <contour>
      <point x="192" y="362" type="curve"/>
      <point x="207" y="389"/>
      <point x="244" y="436"/>
      <point x="293" y="436" type="curve"/>
      <point x="366" y="436"/>
      <point x="372" y="350"/>
      <point x="372" y="262" type="curve"/>
      <point x="373" y="179"/>
      <point x="363" y="97"/>
      <point x="296" y="97" type="curve"/>
      <point x="256" y="97"/>
      <point x="227" y="119"/>
      <point x="200" y="156" type="curve"/>
      <point x="130" y="110"/>
      <point x="209" y="160"/>
      <point x="139" y="114" type="curve"/>
      <point x="175" y="47"/>
      <point x="223" y="-5"/>
      <point x="307" y="-5" type="curve"/>
      <point x="433" y="-5"/>
      <point x="497" y="118"/>
      <point x="497" y="268" type="curve"/>
      <point x="497" y="416"/>
      <point x="436" y="538"/>
      <point x="310" y="538" type="curve"/>
      <point x="223" y="538"/>
      <point x="168" y="462"/>
      <point x="140" y="401" type="curve"/>
      <point x="197" y="356"/>
      <point x="134" y="407"/>
    </contour>
    <contour>
      <point x="219" y="0" type="curve"/>
      <point x="219" y="262"/>
      <point x="219" y="538"/>
      <point x="219" y="800" type="curve"/>
      <point x="81" y="800"/>
      <point x="232" y="800"/>
      <point x="93" y="800" type="curve"/>
      <point x="93" y="538"/>
      <point x="93" y="262"/>
      <point x="93" y="0" type="curve"/>
      <point x="232" y="0"/>
      <point x="81" y="0"/>
    </contour>
    <contour>
      <point x="158" y="98" type="curve"/>
      <point x="14" y="98"/>
      <point x="172" y="98"/>
      <point x="29" y="98" type="curve"/>
      <point x="29" y="-10"/>
      <point x="29" y="107"/>
      <point x="29" y="0" type="curve"/>
      <point x="70" y="0"/>
      <point x="115" y="0"/>
      <point x="158" y="0" type="curve"/>
      <point x="158" y="107"/>
      <point x="158" y="-10"/>
    </contour>
  </outline>
</glyph>
<glyph name="c" format="1">
  <advance width="440"/>
  <unicode hex="0063"/>
  <outline>
    <contour>
      <point x="241" y="618" type="move" name="top"/>
    </contour>
    <contour>
      <point x="282" y="4" type="move" name="bottom"/>
    </contour>
    <contour>
      <point x="290" y="470" type="curve"/>
      <point x="290" y="356"/>
      <point x="290" y="471"/>
      <point x="290" y="357" type="curve"/>
      <point x="388" y="357"/>
      <point x="290" y="357"/>
      <point x="388" y="357" type="curve"/>
      <point x="388" y="471"/>
      <point x="388" y="356"/>
      <point x="388" y="470" type="curve"/>
      <point x="290" y="470"/>
      <point x="388" y="470"/>
    </contour>
    <contour>
      <point x="388" y="470" type="curve"/>
      <point x="352" y="508"/>
      <point x="302" y="538"/>
      <point x="247" y="538" type="curve"/>
      <point x="103" y="538"/>
      <point x="40" y="428"/>
      <point x="40" y="267" type="curve"/>
      <point x="40" y="106"/>
      <point x="101" y="-5"/>
      <point x="245" y="-5" type="curve"/>
      <point x="308" y="-5"/>
      <point x="368" y="27"/>
      <point x="401" y="98" type="curve"/>
      <point x="315" y="153"/>
      <point x="401" y="98"/>
      <point x="315" y="153" type="curve"/>
      <point x="300" y="128"/>
      <point x="281" y="97"/>
      <point x="252" y="97" type="curve"/>
      <point x="176" y="97"/>
      <point x="164" y="174"/>
      <point x="164" y="267" type="curve"/>
      <point x="164" y="359"/>
      <point x="174" y="436"/>
      <point x="246" y="436" type="curve"/>
      <point x="273" y="436"/>
      <point x="297" y="420"/>
      <point x="314" y="402" type="curve"/>
      <point x="388" y="470"/>
      <point x="314" y="402"/>
    </contour>
  </outline>
</glyph>
<glyph name="h" format="1">
  <advance width="514"/>
  <unicode hex="0068"/>
  <outline>
    <contour>
      <point x="381" y="-1" type="curve"/>
      <point x="423" y="-1"/>
      <point x="468" y="0"/>
      <point x="510" y="0" type="curve"/>
      <point x="510" y="98"/>
      <point x="510" y="0"/>
      <point x="510" y="98" type="curve"/>
      <point x="384" y="98"/>
      <point x="508" y="98"/>
      <point x="381" y="98" type="curve"/>
      <point x="381" y="-1"/>
      <point x="381" y="98"/>
    </contour>
    <contour>
      <point x="137" y="-1" type="curve"/>
      <point x="172" y="-1"/>
      <point x="139" y="-1"/>
      <point x="245" y="0" type="curve"/>
      <point x="245" y="98"/>
      <point x="245" y="0"/>
      <point x="245" y="98" type="curve"/>
      <point x="139" y="98"/>
      <point x="242" y="98"/>
      <point x="137" y="98" type="curve"/>
      <point x="137" y="-1"/>
      <point x="137" y="98"/>
    </contour>
    <contour>
      <point x="137" y="799" type="curve"/>
      <point x="95" y="799"/>
      <point x="49" y="800"/>
      <point x="8" y="800" type="curve"/>
      <point x="7" y="702"/>
      <point x="8" y="800"/>
      <point x="7" y="702" type="curve"/>
      <point x="134" y="702"/>
      <point x="9" y="702"/>
      <point x="137" y="702" type="curve"/>
      <point x="137" y="799"/>
      <point x="137" y="702"/>
    </contour>
    <contour>
      <point x="137" y="98" type="curve"/>
      <point x="10" y="98"/>
      <point x="134" y="98"/>
      <point x="8" y="98" type="curve"/>
      <point x="7" y="0"/>
      <point x="8" y="98"/>
      <point x="7" y="0" type="curve"/>
      <point x="49" y="0"/>
      <point x="95" y="-1"/>
      <point x="137" y="-1" type="curve"/>
      <point x="137" y="98"/>
      <point x="137" y="-1"/>
    </contour>
    <contour>
      <point x="171" y="312" type="curve"/>
      <point x="186" y="368"/>
      <point x="212" y="435"/>
      <point x="267" y="435" type="curve"/>
      <point x="325" y="435"/>
      <point x="319" y="379"/>
      <point x="319" y="315" type="curve"/>
      <point x="319" y="210"/>
      <point x="319" y="104"/>
      <point x="319" y="0" type="curve"/>
      <point x="444" y="0"/>
      <point x="319" y="0"/>
      <point x="444" y="0" type="curve"/>
      <point x="444" y="107"/>
      <point x="444" y="215"/>
      <point x="444" y="322" type="curve"/>
      <point x="444" y="441"/>
      <point x="420" y="533"/>
      <point x="305" y="533" type="curve"/>
      <point x="222" y="533"/>
      <point x="159" y="453"/>
      <point x="144" y="362" type="curve"/>
      <point x="171" y="313"/>
      <point x="144" y="362"/>
    </contour>
    <contour>
      <point x="198" y="0" type="curve"/>
      <point x="198" y="267"/>
      <point x="198" y="533"/>
      <point x="198" y="800" type="curve"/>
      <point x="74" y="800"/>
      <point x="198" y="800"/>
      <point x="74" y="800" type="curve"/>
      <point x="74" y="533"/>
      <point x="74" y="267"/>
      <point x="74" y="0" type="curve"/>
      <point x="198" y="0"/>
      <point x="74" y="0"/>
    </contour>
  </outline>
</glyph>
<glyph name="i" format="1">
  <advance width="296"/>
  <unicode hex="0069"/>
  <outline>
    <contour>
      <point x="152" y="619" type="move" name="top"/>
    </contour>
    <contour>
      <point x="212" y="3" type="move" name="bottom"/>
    </contour>
    <contour>
      <point x="156" y="98" type="curve"/>
      <point x="30" y="98"/>
      <point x="154" y="98"/>
      <point x="27" y="98" type="curve"/>
      <point x="26" y="0"/>
      <point x="27" y="98"/>
      <point x="26" y="0" type="curve"/>
      <point x="68" y="0"/>
      <point x="114" y="0"/>
      <point x="156" y="0" type="curve"/>
      <point x="156" y="98"/>
      <point x="156" y="0"/>
    </contour>
    <contour>
      <point x="156" y="0" type="curve"/>
      <point x="196" y="0"/>
      <point x="237" y="0"/>
      <point x="278" y="0" type="curve"/>
      <point x="278" y="98"/>
      <point x="278" y="0"/>
      <point x="278" y="98" type="curve"/>
      <point x="157" y="98"/>
      <point x="277" y="98"/>
      <point x="156" y="98" type="curve"/>
      <point x="156" y="0"/>
      <point x="156" y="98"/>
    </contour>
    <contour>
      <point x="156" y="533" type="curve"/>
      <point x="114" y="533"/>
      <point x="68" y="533"/>
      <point x="27" y="533" type="curve"/>
      <point x="26" y="435"/>
      <point x="27" y="533"/>
      <point x="26" y="435" type="curve"/>
      <point x="154" y="435"/>
      <point x="29" y="435"/>
      <point x="156" y="435" type="curve"/>
      <point x="156" y="533"/>
      <point x="156" y="435"/>
    </contour>
    <contour>
      <point x="222" y="0" type="curve"/>
      <point x="222" y="178"/>
      <point x="222" y="355"/>
      <point x="222" y="533" type="curve"/>
      <point x="90" y="533"/>
      <point x="222" y="533"/>
      <point x="90" y="533" type="curve"/>
      <point x="90" y="355"/>
      <point x="90" y="178"/>
      <point x="90" y="0" type="curve"/>
      <point x="222" y="0"/>
      <point x="90" y="0"/>
    </contour>
    <contour>
      <point x="216" y="678" type="curve"/>
      <point x="216" y="720"/>
      <point x="189" y="742"/>
      <point x="151" y="742" type="curve"/>
      <point x="113" y="742"/>
      <point x="88" y="718"/>
      <point x="88" y="678" type="curve"/>
      <point x="217" y="678"/>
      <point x="88" y="678"/>
      <point x="216" y="678" type="curve"/>
      <point x="216" y="634"/>
      <point x="189" y="614"/>
      <point x="151" y="614" type="curve"/>
      <point x="112" y="614"/>
      <point x="88" y="636"/>
      <point x="88" y="678" type="curve"/>
      <point x="217" y="678"/>
      <point x="88" y="678"/>
    </contour>
  </outline>
</glyph>
<glyph name="j" format="1">
  <advance width="238"/>
  <unicode hex="006A"/>
  <outline>
    <contour>
      <point x="110" y="533" type="curve"/>
      <point x="68" y="533"/>
      <point x="27" y="533"/>
      <point x="-15" y="533" type="curve"/>
      <point x="-15" y="435"/>
      <point x="-15" y="533"/>
      <point x="-15" y="435" type="curve"/>
      <point x="111" y="435"/>
      <point x="-16" y="435"/>
      <point x="110" y="435" type="curve"/>
      <point x="110" y="533"/>
      <point x="110" y="435"/>
    </contour>
    <contour>
      <point x="-13" y="-304" type="curve"/>
      <point x="-6" y="-305"/>
      <point x="3" y="-305"/>
      <point x="11" y="-305" type="curve"/>
      <point x="111" y="-305"/>
      <point x="174" y="-226"/>
      <point x="174" y="-123" type="curve"/>
      <point x="174" y="96"/>
      <point x="174" y="315"/>
      <point x="174" y="534" type="curve"/>
      <point x="48" y="534"/>
      <point x="174" y="534"/>
      <point x="48" y="534" type="curve"/>
      <point x="48" y="315"/>
      <point x="48" y="96"/>
      <point x="48" y="-123" type="curve"/>
      <point x="48" y="-164"/>
      <point x="51" y="-211"/>
      <point x="17" y="-211" type="curve"/>
      <point x="12" y="-211"/>
      <point x="11" y="-211"/>
      <point x="4" y="-210" type="curve"/>
      <point x="-13" y="-303"/>
      <point x="4" y="-211"/>
    </contour>
    <contour>
      <point x="172" y="670" type="curve"/>
      <point x="172" y="713"/>
      <point x="145" y="734"/>
      <point x="107" y="734" type="curve"/>
      <point x="69" y="734"/>
      <point x="44" y="711"/>
      <point x="44" y="670" type="curve"/>
      <point x="173" y="670"/>
      <point x="44" y="670"/>
      <point x="172" y="670" type="curve"/>
      <point x="172" y="626"/>
      <point x="146" y="607"/>
      <point x="108" y="607" type="curve"/>
      <point x="69" y="607"/>
      <point x="44" y="628"/>
      <point x="44" y="670" type="curve"/>
      <point x="173" y="670"/>
      <point x="44" y="670"/>
    </contour>
  </outline>
</glyph>
<glyph name="k" format="1">
  <advance width="488"/>
  <unicode hex="006B"/>
  <outline>
    <contour>
      <point x="328" y="-12" type="move" name="bottom"/>
    </contour>
    <contour>
      <point x="135" y="98" type="curve"/>
      <point x="8" y="98"/>
      <point x="132" y="98"/>
      <point x="6" y="98" type="curve"/>
      <point x="6" y="0"/>
      <point x="6" y="98"/>
      <point x="6" y="0" type="curve"/>
      <point x="48" y="0"/>
      <point x="93" y="-1"/>
      <point x="135" y="-1" type="curve"/>
      <point x="135" y="98"/>
      <point x="135" y="-1"/>
    </contour>
    <contour>
      <point x="351" y="0" type="curve"/>
      <point x="389" y="0"/>
      <point x="433" y="0"/>
      <point x="472" y="0" type="curve"/>
      <point x="472" y="98"/>
      <point x="472" y="0"/>
      <point x="472" y="98" type="curve"/>
      <point x="360" y="98"/>
      <point x="466" y="98"/>
      <point x="355" y="98" type="curve"/>
      <point x="355" y="0"/>
      <point x="351" y="98"/>
    </contour>
    <contour>
      <point x="363" y="435" type="curve"/>
      <point x="448" y="435"/>
      <point x="368" y="435"/>
      <point x="453" y="435" type="curve"/>
      <point x="453" y="533"/>
      <point x="453" y="435"/>
      <point x="453" y="533" type="curve"/>
      <point x="426" y="533"/>
      <point x="391" y="533"/>
      <point x="363" y="533" type="curve"/>
      <point x="363" y="435"/>
      <point x="363" y="533"/>
    </contour>
    <contour>
      <point x="135" y="-1" type="curve"/>
      <point x="173" y="-1"/>
      <point x="134" y="-1"/>
      <point x="245" y="0" type="curve"/>
      <point x="245" y="98"/>
      <point x="245" y="0"/>
      <point x="245" y="98" type="curve"/>
      <point x="134" y="98"/>
      <point x="247" y="98"/>
      <point x="135" y="98" type="curve"/>
      <point x="135" y="-1"/>
      <point x="135" y="98"/>
    </contour>
    <contour>
      <point x="390" y="533" type="curve"/>
      <point x="338" y="533"/>
      <point x="284" y="533"/>
      <point x="231" y="533" type="curve"/>
      <point x="231" y="435"/>
      <point x="231" y="533"/>
      <point x="231" y="435" type="curve"/>
      <point x="390" y="435"/>
      <point x="231" y="435"/>
      <point x="390" y="435" type="curve"/>
      <point x="390" y="533"/>
      <point x="390" y="435"/>
    </contour>
    <contour>
      <point x="137" y="799" type="curve"/>
      <point x="95" y="799"/>
      <point x="49" y="800"/>
      <point x="7" y="800" type="curve"/>
      <point x="7" y="702"/>
      <point x="7" y="800"/>
      <point x="7" y="702" type="curve"/>
      <point x="134" y="702"/>
      <point x="9" y="702"/>
      <point x="137" y="702" type="curve"/>
      <point x="137" y="799"/>
      <point x="137" y="702"/>
    </contour>
    <contour>
      <point x="198" y="0" type="curve"/>
      <point x="198" y="800" type="line"/>
      <point x="73" y="800"/>
      <point x="198" y="800"/>
      <point x="73" y="800" type="curve"/>
      <point x="73" y="533"/>
      <point x="73" y="267"/>
      <point x="73" y="0" type="curve"/>
      <point x="198" y="0"/>
      <point x="73" y="0"/>
    </contour>
    <contour>
      <point x="333" y="533" type="curve"/>
      <point x="180" y="275" type="line"/>
      <point x="293" y="275"/>
      <point x="179" y="275"/>
      <point x="293" y="275" type="curve"/>
      <point x="430" y="486" type="line"/>
      <point x="340" y="486"/>
      <point x="422" y="533"/>
    </contour>
    <contour>
      <point x="438" y="62" type="curve"/>
      <point x="293" y="275" type="line"/>
      <point x="179" y="275"/>
      <point x="294" y="275"/>
      <point x="180" y="275" type="curve"/>
      <point x="351" y="0" type="line"/>
      <point x="430" y="0"/>
      <point x="360" y="62"/>
    </contour>
  </outline>
</glyph>
<glyph name="l" format="1">
  <advance width="288"/>
  <unicode hex="006C"/>
  <outline>
    <contour>
      <point x="146" y="883" type="move" name="top"/>
    </contour>
    <contour>
      <point x="196" y="-11" type="move" name="bottom"/>
    </contour>
    <contour>
      <point x="144" y="98" type="curve"/>
      <point x="17" y="98"/>
      <point x="144" y="98"/>
      <point x="17" y="98" type="curve"/>
      <point x="17" y="0"/>
      <point x="17" y="98"/>
      <point x="17" y="0" type="curve"/>
      <point x="59" y="0"/>
      <point x="101" y="0"/>
      <point x="144" y="0" type="curve"/>
      <point x="144" y="98"/>
      <point x="144" y="-1"/>
    </contour>
    <contour>
      <point x="146" y="800" type="curve"/>
      <point x="102" y="800"/>
      <point x="60" y="800"/>
      <point x="19" y="800" type="curve"/>
      <point x="18" y="702"/>
      <point x="19" y="800"/>
      <point x="18" y="702" type="curve"/>
      <point x="146" y="702"/>
      <point x="18" y="702"/>
      <point x="146" y="702" type="curve"/>
      <point x="146" y="799"/>
      <point x="146" y="702"/>
    </contour>
    <contour>
      <point x="144" y="0" type="curve"/>
      <point x="186" y="0"/>
      <point x="229" y="0"/>
      <point x="271" y="0" type="curve"/>
      <point x="271" y="98"/>
      <point x="271" y="0"/>
      <point x="271" y="98" type="curve"/>
      <point x="144" y="98"/>
      <point x="271" y="98"/>
      <point x="144" y="98" type="curve"/>
      <point x="144" y="-1"/>
      <point x="144" y="98"/>
    </contour>
    <contour>
      <point x="206" y="0" type="curve"/>
      <point x="206" y="267"/>
      <point x="206" y="533"/>
      <point x="206" y="800" type="curve"/>
      <point x="80" y="800"/>
      <point x="206" y="800"/>
      <point x="80" y="800" type="curve"/>
      <point x="80" y="533"/>
      <point x="80" y="267"/>
      <point x="80" y="0" type="curve"/>
      <point x="206" y="0"/>
      <point x="80" y="0"/>
    </contour>
  </outline>
</glyph>
<glyph name="m" format="1">
  <advance width="779"/>
  <unicode hex="006D"/>
  <outline>
    <contour>
      <point x="394" y="0" type="curve"/>
      <point x="510" y="0"/>
      <point x="395" y="0"/>
      <point x="510" y="0" type="curve"/>
      <point x="510" y="98"/>
      <point x="510" y="0"/>
      <point x="510" y="98" type="curve"/>
      <point x="395" y="98"/>
      <point x="510" y="98"/>
      <point x="394" y="98" type="curve"/>
      <point x="394" y="0"/>
      <point x="394" y="98"/>
    </contour>
    <contour>
      <point x="614" y="0" type="curve"/>
      <point x="658" y="0"/>
      <point x="702" y="0"/>
      <point x="747" y="0" type="curve"/>
      <point x="747" y="98"/>
      <point x="747" y="0"/>
      <point x="747" y="98" type="curve"/>
      <point x="613" y="98"/>
      <point x="748" y="98"/>
      <point x="614" y="98" type="curve"/>
      <point x="614" y="0"/>
      <point x="614" y="98"/>
    </contour>
    <contour>
      <point x="175" y="98" type="curve"/>
      <point x="45" y="98"/>
      <point x="177" y="98"/>
      <point x="46" y="98" type="curve"/>
      <point x="45" y="0"/>
      <point x="46" y="98"/>
      <point x="45" y="0" type="curve"/>
      <point x="89" y="0"/>
      <point x="132" y="0"/>
      <point x="175" y="0" type="curve"/>
      <point x="175" y="98"/>
      <point x="175" y="0"/>
    </contour>
    <contour>
      <point x="175" y="0" type="curve"/>
      <point x="214" y="0"/>
      <point x="172" y="0"/>
      <point x="290" y="0" type="curve"/>
      <point x="290" y="98"/>
      <point x="290" y="0"/>
      <point x="290" y="98" type="curve"/>
      <point x="172" y="98"/>
      <point x="293" y="98"/>
      <point x="175" y="98" type="curve"/>
      <point x="175" y="0"/>
      <point x="175" y="98"/>
    </contour>
    <contour>
      <point x="175" y="533" type="curve"/>
      <point x="132" y="533"/>
      <point x="89" y="533"/>
      <point x="46" y="533" type="curve"/>
      <point x="45" y="435"/>
      <point x="46" y="533"/>
      <point x="45" y="435" type="curve"/>
      <point x="177" y="435"/>
      <point x="44" y="435"/>
      <point x="175" y="435" type="curve"/>
      <point x="175" y="533"/>
      <point x="175" y="435"/>
    </contour>
    <contour>
      <point x="428" y="284" type="curve"/>
      <point x="442" y="354"/>
      <point x="452" y="436"/>
      <point x="507" y="436" type="curve"/>
      <point x="566" y="436"/>
      <point x="550" y="382"/>
      <point x="550" y="312" type="curve"/>
      <point x="550" y="208"/>
      <point x="550" y="104"/>
      <point x="550" y="0" type="curve"/>
      <point x="675" y="0"/>
      <point x="550" y="0"/>
      <point x="675" y="0" type="curve"/>
      <point x="675" y="107"/>
      <point x="675" y="215"/>
      <point x="675" y="322" type="curve"/>
      <point x="675" y="448"/>
      <point x="675" y="538"/>
      <point x="556" y="538" type="curve"/>
      <point x="469" y="538"/>
      <point x="419" y="453"/>
      <point x="401" y="342" type="curve"/>
      <point x="433" y="287"/>
      <point x="397" y="340"/>
    </contour>
    <contour>
      <point x="210" y="283" type="curve"/>
      <point x="221" y="352"/>
      <point x="233" y="436"/>
      <point x="289" y="436" type="curve"/>
      <point x="347" y="436"/>
      <point x="331" y="382"/>
      <point x="331" y="312" type="curve"/>
      <point x="331" y="208"/>
      <point x="331" y="104"/>
      <point x="331" y="0" type="curve"/>
      <point x="457" y="0"/>
      <point x="331" y="0"/>
      <point x="457" y="0" type="curve"/>
      <point x="457" y="107"/>
      <point x="457" y="215"/>
      <point x="457" y="322" type="curve"/>
      <point x="457" y="448"/>
      <point x="456" y="538"/>
      <point x="337" y="538" type="curve"/>
      <point x="249" y="538"/>
      <point x="200" y="453"/>
      <point x="183" y="342" type="curve"/>
      <point x="213" y="286"/>
      <point x="178" y="339"/>
    </contour>
    <contour>
      <point x="238" y="0" type="curve"/>
      <point x="238" y="178"/>
      <point x="238" y="355"/>
      <point x="238" y="533" type="curve"/>
      <point x="113" y="533"/>
      <point x="238" y="533"/>
      <point x="113" y="533" type="curve"/>
      <point x="113" y="355"/>
      <point x="113" y="178"/>
      <point x="113" y="0" type="curve"/>
      <point x="238" y="0"/>
      <point x="113" y="0"/>
    </contour>
  </outline>
</glyph>
<glyph name="o" format="1">
  <advance width="490"/>
  <unicode hex="006F"/>
  <outline>
    <contour>
      <point x="244" y="618" type="move" name="top"/>
    </contour>
    <contour>
      <point x="154" y="265" type="curve"/>
      <point x="154" y="350"/>
      <point x="164" y="435"/>
      <point x="240" y="435" type="curve"/>
      <point x="315" y="435"/>
      <point x="326" y="351"/>
      <point x="326" y="265" type="curve"/>
      <point x="326" y="176"/>
      <point x="318" y="98"/>
      <point x="248" y="98" type="curve"/>
      <point x="163" y="99"/>
      <point x="154" y="176"/>
      <point x="154" y="265" type="curve"/>
      <point x="173" y="265"/>
      <point x="22" y="265"/>
      <point x="40" y="265" type="curve"/>
      <point x="40" y="111"/>
      <point x="100" y="-5"/>
      <point x="242" y="-5" type="curve"/>
      <point x="386" y="-5"/>
      <point x="450" y="109"/>
      <point x="450" y="265" type="curve"/>
      <point x="450" y="423"/>
      <point x="388" y="538"/>
      <point x="246" y="538" type="curve"/>
      <point x="102" y="538"/>
      <point x="40" y="423"/>
      <point x="40" y="265" type="curve"/>
      <point x="22" y="265"/>
      <point x="173" y="265"/>
    </contour>
  </outline>
</glyph>
<glyph name="p" format="1">
  <advance width="518"/>
  <unicode hex="0070"/>
  <outline>
    <contour>
      <point x="135" y="-202" type="curve"/>
      <point x="8" y="-202"/>
      <point x="132" y="-202"/>
      <point x="6" y="-202" type="curve"/>
      <point x="6" y="-300"/>
      <point x="6" y="-202"/>
      <point x="6" y="-300" type="curve"/>
      <point x="48" y="-300"/>
      <point x="93" y="-300"/>
      <point x="135" y="-300" type="curve"/>
      <point x="135" y="-202"/>
      <point x="135" y="-300"/>
    </contour>
    <contour>
      <point x="135" y="-300" type="curve"/>
      <point x="175" y="-300"/>
      <point x="217" y="-300"/>
      <point x="258" y="-300" type="curve"/>
      <point x="258" y="-202"/>
      <point x="258" y="-300"/>
      <point x="258" y="-202" type="curve"/>
      <point x="137" y="-202"/>
      <point x="255" y="-202"/>
      <point x="135" y="-202" type="curve"/>
      <point x="135" y="-300"/>
      <point x="135" y="-202"/>
    </contour>
    <contour>
      <point x="136" y="533" type="curve"/>
      <point x="94" y="533"/>
      <point x="49" y="533"/>
      <point x="7" y="533" type="curve"/>
      <point x="7" y="435"/>
      <point x="7" y="533"/>
      <point x="7" y="435" type="curve"/>
      <point x="133" y="435"/>
      <point x="9" y="435"/>
      <point x="136" y="435" type="curve"/>
      <point x="136" y="533"/>
      <point x="136" y="435"/>
    </contour>
    <contour>
      <point x="175" y="312" type="curve"/>
      <point x="181" y="368"/>
      <point x="220" y="436"/>
      <point x="265" y="436" type="curve"/>
      <point x="353" y="436"/>
      <point x="355" y="351"/>
      <point x="355" y="263" type="curve"/>
      <point x="356" y="177"/>
      <point x="351" y="93"/>
      <point x="270" y="93" type="curve"/>
      <point x="229" y="93"/>
      <point x="200" y="115"/>
      <point x="178" y="152" type="curve"/>
      <point x="132" y="94"/>
      <point x="184" y="160"/>
      <point x="137" y="101" type="curve"/>
      <point x="180" y="33"/>
      <point x="226" y="-5"/>
      <point x="299" y="-5" type="curve"/>
      <point x="441" y="-5"/>
      <point x="480" y="125"/>
      <point x="480" y="268" type="curve"/>
      <point x="480" y="409"/>
      <point x="441" y="539"/>
      <point x="297" y="539" type="curve"/>
      <point x="224" y="539"/>
      <point x="168" y="463"/>
      <point x="143" y="394" type="curve"/>
      <point x="176" y="304"/>
      <point x="141" y="401"/>
    </contour>
    <contour>
      <point x="198" y="-300" type="curve"/>
      <point x="198" y="-22"/>
      <point x="198" y="255"/>
      <point x="198" y="533" type="curve"/>
      <point x="73" y="533"/>
      <point x="198" y="533"/>
      <point x="73" y="533" type="curve"/>
      <point x="73" y="255"/>
      <point x="73" y="-22"/>
      <point x="73" y="-300" type="curve"/>
      <point x="198" y="-300"/>
      <point x="73" y="-300"/>
    </contour>
  </outline>
</glyph>
<glyph name="q" format="1">
  <advance width="541"/>
  <unicode hex="0071"/>
  <outline>
    <contour>
      <point x="386" y="435" type="curve"/>
      <point x="518" y="435"/>
      <point x="373" y="435"/>
      <point x="508" y="435" type="curve"/>
      <point x="508" y="543"/>
      <point x="508" y="426"/>
      <point x="508" y="533" type="curve"/>
      <point x="469" y="533"/>
      <point x="425" y="533"/>
      <point x="386" y="533" type="curve"/>
      <point x="386" y="426"/>
      <point x="386" y="543"/>
    </contour>
    <contour>
      <point x="384" y="-202" type="curve"/>
      <point x="242" y="-202"/>
      <point x="397" y="-202"/>
      <point x="255" y="-202" type="curve"/>
      <point x="255" y="-310"/>
      <point x="255" y="-192"/>
      <point x="255" y="-300" type="curve"/>
      <point x="297" y="-300"/>
      <point x="342" y="-300"/>
      <point x="384" y="-300" type="curve"/>
      <point x="384" y="-192"/>
      <point x="384" y="-310"/>
    </contour>
    <contour>
      <point x="384" y="-300" type="curve"/>
      <point x="424" y="-300"/>
      <point x="468" y="-300"/>
      <point x="507" y="-300" type="curve"/>
      <point x="507" y="-192"/>
      <point x="507" y="-310"/>
      <point x="507" y="-202" type="curve"/>
      <point x="372" y="-202"/>
      <point x="519" y="-202"/>
      <point x="384" y="-202" type="curve"/>
      <point x="384" y="-310"/>
      <point x="384" y="-192"/>
    </contour>
    <contour>
      <point x="382" y="403" type="curve"/>
      <point x="354" y="483"/>
      <point x="293" y="538"/>
      <point x="223" y="538" type="curve"/>
      <point x="79" y="538"/>
      <point x="39" y="409"/>
      <point x="40" y="265" type="curve"/>
      <point x="40" y="121"/>
      <point x="85" y="-5"/>
      <point x="228" y="-5" type="curve"/>
      <point x="293" y="-5"/>
      <point x="348" y="53"/>
      <point x="376" y="118" type="curve"/>
      <point x="336" y="178"/>
      <point x="384" y="114"/>
      <point x="345" y="174" type="curve"/>
      <point x="326" y="131"/>
      <point x="292" y="92"/>
      <point x="249" y="92" type="curve"/>
      <point x="171" y="92"/>
      <point x="165" y="181"/>
      <point x="165" y="270" type="curve"/>
      <point x="165" y="354"/>
      <point x="174" y="436"/>
      <point x="247" y="436" type="curve"/>
      <point x="284" y="436"/>
      <point x="313" y="418"/>
      <point x="350" y="351" type="curve"/>
      <point x="375" y="414"/>
      <point x="355" y="340"/>
    </contour>
    <contour>
      <point x="450" y="-300" type="curve"/>
      <point x="450" y="-26"/>
      <point x="450" y="259"/>
      <point x="450" y="533" type="curve"/>
      <point x="305" y="533"/>
      <point x="463" y="533"/>
      <point x="319" y="533" type="curve"/>
      <point x="319" y="259"/>
      <point x="319" y="-26"/>
      <point x="319" y="-300" type="curve"/>
      <point x="463" y="-300"/>
      <point x="305" y="-300"/>
    </contour>
  </outline>
</glyph>
<glyph name="t" format="1">
  <advance width="299"/>
  <unicode hex="0074"/>
  <outline>
    <contour>
      <point x="233" y="-7" type="move" name="bottom"/>
    </contour>
    <contour>
      <point x="13" y="434" type="curve"/>
      <point x="278" y="434" type="line"/>
      <point x="278" y="532"/>
      <point x="278" y="434"/>
      <point x="278" y="532" type="curve"/>
      <point x="13" y="532" type="line"/>
      <point x="13" y="434"/>
      <point x="13" y="532"/>
    </contour>
    <contour>
      <point x="233" y="114" type="curve"/>
      <point x="223" y="104"/>
      <point x="216" y="97"/>
      <point x="204" y="97" type="curve"/>
      <point x="172" y="97"/>
      <point x="177" y="132"/>
      <point x="177" y="171" type="curve"/>
      <point x="177" y="679" type="line"/>
      <point x="34" y="589"/>
      <point x="194" y="686"/>
      <point x="52" y="596" type="curve"/>
      <point x="52" y="166" type="line"/>
      <point x="52" y="61"/>
      <point x="91" y="-6"/>
      <point x="184" y="-6" type="curve"/>
      <point x="223" y="-6"/>
      <point x="250" y="7"/>
      <point x="287" y="31" type="curve"/>
      <point x="233" y="114"/>
      <point x="287" y="31"/>
    </contour>
  </outline>
</glyph>
<glyph name="v" format="1">
  <advance width="522"/>
  <unicode hex="0076"/>
  <outline>
    <contour>
      <point x="119" y="533" type="curve"/>
      <point x="83" y="533"/>
      <point x="51" y="533"/>
      <point x="17" y="533" type="curve"/>
      <point x="17" y="435"/>
      <point x="17" y="533"/>
      <point x="17" y="435" type="curve"/>
      <point x="120" y="435"/>
      <point x="15" y="435"/>
      <point x="119" y="435" type="curve"/>
      <point x="119" y="533"/>
      <point x="119" y="435"/>
    </contour>
    <contour>
      <point x="119" y="435" type="curve"/>
      <point x="245" y="435"/>
      <point x="118" y="435"/>
      <point x="244" y="435" type="curve"/>
      <point x="244" y="533"/>
      <point x="244" y="435"/>
      <point x="244" y="533" type="curve"/>
      <point x="203" y="533"/>
      <point x="161" y="533"/>
      <point x="119" y="533" type="curve"/>
      <point x="119" y="435"/>
      <point x="119" y="533"/>
    </contour>
    <contour>
      <point x="414" y="533" type="curve"/>
      <point x="371" y="533"/>
      <point x="330" y="533"/>
      <point x="288" y="533" type="curve"/>
      <point x="288" y="435"/>
      <point x="288" y="533"/>
      <point x="288" y="435" type="curve"/>
      <point x="415" y="435"/>
      <point x="287" y="435"/>
      <point x="414" y="435" type="curve"/>
      <point x="414" y="533"/>
      <point x="414" y="435"/>
    </contour>
    <contour>
      <point x="414" y="435" type="curve"/>
      <point x="515" y="435"/>
      <point x="412" y="435"/>
      <point x="514" y="435" type="curve"/>
      <point x="514" y="533"/>
      <point x="514" y="435"/>
      <point x="514" y="533" type="curve"/>
      <point x="480" y="533"/>
      <point x="448" y="533"/>
      <point x="414" y="533" type="curve"/>
      <point x="414" y="435"/>
      <point x="414" y="533"/>
    </contour>
    <contour>
      <point x="51" y="533" type="curve"/>
      <point x="98" y="355"/>
      <point x="143" y="178"/>
      <point x="188" y="0" type="curve"/>
      <point x="304" y="0"/>
      <point x="188" y="0"/>
      <point x="304" y="0" type="curve"/>
      <point x="259" y="177"/>
      <point x="223" y="356"/>
      <point x="179" y="533" type="curve"/>
      <point x="51" y="533"/>
      <point x="179" y="533"/>
    </contour>
    <contour>
      <point x="355" y="533" type="curve"/>
      <point x="221" y="0" type="line"/>
      <point x="337" y="0"/>
      <point x="221" y="0"/>
      <point x="337" y="0" type="curve"/>
      <point x="385" y="178"/>
      <point x="433" y="355"/>
      <point x="481" y="533" type="curve"/>
      <point x="355" y="533"/>
      <point x="481" y="533"/>
    </contour>
  </outline>
</glyph>
<glyph name="w" format="1">
  <advance width="718"/>
  <unicode hex="0077"/>
  <outline>
    <contour>
      <point x="596" y="435" type="curve"/>
      <point x="709" y="435"/>
      <point x="595" y="435"/>
      <point x="707" y="435" type="curve"/>
      <point x="707" y="533"/>
      <point x="707" y="435"/>
      <point x="707" y="533" type="curve"/>
      <point x="670" y="533"/>
      <point x="633" y="533"/>
      <point x="596" y="533" type="curve"/>
      <point x="596" y="435"/>
      <point x="596" y="533"/>
    </contour>
    <contour>
      <point x="596" y="533" type="curve"/>
      <point x="558" y="533"/>
      <point x="521" y="533"/>
      <point x="483" y="533" type="curve"/>
      <point x="483" y="435"/>
      <point x="483" y="533"/>
      <point x="483" y="435" type="curve"/>
      <point x="601" y="435"/>
      <point x="479" y="435"/>
      <point x="596" y="435" type="curve"/>
      <point x="596" y="533"/>
      <point x="596" y="435"/>
    </contour>
    <contour>
      <point x="125" y="533" type="curve"/>
      <point x="88" y="533"/>
      <point x="50" y="533"/>
      <point x="13" y="533" type="curve"/>
      <point x="13" y="435"/>
      <point x="13" y="533"/>
      <point x="13" y="435" type="curve"/>
      <point x="126" y="435"/>
      <point x="12" y="435"/>
      <point x="125" y="435" type="curve"/>
      <point x="125" y="533"/>
      <point x="125" y="435"/>
    </contour>
    <contour>
      <point x="125" y="435" type="curve"/>
      <point x="236" y="435"/>
      <point x="122" y="435"/>
      <point x="233" y="435" type="curve"/>
      <point x="233" y="533"/>
      <point x="233" y="435"/>
      <point x="233" y="533" type="curve"/>
      <point x="196" y="533"/>
      <point x="161" y="533"/>
      <point x="125" y="533" type="curve"/>
      <point x="125" y="435"/>
      <point x="125" y="533"/>
    </contour>
    <contour>
      <point x="281" y="0" type="curve"/>
      <point x="327" y="178"/>
      <point x="371" y="355"/>
      <point x="415" y="533" type="curve"/>
      <point x="310" y="533"/>
      <point x="415" y="533"/>
      <point x="310" y="533" type="curve"/>
      <point x="266" y="355"/>
      <point x="222" y="178"/>
      <point x="179" y="0" type="curve"/>
      <point x="281" y="0"/>
      <point x="179" y="0"/>
    </contour>
    <contour>
      <point x="558" y="533" type="curve"/>
      <point x="517" y="355"/>
      <point x="476" y="178"/>
      <point x="436" y="0" type="curve"/>
      <point x="538" y="0"/>
      <point x="436" y="0"/>
      <point x="538" y="0" type="curve"/>
      <point x="581" y="178"/>
      <point x="622" y="355"/>
      <point x="664" y="533" type="curve"/>
      <point x="558" y="533"/>
      <point x="664" y="533"/>
    </contour>
    <contour>
      <point x="315" y="533" type="curve"/>
      <point x="354" y="355"/>
      <point x="395" y="178"/>
      <point x="435" y="0" type="curve"/>
      <point x="538" y="0"/>
      <point x="435" y="0"/>
      <point x="538" y="0" type="curve"/>
      <point x="498" y="178"/>
      <point x="458" y="355"/>
      <point x="419" y="533" type="curve"/>
      <point x="315" y="533"/>
      <point x="419" y="533"/>
    </contour>
    <contour>
      <point x="58" y="533" type="curve"/>
      <point x="98" y="355"/>
      <point x="138" y="178"/>
      <point x="178" y="0" type="curve"/>
      <point x="280" y="0"/>
      <point x="178" y="0"/>
      <point x="280" y="0" type="curve"/>
      <point x="241" y="178"/>
      <point x="202" y="355"/>
      <point x="162" y="533" type="curve"/>
      <point x="58" y="533"/>
      <point x="162" y="533"/>
    </contour>
  </outline>
</glyph>
<glyph name="x" format="1">
  <advance width="508"/>
  <unicode hex="0078"/>
  <outline>
    <contour>
      <point x="101" y="98" type="curve"/>
      <point x="42" y="98"/>
      <point x="87" y="98"/>
      <point x="28" y="98" type="curve"/>
      <point x="28" y="0"/>
      <point x="28" y="98"/>
      <point x="28" y="0" type="curve"/>
      <point x="47" y="0"/>
      <point x="81" y="0"/>
      <point x="101" y="0" type="curve"/>
      <point x="101" y="98"/>
      <point x="101" y="0"/>
    </contour>
    <contour>
      <point x="433" y="98" type="curve"/>
      <point x="301" y="98"/>
      <point x="414" y="98"/>
      <point x="283" y="98" type="curve"/>
      <point x="283" y="0"/>
      <point x="283" y="98"/>
      <point x="283" y="0" type="curve"/>
      <point x="326" y="0"/>
      <point x="388" y="0"/>
      <point x="433" y="0" type="curve"/>
      <point x="433" y="98"/>
      <point x="433" y="0"/>
    </contour>
    <contour>
      <point x="413" y="0" type="curve"/>
      <point x="434" y="0"/>
      <point x="478" y="0"/>
      <point x="499" y="0" type="curve"/>
      <point x="499" y="98"/>
      <point x="499" y="0"/>
      <point x="499" y="98" type="curve"/>
      <point x="436" y="98"/>
      <point x="475" y="98"/>
      <point x="413" y="98" type="curve"/>
      <point x="413" y="0"/>
      <point x="413" y="98"/>
    </contour>
    <contour>
      <point x="81" y="0" type="curve"/>
      <point x="126" y="0"/>
      <point x="96" y="0"/>
      <point x="230" y="0" type="curve"/>
      <point x="230" y="98"/>
      <point x="230" y="0"/>
      <point x="230" y="98" type="curve"/>
      <point x="96" y="98"/>
      <point x="214" y="98"/>
      <point x="81" y="98" type="curve"/>
      <point x="81" y="0"/>
      <point x="81" y="98"/>
    </contour>
    <contour>
      <point x="404" y="435" type="curve"/>
      <point x="472" y="435"/>
      <point x="433" y="435"/>
      <point x="501" y="435" type="curve"/>
      <point x="501" y="533"/>
      <point x="501" y="435"/>
      <point x="501" y="533" type="curve"/>
      <point x="478" y="533"/>
      <point x="427" y="533"/>
      <point x="404" y="533" type="curve"/>
      <point x="404" y="435"/>
      <point x="404" y="533"/>
    </contour>
    <contour>
      <point x="147" y="533" type="curve"/>
      <point x="119" y="533"/>
      <point x="74" y="533"/>
      <point x="47" y="533" type="curve"/>
      <point x="47" y="435"/>
      <point x="47" y="533"/>
      <point x="47" y="435" type="curve"/>
      <point x="128" y="435"/>
      <point x="67" y="435"/>
      <point x="147" y="435" type="curve"/>
      <point x="147" y="533"/>
      <point x="147" y="435"/>
    </contour>
    <contour>
      <point x="121" y="435" type="curve"/>
      <point x="241" y="435"/>
      <point x="126" y="435"/>
      <point x="246" y="435" type="curve"/>
      <point x="246" y="533"/>
      <point x="246" y="435"/>
      <point x="246" y="533" type="curve"/>
      <point x="208" y="533"/>
      <point x="161" y="533"/>
      <point x="121" y="533" type="curve"/>
      <point x="121" y="435"/>
      <point x="121" y="533"/>
    </contour>
    <contour>
      <point x="435" y="533" type="curve"/>
      <point x="389" y="533"/>
      <point x="338" y="533"/>
      <point x="293" y="533" type="curve"/>
      <point x="293" y="435"/>
      <point x="293" y="533"/>
      <point x="293" y="435" type="curve"/>
      <point x="430" y="435"/>
      <point x="298" y="435"/>
      <point x="435" y="435" type="curve"/>
      <point x="435" y="533"/>
      <point x="435" y="435"/>
    </contour>
    <contour>
      <point x="468" y="35" type="curve"/>
      <point x="457" y="58"/>
      <point x="176" y="510"/>
      <point x="165" y="533" type="curve"/>
      <point x="100" y="533"/>
      <point x="132" y="490"/>
      <point x="67" y="490" type="curve"/>
      <point x="78" y="467"/>
      <point x="355" y="23"/>
      <point x="366" y="0" type="curve"/>
      <point x="435" y="0"/>
      <point x="399" y="35"/>
    </contour>
    <contour>
      <point x="378" y="533" type="curve"/>
      <point x="366" y="510"/>
      <point x="67" y="68"/>
      <point x="56" y="44" type="curve"/>
      <point x="117" y="44"/>
      <point x="89" y="0"/>
      <point x="150" y="0" type="curve"/>
      <point x="161" y="23"/>
      <point x="467" y="476"/>
      <point x="478" y="499" type="curve"/>
      <point x="411" y="499"/>
      <point x="444" y="533"/>
    </contour>
  </outline>
</glyph>
<glyph name="braceleft" format="1">
  <advance width="229"/>
  <unicode hex="007B"/>
  <outline>
    <contour>
      <point x="186" y="-13" type="curve"/>
      <point x="155" y="-13"/>
      <point x="166" y="25"/>
      <point x="166" y="61" type="curve"/>
      <point x="166" y="113"/>
      <point x="166" y="165"/>
      <point x="166" y="217" type="curve"/>
      <point x="166" y="315"/>
      <point x="123" y="392"/>
      <point x="34" y="392" type="curve"/>
      <point x="34" y="289"/>
      <point x="34" y="392"/>
      <point x="34" y="289" type="curve"/>
      <point x="58" y="289"/>
      <point x="53" y="257"/>
      <point x="53" y="227" type="curve"/>
      <point x="53" y="173"/>
      <point x="53" y="119"/>
      <point x="53" y="66" type="curve"/>
      <point x="53" y="-35"/>
      <point x="94" y="-110"/>
      <point x="186" y="-110" type="curve"/>
      <point x="186" y="-13"/>
      <point x="186" y="-110"/>
    </contour>
    <contour>
      <point x="186" y="791" type="curve"/>
      <point x="94" y="791"/>
      <point x="53" y="718"/>
      <point x="53" y="619" type="curve"/>
      <point x="53" y="563"/>
      <point x="53" y="507"/>
      <point x="53" y="452" type="curve"/>
      <point x="53" y="422"/>
      <point x="57" y="392"/>
      <point x="34" y="392" type="curve"/>
      <point x="34" y="289"/>
      <point x="34" y="392"/>
      <point x="34" y="289" type="curve"/>
      <point x="124" y="289"/>
      <point x="166" y="366"/>
      <point x="166" y="467" type="curve"/>
      <point x="166" y="517"/>
      <point x="166" y="568"/>
      <point x="166" y="619" type="curve"/>
      <point x="166" y="655"/>
      <point x="154" y="693"/>
      <point x="186" y="693" type="curve"/>
      <point x="186" y="791"/>
      <point x="186" y="693"/>
    </contour>
  </outline>
</glyph>
<glyph name="bar" format="1">
  <advance width="260"/>
  <unicode hex="007C"/>
  <outline>
    <contour>
      <point x="193" y="-300" type="curve"/>
      <point x="193" y="67"/>
      <point x="193" y="433"/>
      <point x="193" y="800" type="curve"/>
      <point x="67" y="800"/>
      <point x="193" y="800"/>
      <point x="67" y="800" type="curve"/>
      <point x="67" y="433"/>
      <point x="67" y="67"/>
      <point x="67" y="-300" type="curve"/>
      <point x="193" y="-300"/>
      <point x="67" y="-300"/>
    </contour>
  </outline>
</glyph>
<glyph name="braceright" format="1">
  <advance width="230"/>
  <unicode hex="007D"/>
  <outline>
    <contour>
      <point x="44" y="-110" type="curve"/>
      <point x="136" y="-110"/>
      <point x="178" y="-35"/>
      <point x="178" y="66" type="curve"/>
      <point x="178" y="119"/>
      <point x="178" y="173"/>
      <point x="178" y="227" type="curve"/>
      <point x="178" y="257"/>
      <point x="171" y="289"/>
      <point x="196" y="289" type="curve"/>
      <point x="196" y="392"/>
      <point x="196" y="289"/>
      <point x="196" y="392" type="curve"/>
      <point x="106" y="392"/>
      <point x="64" y="315"/>
      <point x="64" y="217" type="curve"/>
      <point x="64" y="165"/>
      <point x="64" y="113"/>
      <point x="64" y="61" type="curve"/>
      <point x="64" y="25"/>
      <point x="74" y="-13"/>
      <point x="44" y="-13" type="curve"/>
      <point x="44" y="-110"/>
      <point x="44" y="-13"/>
    </contour>
    <contour>
      <point x="44" y="693" type="curve"/>
      <point x="75" y="693"/>
      <point x="64" y="655"/>
      <point x="64" y="619" type="curve"/>
      <point x="64" y="568"/>
      <point x="64" y="517"/>
      <point x="64" y="467" type="curve"/>
      <point x="64" y="366"/>
      <point x="105" y="289"/>
      <point x="196" y="289" type="curve"/>
      <point x="196" y="392"/>
      <point x="196" y="289"/>
      <point x="196" y="392" type="curve"/>
      <point x="172" y="392"/>
      <point x="178" y="422"/>
      <point x="178" y="452" type="curve"/>
      <point x="178" y="507"/>
      <point x="178" y="563"/>
      <point x="178" y="619" type="curve"/>
      <point x="178" y="718"/>
      <point x="136" y="791"/>
      <point x="44" y="791" type="curve"/>
      <point x="44" y="693"/>
      <point x="44" y="791"/>
    </contour>
  </outline>
</glyph>
<glyph name="asciitilde" format="1">
  <advance width="540"/>
  <unicode hex="007E"/>
  <outline>
    <contour>
      <point x="386" y="375" type="curve"/>
      <point x="377" y="339"/>
      <point x="364" y="302"/>
      <point x="346" y="302" type="curve"/>
      <point x="330" y="302"/>
      <point x="323" y="310"/>
      <point x="314" y="323" type="curve"/>
      <point x="279" y="364"/>
      <point x="253" y="387"/>
      <point x="199" y="387" type="curve"/>
      <point x="111" y="387"/>
      <point x="75" y="329"/>
      <point x="57" y="239" type="curve"/>
      <point x="99" y="226"/>
      <point x="118" y="219"/>
      <point x="160" y="206" type="curve"/>
      <point x="166" y="244"/>
      <point x="177" y="280"/>
      <point x="198" y="280" type="curve"/>
      <point x="215" y="280"/>
      <point x="223" y="272"/>
      <point x="233" y="259" type="curve"/>
      <point x="269" y="217"/>
      <point x="296" y="197"/>
      <point x="349" y="196" type="curve"/>
      <point x="435" y="196"/>
      <point x="463" y="258"/>
      <point x="485" y="346" type="curve"/>
      <point x="445" y="358"/>
      <point x="426" y="363"/>
    </contour>
  </outline>
</glyph>
<glyph name="exclamdown" format="1">
  <advance width="249"/>
  <unicode hex="00A1"/>
  <outline>
    <contour>
      <point x="62" y="300" type="line"/>
      <point x="52" y="-193" type="line"/>
      <point x="198" y="-194" type="line"/>
      <point x="192" y="299" type="line"/>
    </contour>
    <contour>
      <point x="65" y="473" type="curve"/>
      <point x="64" y="431"/>
      <point x="91" y="410"/>
      <point x="129" y="409" type="curve"/>
      <point x="166" y="409"/>
      <point x="192" y="431"/>
      <point x="192" y="473" type="curve"/>
      <point x="64" y="473"/>
      <point x="192" y="473"/>
      <point x="65" y="473" type="curve"/>
      <point x="65" y="517"/>
      <point x="91" y="537"/>
      <point x="129" y="535" type="curve"/>
      <point x="168" y="535"/>
      <point x="192" y="515"/>
      <point x="192" y="473" type="curve"/>
      <point x="64" y="473"/>
      <point x="192" y="473"/>
    </contour>
  </outline>
</glyph>
<glyph name="sterling" format="1">
  <advance width="381"/>
  <unicode hex="00A3"/>
  <outline>
    <contour>
      <point x="318" y="98" type="curve"/>
      <point x="229" y="98"/>
      <point x="132" y="98"/>
      <point x="44" y="98" type="curve"/>
      <point x="44" y="0"/>
      <point x="44" y="98"/>
      <point x="44" y="0" type="curve"/>
      <point x="132" y="0"/>
      <point x="229" y="0"/>
      <point x="318" y="0" type="curve"/>
      <point x="318" y="98"/>
      <point x="318" y="0"/>
    </contour>
    <contour>
      <point x="279" y="424" type="curve"/>
      <point x="208" y="424"/>
      <point x="127" y="424"/>
      <point x="57" y="424" type="curve"/>
      <point x="57" y="327"/>
      <point x="57" y="424"/>
      <point x="57" y="327" type="curve"/>
      <point x="127" y="327"/>
      <point x="208" y="327"/>
      <point x="279" y="327" type="curve"/>
      <point x="279" y="424"/>
      <point x="279" y="327"/>
    </contour>
    <contour>
      <point x="345" y="662" type="curve"/>
      <point x="310" y="707"/>
      <point x="277" y="721"/>
      <point x="231" y="721" type="curve"/>
      <point x="79" y="721"/>
      <point x="62" y="557"/>
      <point x="91" y="364" type="curve"/>
      <point x="111" y="229"/>
      <point x="119" y="98"/>
      <point x="44" y="98" type="curve"/>
      <point x="44" y="0"/>
      <point x="44" y="98"/>
      <point x="44" y="0" type="curve"/>
      <point x="212" y="0"/>
      <point x="229" y="178"/>
      <point x="199" y="385" type="curve"/>
      <point x="182" y="507"/>
      <point x="165" y="627"/>
      <point x="224" y="627" type="curve"/>
      <point x="250" y="627"/>
      <point x="263" y="609"/>
      <point x="280" y="591" type="curve"/>
      <point x="345" y="662"/>
      <point x="280" y="591"/>
    </contour>
  </outline>
</glyph>
<glyph name="currency" format="1">
  <advance width="567"/>
  <unicode hex="00A4"/>
  <outline>
    <contour>
      <point x="241" y="316" type="curve"/>
      <point x="241" y="361"/>
      <point x="242" y="409"/>
      <point x="281" y="409" type="curve"/>
      <point x="321" y="409"/>
      <point x="323" y="366"/>
      <point x="323" y="317" type="curve"/>
      <point x="323" y="270"/>
      <point x="321" y="218"/>
      <point x="282" y="218" type="curve"/>
      <point x="241" y="218"/>
      <point x="241" y="266"/>
      <point x="241" y="316" type="curve"/>
      <point x="116" y="316"/>
      <point x="250" y="316"/>
      <point x="124" y="316" type="curve"/>
      <point x="124" y="203"/>
      <point x="179" y="120"/>
      <point x="284" y="120" type="curve"/>
      <point x="390" y="120"/>
      <point x="442" y="206"/>
      <point x="442" y="319" type="curve"/>
      <point x="442" y="426"/>
      <point x="392" y="506"/>
      <point x="291" y="506" type="curve"/>
      <point x="184" y="506"/>
      <point x="124" y="426"/>
      <point x="124" y="316" type="curve"/>
      <point x="250" y="316"/>
      <point x="116" y="316"/>
    </contour>
    <contour>
      <point x="357" y="356" type="line"/>
      <point x="513" y="499" type="line"/>
      <point x="426" y="587" type="line"/>
      <point x="283" y="430" type="line"/>
    </contour>
    <contour>
      <point x="289" y="205" type="line"/>
      <point x="433" y="49" type="line"/>
      <point x="520" y="136" type="line"/>
      <point x="364" y="279" type="line"/>
    </contour>
    <contour>
      <point x="204" y="278" type="line"/>
      <point x="49" y="134" type="line"/>
      <point x="135" y="47" type="line"/>
      <point x="279" y="203" type="line"/>
    </contour>
    <contour>
      <point x="288" y="431" type="line"/>
      <point x="145" y="587" type="line"/>
      <point x="57" y="500" type="line"/>
      <point x="213" y="357" type="line"/>
    </contour>
  </outline>
</glyph>
<glyph name="yen" format="1">
  <advance width="582"/>
  <unicode hex="00A5"/>
  <outline>
    <contour>
      <point x="429" y="409" type="curve"/>
      <point x="382" y="409"/>
      <point x="336" y="409"/>
      <point x="291" y="409" type="curve"/>
      <point x="291" y="301"/>
      <point x="291" y="409"/>
      <point x="291" y="301" type="curve"/>
      <point x="336" y="301"/>
      <point x="382" y="301"/>
      <point x="429" y="301" type="curve"/>
      <point x="429" y="409"/>
      <point x="429" y="301"/>
    </contour>
    <contour>
      <point x="271" y="409" type="curve"/>
      <point x="225" y="409"/>
      <point x="179" y="409"/>
      <point x="135" y="409" type="curve"/>
      <point x="135" y="301"/>
      <point x="135" y="409"/>
      <point x="135" y="301" type="curve"/>
      <point x="179" y="301"/>
      <point x="225" y="301"/>
      <point x="271" y="301" type="curve"/>
      <point x="271" y="409"/>
      <point x="271" y="301"/>
    </contour>
    <contour>
      <point x="429" y="272" type="curve"/>
      <point x="330" y="272"/>
      <point x="232" y="272"/>
      <point x="135" y="272" type="curve"/>
      <point x="135" y="165"/>
      <point x="135" y="272"/>
      <point x="135" y="165" type="curve"/>
      <point x="232" y="165"/>
      <point x="330" y="165"/>
      <point x="429" y="165" type="curve"/>
      <point x="429" y="272"/>
      <point x="429" y="165"/>
    </contour>
    <contour>
      <point x="283" y="98" type="curve"/>
      <point x="153" y="98"/>
      <point x="284" y="98"/>
      <point x="154" y="98" type="curve"/>
      <point x="154" y="0"/>
      <point x="154" y="98"/>
      <point x="154" y="0" type="curve"/>
      <point x="196" y="0"/>
      <point x="239" y="0"/>
      <point x="283" y="0" type="curve"/>
      <point x="283" y="98"/>
      <point x="283" y="0"/>
    </contour>
    <contour>
      <point x="283" y="0" type="curve"/>
      <point x="326" y="0"/>
      <point x="368" y="0"/>
      <point x="411" y="0" type="curve"/>
      <point x="411" y="98"/>
      <point x="411" y="0"/>
      <point x="411" y="98" type="curve"/>
      <point x="281" y="98"/>
      <point x="412" y="98"/>
      <point x="283" y="98" type="curve"/>
      <point x="283" y="0"/>
      <point x="283" y="98"/>
    </contour>
    <contour>
      <point x="426" y="722" type="curve"/>
      <point x="387" y="722"/>
      <point x="347" y="722"/>
      <point x="307" y="722" type="curve"/>
      <point x="307" y="624"/>
      <point x="307" y="722"/>
      <point x="307" y="624" type="curve"/>
      <point x="428" y="624"/>
      <point x="306" y="624"/>
      <point x="426" y="624" type="curve"/>
      <point x="426" y="722"/>
      <point x="426" y="624"/>
    </contour>
    <contour>
      <point x="128" y="722" type="curve"/>
      <point x="96" y="722"/>
      <point x="66" y="722"/>
      <point x="34" y="722" type="curve"/>
      <point x="33" y="624"/>
      <point x="34" y="722"/>
      <point x="33" y="624" type="curve"/>
      <point x="129" y="624"/>
      <point x="32" y="624"/>
      <point x="128" y="624" type="curve"/>
      <point x="128" y="722"/>
      <point x="128" y="624"/>
    </contour>
    <contour>
      <point x="148" y="624" type="curve"/>
      <point x="268" y="624"/>
      <point x="146" y="624"/>
      <point x="267" y="624" type="curve"/>
      <point x="267" y="722"/>
      <point x="267" y="624"/>
      <point x="267" y="722" type="curve"/>
      <point x="227" y="722"/>
      <point x="187" y="722"/>
      <point x="148" y="722" type="curve"/>
      <point x="148" y="624"/>
      <point x="148" y="722"/>
    </contour>
    <contour>
      <point x="446" y="624" type="curve"/>
      <point x="548" y="624"/>
      <point x="445" y="624"/>
      <point x="547" y="624" type="curve"/>
      <point x="547" y="722"/>
      <point x="547" y="624"/>
      <point x="547" y="722" type="curve"/>
      <point x="514" y="722"/>
      <point x="481" y="722"/>
      <point x="446" y="722" type="curve"/>
      <point x="446" y="624"/>
      <point x="446" y="722"/>
    </contour>
    <contour>
      <point x="59" y="727" type="curve"/>
      <point x="113" y="597"/>
      <point x="162" y="471"/>
      <point x="213" y="337" type="curve"/>
      <point x="341" y="337"/>
      <point x="192" y="337"/>
      <point x="318" y="337" type="curve"/>
      <point x="276" y="470"/>
      <point x="236" y="591"/>
      <point x="191" y="722" type="curve"/>
      <point x="59" y="722"/>
      <point x="191" y="727"/>
    </contour>
    <contour>
      <point x="383" y="722" type="curve"/>
      <point x="331" y="589"/>
      <point x="289" y="469"/>
      <point x="237" y="337" type="curve"/>
      <point x="363" y="337"/>
      <point x="224" y="337"/>
      <point x="351" y="337" type="curve"/>
      <point x="406" y="469"/>
      <point x="458" y="597"/>
      <point x="514" y="727" type="curve"/>
      <point x="383" y="727"/>
      <point x="514" y="722"/>
    </contour>
    <contour>
      <point x="350" y="0" type="curve"/>
      <point x="350" y="115"/>
      <point x="350" y="222"/>
      <point x="350" y="338" type="curve"/>
      <point x="214" y="338"/>
      <point x="350" y="338"/>
      <point x="214" y="338" type="curve"/>
      <point x="214" y="222"/>
      <point x="214" y="115"/>
      <point x="214" y="0" type="curve"/>
      <point x="350" y="0"/>
      <point x="214" y="0"/>
    </contour>
  </outline>
</glyph>
<glyph name="section" format="1">
  <advance width="436"/>
  <unicode hex="00A7"/>
  <outline>
    <contour>
      <point x="342" y="699" type="curve"/>
      <point x="301" y="733"/>
      <point x="270" y="749"/>
      <point x="223" y="749" type="curve"/>
      <point x="128" y="749"/>
      <point x="72" y="688"/>
      <point x="72" y="598" type="curve"/>
      <point x="72" y="520"/>
      <point x="108" y="467"/>
      <point x="180" y="435" type="curve"/>
      <point x="221" y="414"/>
      <point x="264" y="402"/>
      <point x="264" y="362" type="curve"/>
      <point x="264" y="318"/>
      <point x="246" y="285"/>
      <point x="204" y="275" type="curve"/>
      <point x="279" y="195"/>
      <point x="204" y="275"/>
      <point x="279" y="195" type="curve"/>
      <point x="355" y="219"/>
      <point x="390" y="280"/>
      <point x="390" y="361" type="curve"/>
      <point x="389" y="448"/>
      <point x="325" y="492"/>
      <point x="242" y="528" type="curve"/>
      <point x="212" y="541"/>
      <point x="188" y="564"/>
      <point x="188" y="598" type="curve"/>
      <point x="188" y="624"/>
      <point x="198" y="651"/>
      <point x="225" y="651" type="curve"/>
      <point x="254" y="651"/>
      <point x="264" y="638"/>
      <point x="281" y="622" type="curve"/>
      <point x="342" y="699"/>
      <point x="281" y="622"/>
    </contour>
    <contour>
      <point x="159" y="526" type="curve"/>
      <point x="86" y="496"/>
      <point x="48" y="444"/>
      <point x="48" y="366" type="curve"/>
      <point x="48" y="281"/>
      <point x="99" y="231"/>
      <point x="179" y="197" type="curve"/>
      <point x="214" y="181"/>
      <point x="250" y="170"/>
      <point x="250" y="130" type="curve"/>
      <point x="250" y="100"/>
      <point x="240" y="71"/>
      <point x="217" y="71" type="curve"/>
      <point x="185" y="71"/>
      <point x="171" y="88"/>
      <point x="151" y="110" type="curve"/>
      <point x="79" y="43"/>
      <point x="151" y="110"/>
      <point x="79" y="43" type="curve"/>
      <point x="120" y="-8"/>
      <point x="159" y="-27"/>
      <point x="216" y="-27" type="curve"/>
      <point x="310" y="-27"/>
      <point x="370" y="33"/>
      <point x="370" y="129" type="curve"/>
      <point x="369" y="207"/>
      <point x="331" y="259"/>
      <point x="258" y="290" type="curve"/>
      <point x="215" y="310"/>
      <point x="174" y="323"/>
      <point x="174" y="364" type="curve"/>
      <point x="174" y="405"/>
      <point x="186" y="437"/>
      <point x="221" y="452" type="curve"/>
      <point x="159" y="526"/>
      <point x="221" y="452"/>
    </contour>
    <contour>
      <point x="178" y="43" type="curve"/>
      <point x="178" y="163"/>
      <point x="178" y="36"/>
      <point x="178" y="156" type="curve"/>
      <point x="79" y="156"/>
      <point x="178" y="156"/>
      <point x="79" y="156" type="curve"/>
      <point x="79" y="36"/>
      <point x="79" y="163"/>
      <point x="79" y="43" type="curve"/>
      <point x="178" y="43"/>
      <point x="79" y="43"/>
    </contour>
    <contour>
      <point x="342" y="586" type="curve"/>
      <point x="342" y="706"/>
      <point x="342" y="579"/>
      <point x="342" y="699" type="curve"/>
      <point x="243" y="699"/>
      <point x="342" y="699"/>
      <point x="243" y="699" type="curve"/>
      <point x="243" y="579"/>
      <point x="243" y="706"/>
      <point x="243" y="586" type="curve"/>
      <point x="342" y="586"/>
      <point x="243" y="586"/>
    </contour>
  </outline>
</glyph>
<glyph name="dieresis" format="1">
  <advance width="359"/>
  <unicode hex="00A8"/>
  <outline>
    <contour>
      <point x="177" y="626" type="move" name="_top"/>
    </contour>
    <contour>
      <point x="153" y="683" type="curve"/>
      <point x="153" y="726"/>
      <point x="126" y="748"/>
      <point x="88" y="748" type="curve"/>
      <point x="50" y="748"/>
      <point x="25" y="724"/>
      <point x="25" y="683" type="curve"/>
      <point x="153" y="683"/>
      <point x="25" y="683"/>
      <point x="153" y="683" type="curve"/>
      <point x="153" y="640"/>
      <point x="128" y="620"/>
      <point x="88" y="620" type="curve"/>
      <point x="50" y="620"/>
      <point x="25" y="642"/>
      <point x="25" y="683" type="curve"/>
      <point x="153" y="683"/>
      <point x="25" y="683"/>
    </contour>
    <contour>
      <point x="331" y="683" type="curve"/>
      <point x="331" y="726"/>
      <point x="304" y="748"/>
      <point x="266" y="748" type="curve"/>
      <point x="228" y="748"/>
      <point x="203" y="724"/>
      <point x="203" y="683" type="curve"/>
      <point x="331" y="683"/>
      <point x="203" y="683"/>
      <point x="331" y="683" type="curve"/>
      <point x="331" y="640"/>
      <point x="305" y="620"/>
      <point x="266" y="620" type="curve"/>
      <point x="228" y="620"/>
      <point x="203" y="642"/>
      <point x="203" y="683" type="curve"/>
      <point x="331" y="683"/>
      <point x="203" y="683"/>
    </contour>
  </outline>
</glyph>
<glyph name="copyright" format="1">
  <advance width="599"/>
  <unicode hex="00A9"/>
  <outline>
    <contour>
      <point x="149" y="323" type="curve"/>
      <point x="149" y="451"/>
      <point x="192" y="566"/>
      <point x="303" y="566" type="curve"/>
      <point x="411" y="566"/>
      <point x="453" y="449"/>
      <point x="453" y="321" type="curve"/>
      <point x="453" y="199"/>
      <point x="414" y="83"/>
      <point x="309" y="83" type="curve"/>
      <point x="199" y="83"/>
      <point x="149" y="197"/>
      <point x="149" y="323" type="curve"/>
      <point x="48" y="323"/>
      <point x="152" y="323"/>
      <point x="50" y="323" type="curve"/>
      <point x="50" y="148"/>
      <point x="141" y="5"/>
      <point x="305" y="5" type="curve"/>
      <point x="465" y="5"/>
      <point x="549" y="150"/>
      <point x="549" y="325" type="curve"/>
      <point x="549" y="500"/>
      <point x="463" y="645"/>
      <point x="303" y="645" type="curve"/>
      <point x="140" y="645"/>
      <point x="50" y="500"/>
      <point x="50" y="323" type="curve"/>
      <point x="152" y="323"/>
      <point x="48" y="323"/>
    </contour>
    <contour>
      <point x="329" y="422" type="curve"/>
      <point x="329" y="411"/>
      <point x="329" y="385"/>
      <point x="329" y="369" type="curve"/>
      <point x="420" y="369"/>
      <point x="329" y="369"/>
      <point x="420" y="369" type="curve"/>
      <point x="420" y="399"/>
      <point x="420" y="439"/>
      <point x="420" y="461" type="curve"/>
      <point x="329" y="422"/>
      <point x="420" y="462"/>
    </contour>
    <contour>
      <point x="420" y="461" type="curve"/>
      <point x="391" y="498"/>
      <point x="354" y="511"/>
      <point x="309" y="511" type="curve"/>
      <point x="208" y="511"/>
      <point x="166" y="430"/>
      <point x="166" y="322" type="curve"/>
      <point x="166" y="218"/>
      <point x="202" y="139"/>
      <point x="297" y="139" type="curve"/>
      <point x="347" y="139"/>
      <point x="383" y="150"/>
      <point x="416" y="207" type="curve"/>
      <point x="351" y="250"/>
      <point x="416" y="207"/>
      <point x="351" y="250" type="curve"/>
      <point x="338" y="232"/>
      <point x="326" y="218"/>
      <point x="301" y="218" type="curve"/>
      <point x="257" y="218"/>
      <point x="258" y="271"/>
      <point x="258" y="326" type="curve"/>
      <point x="258" y="381"/>
      <point x="259" y="432"/>
      <point x="305" y="432" type="curve"/>
      <point x="315" y="432"/>
      <point x="323" y="430"/>
      <point x="329" y="422" type="curve"/>
      <point x="420" y="462"/>
      <point x="329" y="422"/>
    </contour>
  </outline>
</glyph>
<glyph name="ordfeminine" format="1">
  <advance width="354"/>
  <unicode hex="00AA"/>
  <outline>
    <contour>
      <point x="61" y="719" type="curve"/>
      <point x="61" y="655"/>
      <point x="61" y="715"/>
      <point x="61" y="652" type="curve"/>
      <point x="125" y="652"/>
      <point x="63" y="652"/>
      <point x="127" y="652" type="curve"/>
      <point x="127" y="715"/>
      <point x="127" y="655"/>
      <point x="127" y="719" type="curve"/>
      <point x="63" y="719"/>
      <point x="125" y="719"/>
    </contour>
    <contour>
      <point x="274" y="425" type="curve"/>
      <point x="274" y="505"/>
      <point x="274" y="584"/>
      <point x="274" y="664" type="curve"/>
      <point x="274" y="733"/>
      <point x="231" y="767"/>
      <point x="165" y="767" type="curve"/>
      <point x="117" y="767"/>
      <point x="85" y="746"/>
      <point x="61" y="719" type="curve"/>
      <point x="92" y="667"/>
      <point x="62" y="718"/>
      <point x="92" y="665" type="curve"/>
      <point x="106" y="683"/>
      <point x="124" y="701"/>
      <point x="153" y="701" type="curve"/>
      <point x="181" y="701"/>
      <point x="193" y="682"/>
      <point x="193" y="654" type="curve"/>
      <point x="193" y="576"/>
      <point x="193" y="502"/>
      <point x="193" y="425" type="curve"/>
      <point x="272" y="425"/>
      <point x="195" y="425"/>
    </contour>
    <contour>
      <point x="234" y="425" type="curve"/>
      <point x="258" y="425"/>
      <point x="282" y="425"/>
      <point x="306" y="425" type="curve"/>
      <point x="306" y="487"/>
      <point x="306" y="427"/>
      <point x="306" y="489" type="curve"/>
      <point x="237" y="489"/>
      <point x="303" y="489"/>
      <point x="234" y="489" type="curve"/>
      <point x="234" y="427"/>
      <point x="234" y="487"/>
    </contour>
    <contour>
      <point x="232" y="645" type="curve"/>
      <point x="199" y="640"/>
      <point x="180" y="638"/>
      <point x="149" y="632" type="curve"/>
      <point x="86" y="622"/>
      <point x="45" y="590"/>
      <point x="45" y="528" type="curve"/>
      <point x="45" y="464"/>
      <point x="76" y="422"/>
      <point x="138" y="422" type="curve"/>
      <point x="200" y="422"/>
      <point x="222" y="478"/>
      <point x="254" y="520" type="curve"/>
      <point x="213" y="554"/>
      <point x="254" y="521"/>
      <point x="212" y="555" type="curve"/>
      <point x="201" y="519"/>
      <point x="193" y="486"/>
      <point x="159" y="486" type="curve"/>
      <point x="132" y="486"/>
      <point x="124" y="504"/>
      <point x="124" y="533" type="curve"/>
      <point x="124" y="553"/>
      <point x="136" y="573"/>
      <point x="153" y="576" type="curve"/>
      <point x="186" y="582"/>
      <point x="200" y="584"/>
      <point x="234" y="591" type="curve"/>
      <point x="232" y="643"/>
      <point x="234" y="593"/>
    </contour>
  </outline>
</glyph>
<glyph name="guillemotleft" format="1">
  <advance width="416"/>
  <unicode hex="00AB"/>
  <outline>
    <contour>
      <point x="189" y="478" type="curve"/>
      <point x="157" y="448"/>
      <point x="78" y="380"/>
      <point x="44" y="350" type="curve"/>
      <point x="44" y="241"/>
      <point x="44" y="330"/>
      <point x="44" y="221" type="curve"/>
      <point x="78" y="252"/>
      <point x="157" y="331"/>
      <point x="189" y="361" type="curve"/>
      <point x="189" y="469"/>
      <point x="189" y="371"/>
    </contour>
    <contour>
      <point x="189" y="212" type="curve"/>
      <point x="157" y="243"/>
      <point x="78" y="319"/>
      <point x="44" y="350" type="curve"/>
      <point x="44" y="241"/>
      <point x="44" y="330"/>
      <point x="44" y="221" type="curve"/>
      <point x="78" y="191"/>
      <point x="157" y="125"/>
      <point x="189" y="96" type="curve"/>
      <point x="189" y="203"/>
      <point x="189" y="105"/>
    </contour>
    <contour>
      <point x="349" y="478" type="curve"/>
      <point x="316" y="448"/>
      <point x="238" y="380"/>
      <point x="205" y="350" type="curve"/>
      <point x="205" y="241"/>
      <point x="205" y="330"/>
      <point x="205" y="221" type="curve"/>
      <point x="238" y="252"/>
      <point x="316" y="331"/>
      <point x="349" y="361" type="curve"/>
      <point x="349" y="469"/>
      <point x="349" y="371"/>
    </contour>
    <contour>
      <point x="349" y="212" type="curve"/>
      <point x="316" y="243"/>
      <point x="238" y="319"/>
      <point x="205" y="350" type="curve"/>
      <point x="205" y="241"/>
      <point x="205" y="330"/>
      <point x="205" y="221" type="curve"/>
      <point x="238" y="191"/>
      <point x="316" y="125"/>
      <point x="349" y="96" type="curve"/>
      <point x="349" y="203"/>
      <point x="349" y="105"/>
    </contour>
  </outline>
</glyph>
<glyph name="logicalnot" format="1">
  <advance width="485"/>
  <unicode hex="00AC"/>
  <outline>
    <contour>
      <point x="70" y="261" type="curve"/>
      <point x="420" y="261" type="line"/>
      <point x="420" y="369"/>
      <point x="420" y="261"/>
      <point x="420" y="369" type="curve"/>
      <point x="70" y="369" type="line"/>
      <point x="70" y="261"/>
      <point x="70" y="369"/>
    </contour>
    <contour>
      <point x="420" y="140" type="curve"/>
      <point x="420" y="369" type="line"/>
      <point x="294" y="369"/>
      <point x="419" y="369"/>
      <point x="294" y="369" type="curve"/>
      <point x="294" y="140" type="line"/>
      <point x="419" y="140"/>
      <point x="294" y="140"/>
    </contour>
  </outline>
</glyph>
<glyph name="registered" format="1">
  <advance width="620"/>
  <unicode hex="00AE"/>
  <outline>
    <contour>
      <point x="133" y="322" type="curve"/>
      <point x="133" y="461"/>
      <point x="187" y="572"/>
      <point x="312" y="572" type="curve"/>
      <point x="437" y="572"/>
      <point x="488" y="460"/>
      <point x="488" y="320" type="curve"/>
      <point x="488" y="183"/>
      <point x="439" y="73"/>
      <point x="319" y="73" type="curve"/>
      <point x="192" y="73"/>
      <point x="133" y="182"/>
      <point x="133" y="322" type="curve"/>
      <point x="101" y="322"/>
      <point x="83" y="322"/>
      <point x="50" y="322" type="curve"/>
      <point x="50" y="138"/>
      <point x="141" y="3"/>
      <point x="314" y="3" type="curve"/>
      <point x="485" y="3"/>
      <point x="569" y="140"/>
      <point x="569" y="323" type="curve"/>
      <point x="569" y="506"/>
      <point x="483" y="643"/>
      <point x="312" y="643" type="curve"/>
      <point x="139" y="643"/>
      <point x="50" y="506"/>
      <point x="50" y="322" type="curve"/>
      <point x="83" y="322"/>
      <point x="101" y="322"/>
    </contour>
    <contour>
      <point x="369" y="142" type="curve"/>
      <point x="397" y="142"/>
      <point x="402" y="142"/>
      <point x="430" y="142" type="curve"/>
      <point x="430" y="220"/>
      <point x="430" y="142"/>
      <point x="430" y="220" type="curve"/>
      <point x="425" y="220"/>
      <point x="423" y="220"/>
      <point x="418" y="220" type="curve"/>
      <point x="384" y="256"/>
      <point x="360" y="246"/>
    </contour>
    <contour>
      <point x="311" y="507" type="curve"/>
      <point x="275" y="507"/>
      <point x="236" y="507"/>
      <point x="199" y="507" type="curve"/>
      <point x="199" y="426"/>
      <point x="199" y="507"/>
      <point x="199" y="426" type="curve"/>
      <point x="202" y="426"/>
      <point x="208" y="426"/>
      <point x="212" y="426" type="curve"/>
      <point x="311" y="507"/>
      <point x="212" y="426"/>
    </contour>
    <contour>
      <point x="311" y="220" type="curve"/>
      <point x="275" y="220"/>
      <point x="236" y="220"/>
      <point x="199" y="220" type="curve"/>
      <point x="199" y="142"/>
      <point x="199" y="220"/>
      <point x="199" y="142" type="curve"/>
      <point x="202" y="142"/>
      <point x="208" y="142"/>
      <point x="212" y="142" type="curve"/>
      <point x="311" y="220"/>
      <point x="212" y="142"/>
    </contour>
    <contour>
      <point x="212" y="142" type="curve"/>
      <point x="246" y="142"/>
      <point x="282" y="142"/>
      <point x="317" y="142" type="curve"/>
      <point x="317" y="220"/>
      <point x="317" y="142"/>
      <point x="317" y="220" type="curve"/>
      <point x="317" y="220"/>
      <point x="313" y="220"/>
      <point x="311" y="220" type="curve"/>
      <point x="212" y="142"/>
      <point x="311" y="220"/>
    </contour>
    <contour>
      <point x="288" y="320" type="curve"/>
      <point x="284" y="320"/>
      <point x="373" y="141"/>
      <point x="369" y="142" type="curve"/>
      <point x="425" y="164"/>
      <point x="422" y="173"/>
      <point x="418" y="220" type="curve"/>
      <point x="375" y="313" type="line"/>
      <point x="251" y="312"/>
      <point x="411" y="320"/>
    </contour>
    <contour>
      <point x="299" y="220" type="curve"/>
      <point x="299" y="315"/>
      <point x="299" y="412"/>
      <point x="299" y="507" type="curve"/>
      <point x="200" y="426"/>
      <point x="311" y="507"/>
      <point x="212" y="426" type="curve"/>
      <point x="212" y="332"/>
      <point x="212" y="237"/>
      <point x="212" y="142" type="curve"/>
      <point x="311" y="220"/>
      <point x="200" y="142"/>
    </contour>
    <contour>
      <point x="263" y="272" type="curve"/>
      <point x="275" y="272"/>
      <point x="287" y="272"/>
      <point x="298" y="272" type="curve"/>
      <point x="375" y="272"/>
      <point x="422" y="313"/>
      <point x="422" y="392" type="curve"/>
      <point x="422" y="460"/>
      <point x="383" y="507"/>
      <point x="317" y="507" type="curve"/>
      <point x="316" y="507"/>
      <point x="314" y="507"/>
      <point x="311" y="507" type="curve"/>
      <point x="212" y="426"/>
      <point x="311" y="507"/>
      <point x="212" y="426" type="curve"/>
      <point x="240" y="426"/>
      <point x="270" y="426"/>
      <point x="299" y="426" type="curve"/>
      <point x="322" y="426"/>
      <point x="336" y="412"/>
      <point x="336" y="388" type="curve"/>
      <point x="336" y="369"/>
      <point x="330" y="352"/>
      <point x="313" y="352" type="curve"/>
      <point x="296" y="352"/>
      <point x="279" y="352"/>
      <point x="263" y="352" type="curve"/>
      <point x="263" y="272"/>
      <point x="263" y="352"/>
    </contour>
  </outline>
</glyph>
<glyph name="macron" format="1">
  <advance width="224"/>
  <unicode hex="00AF"/>
  <outline>
    <contour>
      <point x="104" y="590" type="move" name="_top"/>
    </contour>
    <contour>
      <point x="178" y="688" type="curve"/>
      <point x="129" y="688"/>
      <point x="79" y="688"/>
      <point x="30" y="688" type="curve"/>
      <point x="30" y="590"/>
      <point x="30" y="688"/>
      <point x="30" y="590" type="curve"/>
      <point x="79" y="590"/>
      <point x="129" y="590"/>
      <point x="178" y="590" type="curve"/>
      <point x="178" y="688"/>
      <point x="178" y="590"/>
    </contour>
  </outline>
</glyph>
<glyph name="degree" format="1">
  <advance width="392"/>
  <unicode hex="00B0"/>
  <outline>
    <contour>
      <point x="341" y="618" type="curve"/>
      <point x="341" y="716"/>
      <point x="289" y="784"/>
      <point x="193" y="784" type="curve"/>
      <point x="100" y="784"/>
      <point x="51" y="716"/>
      <point x="51" y="618" type="curve"/>
      <point x="79" y="618"/>
      <point x="123" y="618"/>
      <point x="151" y="618" type="curve"/>
      <point x="151" y="660"/>
      <point x="158" y="696"/>
      <point x="194" y="696" type="curve"/>
      <point x="229" y="696"/>
      <point x="237" y="660"/>
      <point x="237" y="618" type="curve"/>
      <point x="237" y="576"/>
      <point x="232" y="539"/>
      <point x="196" y="539" type="curve"/>
      <point x="159" y="539"/>
      <point x="151" y="576"/>
      <point x="151" y="618" type="curve"/>
      <point x="123" y="618"/>
      <point x="79" y="618"/>
      <point x="51" y="618" type="curve"/>
      <point x="51" y="519"/>
      <point x="102" y="450"/>
      <point x="197" y="450" type="curve"/>
      <point x="292" y="450"/>
      <point x="341" y="518"/>
    </contour>
  </outline>
</glyph>
<glyph name="plusminus" format="1">
  <advance width="605"/>
  <unicode hex="00B1"/>
  <outline>
    <contour>
      <point x="55" y="57" type="line"/>
      <point x="551" y="57" type="line"/>
      <point x="551" y="164" type="line"/>
      <point x="55" y="164" type="line"/>
    </contour>
    <contour>
      <point x="55" y="261" type="curve"/>
      <point x="551" y="261" type="line"/>
      <point x="551" y="369"/>
      <point x="551" y="261"/>
      <point x="551" y="369" type="curve"/>
      <point x="55" y="369" type="line"/>
      <point x="55" y="261"/>
      <point x="55" y="369"/>
    </contour>
    <contour>
      <point x="361" y="58" type="curve"/>
      <point x="361" y="578" type="line"/>
      <point x="236" y="578"/>
      <point x="370" y="578"/>
      <point x="244" y="578" type="curve"/>
      <point x="244" y="58" type="line"/>
      <point x="370" y="58"/>
      <point x="236" y="58"/>
    </contour>
  </outline>
</glyph>
<glyph name="twosuperior" format="1">
  <advance width="370"/>
  <unicode hex="00B2"/>
  <outline>
    <contour>
      <point x="201" y="830" type="move" name="_top"/>
    </contour>
    <contour>
      <point x="180" y="403" type="move" name="_bottom"/>
    </contour>
    <contour>
      <point x="322" y="404" type="curve"/>
      <point x="322" y="448"/>
      <point x="322" y="488"/>
      <point x="322" y="534" type="curve"/>
      <point x="230" y="534"/>
      <point x="342" y="534"/>
      <point x="250" y="534" type="curve"/>
      <point x="250" y="514"/>
      <point x="250" y="498"/>
      <point x="250" y="479" type="curve"/>
      <point x="340" y="402"/>
      <point x="231" y="481"/>
    </contour>
    <contour>
      <point x="58" y="404" type="curve"/>
      <point x="135" y="404"/>
      <point x="247" y="404"/>
      <point x="322" y="404" type="curve"/>
      <point x="231" y="481"/>
      <point x="340" y="402"/>
      <point x="250" y="479" type="curve"/>
      <point x="193" y="479"/>
      <point x="115" y="479"/>
      <point x="58" y="479" type="curve"/>
      <point x="58" y="404"/>
      <point x="58" y="479"/>
    </contour>
    <contour>
      <point x="148" y="698" type="curve"/>
      <point x="152" y="726"/>
      <point x="159" y="753"/>
      <point x="187" y="753" type="curve"/>
      <point x="214" y="753"/>
      <point x="221" y="726"/>
      <point x="221" y="693" type="curve"/>
      <point x="221" y="658"/>
      <point x="202" y="637"/>
      <point x="180" y="610" type="curve"/>
      <point x="139" y="567"/>
      <point x="99" y="523"/>
      <point x="58" y="479" type="curve"/>
      <point x="60" y="403"/>
      <point x="57" y="479"/>
      <point x="59" y="403" type="curve"/>
      <point x="113" y="450"/>
      <point x="197" y="499"/>
      <point x="244" y="549" type="curve"/>
      <point x="283" y="596"/>
      <point x="312" y="634"/>
      <point x="312" y="697" type="curve"/>
      <point x="312" y="775"/>
      <point x="266" y="829"/>
      <point x="190" y="829" type="curve"/>
      <point x="132" y="829"/>
      <point x="90" y="803"/>
      <point x="77" y="719" type="curve"/>
      <point x="148" y="698"/>
      <point x="77" y="719"/>
    </contour>
  </outline>
</glyph>
<glyph name="threesuperior" format="1">
  <advance width="336"/>
  <unicode hex="00B3"/>
  <outline>
    <contour>
      <point x="163" y="825" type="move" name="_top"/>
    </contour>
    <contour>
      <point x="164" y="396" type="move" name="_bottom"/>
    </contour>
    <contour>
      <point x="109" y="721" type="curve"/>
      <point x="119" y="733"/>
      <point x="127" y="748"/>
      <point x="146" y="748" type="curve"/>
      <point x="168" y="748"/>
      <point x="179" y="727"/>
      <point x="179" y="698" type="curve"/>
      <point x="179" y="666"/>
      <point x="153" y="649"/>
      <point x="119" y="646" type="curve"/>
      <point x="119" y="581"/>
      <point x="119" y="646"/>
      <point x="119" y="581" type="curve"/>
      <point x="208" y="584"/>
      <point x="275" y="625"/>
      <point x="275" y="706" type="curve"/>
      <point x="275" y="780"/>
      <point x="229" y="826"/>
      <point x="155" y="826" type="curve"/>
      <point x="111" y="826"/>
      <point x="72" y="803"/>
      <point x="49" y="768" type="curve"/>
      <point x="109" y="721"/>
      <point x="49" y="768"/>
    </contour>
    <contour>
      <point x="48" y="431" type="curve"/>
      <point x="76" y="408"/>
      <point x="104" y="395"/>
      <point x="139" y="395" type="curve"/>
      <point x="229" y="395"/>
      <point x="285" y="440"/>
      <point x="286" y="525" type="curve"/>
      <point x="286" y="605"/>
      <point x="210" y="633"/>
      <point x="119" y="637" type="curve"/>
      <point x="119" y="581"/>
      <point x="119" y="637"/>
      <point x="119" y="581" type="curve"/>
      <point x="160" y="577"/>
      <point x="188" y="556"/>
      <point x="188" y="520" type="curve"/>
      <point x="188" y="492"/>
      <point x="174" y="471"/>
      <point x="147" y="472" type="curve"/>
      <point x="130" y="472"/>
      <point x="111" y="476"/>
      <point x="99" y="488" type="curve"/>
      <point x="48" y="431"/>
      <point x="99" y="488"/>
    </contour>
  </outline>
</glyph>
<glyph name="acute" format="1">
  <advance width="406"/>
  <unicode hex="00B4"/>
  <outline>
    <contour>
      <point x="104" y="593" type="move" name="_top"/>
    </contour>
    <contour>
      <point x="161" y="592" type="line"/>
      <point x="267" y="758" type="line"/>
      <point x="115" y="758" type="line"/>
      <point x="44" y="592" type="line"/>
    </contour>
  </outline>
</glyph>
<glyph name="periodcentered" format="1">
  <advance width="235"/>
  <unicode hex="00B7"/>
  <outline>
    <contour>
      <point x="181" y="440" type="curve"/>
      <point x="181" y="482"/>
      <point x="154" y="504"/>
      <point x="116" y="504" type="curve"/>
      <point x="78" y="504"/>
      <point x="53" y="481"/>
      <point x="53" y="440" type="curve"/>
      <point x="181" y="440"/>
      <point x="52" y="440"/>
      <point x="181" y="440" type="curve"/>
      <point x="181" y="397"/>
      <point x="156" y="377"/>
      <point x="116" y="377" type="curve"/>
      <point x="78" y="377"/>
      <point x="53" y="398"/>
      <point x="53" y="440" type="curve"/>
      <point x="181" y="440"/>
      <point x="52" y="440"/>
    </contour>
  </outline>
</glyph>
<glyph name="onesuperior" format="1">
  <advance width="313"/>
  <unicode hex="00B9"/>
  <outline>
    <contour>
      <point x="158" y="819" type="move" name="_top"/>
    </contour>
    <contour>
      <point x="168" y="404" type="move" name="_bottom"/>
    </contour>
    <contour>
      <point x="121" y="404" type="curve"/>
      <point x="163" y="404"/>
      <point x="221" y="404"/>
      <point x="262" y="404" type="curve"/>
      <point x="262" y="479"/>
      <point x="262" y="404"/>
      <point x="262" y="481" type="curve"/>
      <point x="252" y="481"/>
      <point x="227" y="481"/>
      <point x="217" y="481" type="curve"/>
      <point x="121" y="404"/>
      <point x="217" y="479"/>
    </contour>
    <contour>
      <point x="217" y="481" type="curve"/>
      <point x="176" y="481"/>
      <point x="118" y="481"/>
      <point x="75" y="481" type="curve"/>
      <point x="75" y="404"/>
      <point x="75" y="479"/>
      <point x="75" y="404" type="curve"/>
      <point x="86" y="404"/>
      <point x="111" y="404"/>
      <point x="121" y="404" type="curve"/>
      <point x="217" y="479"/>
      <point x="121" y="404"/>
    </contour>
    <contour>
      <point x="96" y="677" type="line"/>
      <point x="217" y="818" type="line"/>
      <point x="121" y="819" type="line"/>
      <point x="39" y="734" type="line"/>
    </contour>
    <contour>
      <point x="217" y="481" type="curve"/>
      <point x="217" y="819" type="line"/>
      <point x="121" y="819" type="line"/>
      <point x="121" y="404" type="line"/>
      <point x="217" y="479"/>
      <point x="121" y="404"/>
    </contour>
  </outline>
</glyph>
<glyph name="ordmasculine" format="1">
  <advance width="341"/>
  <unicode hex="00BA"/>
  <outline>
    <contour>
      <point x="116" y="593" type="curve"/>
      <point x="116" y="645"/>
      <point x="121" y="698"/>
      <point x="168" y="698" type="curve"/>
      <point x="212" y="698"/>
      <point x="219" y="647"/>
      <point x="219" y="593" type="curve"/>
      <point x="219" y="537"/>
      <point x="216" y="487"/>
      <point x="173" y="487" type="curve"/>
      <point x="120" y="487"/>
      <point x="116" y="537"/>
      <point x="116" y="593" type="curve"/>
      <point x="126" y="593"/>
      <point x="31" y="593"/>
      <point x="42" y="593" type="curve"/>
      <point x="42" y="494"/>
      <point x="80" y="421"/>
      <point x="170" y="421" type="curve"/>
      <point x="259" y="421"/>
      <point x="299" y="493"/>
      <point x="299" y="593" type="curve"/>
      <point x="299" y="692"/>
      <point x="261" y="764"/>
      <point x="171" y="764" type="curve"/>
      <point x="80" y="764"/>
      <point x="42" y="692"/>
      <point x="42" y="593" type="curve"/>
      <point x="31" y="593"/>
      <point x="126" y="593"/>
    </contour>
  </outline>
</glyph>
<glyph name="guillemotright" format="1">
  <advance width="416"/>
  <unicode hex="00BB"/>
  <outline>
    <contour>
      <point x="227" y="478" type="curve"/>
      <point x="259" y="448"/>
      <point x="337" y="380"/>
      <point x="371" y="350" type="curve"/>
      <point x="371" y="241"/>
      <point x="371" y="330"/>
      <point x="371" y="221" type="curve"/>
      <point x="337" y="252"/>
      <point x="259" y="331"/>
      <point x="227" y="361" type="curve"/>
      <point x="227" y="469"/>
      <point x="227" y="371"/>
    </contour>
    <contour>
      <point x="227" y="212" type="curve"/>
      <point x="259" y="243"/>
      <point x="337" y="319"/>
      <point x="371" y="350" type="curve"/>
      <point x="371" y="241"/>
      <point x="371" y="330"/>
      <point x="371" y="221" type="curve"/>
      <point x="337" y="191"/>
      <point x="259" y="125"/>
      <point x="227" y="96" type="curve"/>
      <point x="227" y="203"/>
      <point x="227" y="105"/>
    </contour>
    <contour>
      <point x="67" y="478" type="curve"/>
      <point x="99" y="448"/>
      <point x="178" y="380"/>
      <point x="212" y="350" type="curve"/>
      <point x="212" y="241"/>
      <point x="212" y="330"/>
      <point x="212" y="221" type="curve"/>
      <point x="178" y="252"/>
      <point x="99" y="331"/>
      <point x="67" y="361" type="curve"/>
      <point x="67" y="469"/>
      <point x="67" y="371"/>
    </contour>
    <contour>
      <point x="67" y="212" type="curve"/>
      <point x="99" y="243"/>
      <point x="178" y="319"/>
      <point x="212" y="350" type="curve"/>
      <point x="212" y="241"/>
      <point x="212" y="330"/>
      <point x="212" y="221" type="curve"/>
      <point x="178" y="191"/>
      <point x="99" y="125"/>
      <point x="67" y="96" type="curve"/>
      <point x="67" y="203"/>
      <point x="67" y="105"/>
    </contour>
  </outline>
</glyph>
<glyph name="onequarter" format="1">
  <advance width="786"/>
  <unicode hex="00BC"/>
  <outline>
    <contour>
      <point x="306" y="-44" type="line"/>
      <point x="588" y="714" type="line"/>
      <point x="474" y="714" type="line"/>
      <point x="193" y="-44" type="line"/>
    </contour>
    <contour>
      <point x="113" y="297" type="curve"/>
      <point x="156" y="297"/>
      <point x="213" y="297"/>
      <point x="254" y="297" type="curve"/>
      <point x="254" y="373"/>
      <point x="254" y="298"/>
      <point x="254" y="375" type="curve"/>
      <point x="245" y="375"/>
      <point x="219" y="375"/>
      <point x="209" y="375" type="curve"/>
      <point x="113" y="298"/>
      <point x="209" y="373"/>
    </contour>
    <contour>
      <point x="209" y="375" type="curve"/>
      <point x="168" y="375"/>
      <point x="110" y="375"/>
      <point x="67" y="375" type="curve"/>
      <point x="67" y="298"/>
      <point x="67" y="373"/>
      <point x="67" y="297" type="curve"/>
      <point x="78" y="297"/>
      <point x="103" y="297"/>
      <point x="113" y="297" type="curve"/>
      <point x="209" y="373"/>
      <point x="113" y="298"/>
    </contour>
    <contour>
      <point x="88" y="571" type="line"/>
      <point x="209" y="712" type="line"/>
      <point x="113" y="713" type="line"/>
      <point x="31" y="627" type="line"/>
    </contour>
    <contour>
      <point x="209" y="375" type="curve"/>
      <point x="209" y="713" type="line"/>
      <point x="113" y="713" type="line"/>
      <point x="113" y="297" type="line"/>
      <point x="209" y="373"/>
      <point x="113" y="298"/>
    </contour>
    <contour>
      <point x="749" y="143" type="line"/>
      <point x="466" y="143" type="line"/>
      <point x="466" y="68" type="line"/>
      <point x="749" y="68" type="line"/>
    </contour>
    <contour>
      <point x="507" y="71" type="line"/>
      <point x="670" y="374" type="line"/>
      <point x="603" y="390" type="line"/>
      <point x="466" y="143" type="line"/>
    </contour>
    <contour>
      <point x="699" y="-35" type="line"/>
      <point x="699" y="390" type="line"/>
      <point x="603" y="390" type="line"/>
      <point x="603" y="-35" type="line"/>
    </contour>
    <contour>
      <point x="651" y="31" type="line"/>
      <point x="564" y="31" type="line"/>
      <point x="564" y="-36" type="line"/>
      <point x="651" y="-36" type="line"/>
    </contour>
    <contour>
      <point x="651" y="-36" type="line"/>
      <point x="737" y="-36" type="line"/>
      <point x="737" y="31" type="line"/>
      <point x="651" y="31" type="line"/>
    </contour>
  </outline>
</glyph>
<glyph name="threequarters" format="1">
  <advance width="828"/>
  <unicode hex="00BE"/>
  <outline>
    <contour>
      <point x="351" y="-44" type="line"/>
      <point x="633" y="714" type="line"/>
      <point x="518" y="714" type="line"/>
      <point x="237" y="-44" type="line"/>
    </contour>
    <contour>
      <point x="98" y="607" type="curve"/>
      <point x="106" y="621"/>
      <point x="114" y="636"/>
      <point x="133" y="636" type="curve"/>
      <point x="156" y="636"/>
      <point x="167" y="614"/>
      <point x="167" y="585" type="curve"/>
      <point x="167" y="553"/>
      <point x="140" y="537"/>
      <point x="107" y="534" type="curve"/>
      <point x="107" y="469"/>
      <point x="107" y="534"/>
      <point x="107" y="469" type="curve"/>
      <point x="195" y="472"/>
      <point x="263" y="512"/>
      <point x="263" y="593" type="curve"/>
      <point x="263" y="667"/>
      <point x="217" y="712"/>
      <point x="142" y="712" type="curve"/>
      <point x="99" y="712"/>
      <point x="59" y="691"/>
      <point x="36" y="655" type="curve"/>
      <point x="98" y="607"/>
      <point x="36" y="655"/>
    </contour>
    <contour>
      <point x="37" y="318" type="curve"/>
      <point x="64" y="296"/>
      <point x="93" y="282"/>
      <point x="127" y="282" type="curve"/>
      <point x="217" y="282"/>
      <point x="273" y="327"/>
      <point x="273" y="412" type="curve"/>
      <point x="273" y="493"/>
      <point x="198" y="520"/>
      <point x="107" y="525" type="curve"/>
      <point x="107" y="468"/>
      <point x="107" y="525"/>
      <point x="107" y="468" type="curve"/>
      <point x="147" y="464"/>
      <point x="177" y="444"/>
      <point x="177" y="407" type="curve"/>
      <point x="176" y="379"/>
      <point x="162" y="357"/>
      <point x="136" y="359" type="curve"/>
      <point x="117" y="359"/>
      <point x="100" y="364"/>
      <point x="87" y="375" type="curve"/>
      <point x="37" y="318"/>
      <point x="87" y="375"/>
    </contour>
    <contour>
      <point x="796" y="143" type="line"/>
      <point x="512" y="143" type="line"/>
      <point x="512" y="68" type="line"/>
      <point x="796" y="68" type="line"/>
    </contour>
    <contour>
      <point x="553" y="71" type="line"/>
      <point x="716" y="374" type="line"/>
      <point x="650" y="390" type="line"/>
      <point x="512" y="143" type="line"/>
    </contour>
    <contour>
      <point x="746" y="-35" type="line"/>
      <point x="746" y="390" type="line"/>
      <point x="650" y="390" type="line"/>
      <point x="650" y="-35" type="line"/>
    </contour>
    <contour>
      <point x="698" y="31" type="line"/>
      <point x="611" y="31" type="line"/>
      <point x="611" y="-36" type="line"/>
      <point x="698" y="-36" type="line"/>
    </contour>
    <contour>
      <point x="698" y="-36" type="line"/>
      <point x="783" y="-36" type="line"/>
      <point x="783" y="31" type="line"/>
      <point x="698" y="31" type="line"/>
    </contour>
  </outline>
</glyph>
<glyph name="questiondown" format="1">
  <advance width="442"/>
  <unicode hex="00BF"/>
  <outline>
    <contour>
      <point x="285" y="373" type="curve"/>
      <point x="285" y="410"/>
      <point x="285" y="488"/>
      <point x="285" y="525" type="curve"/>
      <point x="173" y="525"/>
      <point x="285" y="525"/>
      <point x="173" y="525" type="curve"/>
      <point x="173" y="488"/>
      <point x="173" y="410"/>
      <point x="173" y="373" type="curve"/>
      <point x="285" y="373"/>
      <point x="173" y="373"/>
    </contour>
    <contour>
      <point x="343" y="157" type="line"/>
      <point x="315" y="124"/>
      <point x="292" y="105"/>
      <point x="252" y="105" type="curve"/>
      <point x="189" y="105"/>
      <point x="162" y="161"/>
      <point x="162" y="228" type="curve"/>
      <point x="162" y="310"/>
      <point x="199" y="373"/>
      <point x="273" y="373" type="curve"/>
      <point x="273" y="409"/>
      <point x="274" y="429"/>
      <point x="274" y="466" type="curve"/>
      <point x="130" y="466"/>
      <point x="43" y="371"/>
      <point x="43" y="228" type="curve"/>
      <point x="43" y="90"/>
      <point x="121" y="1"/>
      <point x="246" y="1" type="curve"/>
      <point x="319" y="1"/>
      <point x="373" y="25"/>
      <point x="409" y="76" type="curve"/>
    </contour>
    <contour>
      <point x="165" y="685" type="curve"/>
      <point x="165" y="642"/>
      <point x="192" y="621"/>
      <point x="230" y="621" type="curve"/>
      <point x="268" y="621"/>
      <point x="293" y="644"/>
      <point x="293" y="685" type="curve"/>
      <point x="165" y="685"/>
      <point x="293" y="685"/>
      <point x="165" y="685" type="curve"/>
      <point x="165" y="729"/>
      <point x="191" y="749"/>
      <point x="229" y="749" type="curve"/>
      <point x="269" y="749"/>
      <point x="293" y="727"/>
      <point x="293" y="685" type="curve"/>
      <point x="165" y="685"/>
      <point x="293" y="685"/>
    </contour>
  </outline>
</glyph>
<glyph name="Acircumflex" format="1">
  <advance width="614"/>
  <unicode hex="00C2"/>
  <outline>
    <contour>
      <point x="118" y="98" type="curve"/>
      <point x="-18" y="98"/>
      <point x="132" y="98"/>
      <point x="-6" y="98" type="curve"/>
      <point x="-6" y="0"/>
      <point x="-6" y="98"/>
      <point x="-6" y="0" type="curve"/>
      <point x="40" y="0"/>
      <point x="73" y="0"/>
      <point x="118" y="0" type="curve"/>
      <point x="118" y="98"/>
      <point x="118" y="0"/>
    </contour>
    <contour>
      <point x="118" y="0" type="curve"/>
      <point x="172" y="0"/>
      <point x="115" y="0"/>
      <point x="275" y="0" type="curve"/>
      <point x="275" y="98"/>
      <point x="275" y="0"/>
      <point x="275" y="98" type="curve"/>
      <point x="115" y="98"/>
      <point x="278" y="98"/>
      <point x="118" y="98" type="curve"/>
      <point x="118" y="0"/>
      <point x="118" y="98"/>
    </contour>
    <contour>
      <point x="479" y="0" type="curve"/>
      <point x="524" y="0"/>
      <point x="556" y="0"/>
      <point x="602" y="0" type="curve"/>
      <point x="602" y="98"/>
      <point x="602" y="0"/>
      <point x="602" y="98" type="curve"/>
      <point x="466" y="98"/>
      <point x="616" y="98"/>
      <point x="479" y="98" type="curve"/>
      <point x="479" y="0"/>
      <point x="479" y="98"/>
    </contour>
    <contour>
      <point x="479" y="98" type="curve"/>
      <point x="318" y="98"/>
      <point x="482" y="98"/>
      <point x="321" y="98" type="curve"/>
      <point x="321" y="0"/>
      <point x="321" y="98"/>
      <point x="321" y="0" type="curve"/>
      <point x="375" y="0"/>
      <point x="424" y="0"/>
      <point x="479" y="0" type="curve"/>
      <point x="479" y="98"/>
      <point x="479" y="0"/>
    </contour>
    <contour>
      <point x="402" y="289" type="curve"/>
      <point x="338" y="289"/>
      <point x="274" y="289"/>
      <point x="210" y="289" type="curve"/>
      <point x="159" y="185"/>
      <point x="210" y="289"/>
      <point x="159" y="185" type="curve"/>
      <point x="253" y="185"/>
      <point x="348" y="185"/>
      <point x="442" y="185" type="curve"/>
      <point x="402" y="289"/>
      <point x="442" y="185"/>
    </contour>
    <contour>
      <point x="552" y="0" type="curve"/>
      <point x="491" y="241"/>
      <point x="426" y="481"/>
      <point x="366" y="722" type="curve"/>
      <point x="252" y="722"/>
      <point x="366" y="722"/>
      <point x="252" y="722" type="curve"/>
      <point x="310" y="482"/>
      <point x="362" y="240"/>
      <point x="422" y="0" type="curve"/>
      <point x="552" y="0"/>
      <point x="422" y="0"/>
    </contour>
    <contour>
      <point x="179" y="0" type="curve"/>
      <point x="244" y="240"/>
      <point x="299" y="482"/>
      <point x="365" y="722" type="curve"/>
      <point x="252" y="722"/>
      <point x="365" y="722"/>
      <point x="252" y="722" type="curve"/>
      <point x="185" y="480"/>
      <point x="108" y="242"/>
      <point x="43" y="0" type="curve"/>
      <point x="179" y="0"/>
      <point x="43" y="0"/>
    </contour>
    <contour>
      <point x="251" y="786" type="line"/>
      <point x="356" y="952" type="line"/>
      <point x="205" y="952" type="line"/>
      <point x="133" y="786" type="line"/>
    </contour>
    <contour>
      <point x="477" y="786" type="line"/>
      <point x="406" y="952" type="line"/>
      <point x="255" y="952" type="line"/>
      <point x="361" y="786" type="line"/>
    </contour>
  </outline>
</glyph>
<glyph name="Atilde" format="1">
  <advance width="614"/>
  <unicode hex="00C3"/>
  <outline>
    <contour>
      <point x="118" y="98" type="curve"/>
      <point x="-18" y="98"/>
      <point x="132" y="98"/>
      <point x="-6" y="98" type="curve"/>
      <point x="-6" y="0"/>
      <point x="-6" y="98"/>
      <point x="-6" y="0" type="curve"/>
      <point x="40" y="0"/>
      <point x="73" y="0"/>
      <point x="118" y="0" type="curve"/>
      <point x="118" y="98"/>
      <point x="118" y="0"/>
    </contour>
    <contour>
      <point x="118" y="0" type="curve"/>
      <point x="172" y="0"/>
      <point x="115" y="0"/>
      <point x="275" y="0" type="curve"/>
      <point x="275" y="98"/>
      <point x="275" y="0"/>
      <point x="275" y="98" type="curve"/>
      <point x="115" y="98"/>
      <point x="278" y="98"/>
      <point x="118" y="98" type="curve"/>
      <point x="118" y="0"/>
      <point x="118" y="98"/>
    </contour>
    <contour>
      <point x="479" y="0" type="curve"/>
      <point x="524" y="0"/>
      <point x="556" y="0"/>
      <point x="602" y="0" type="curve"/>
      <point x="602" y="98"/>
      <point x="602" y="0"/>
      <point x="602" y="98" type="curve"/>
      <point x="466" y="98"/>
      <point x="616" y="98"/>
      <point x="479" y="98" type="curve"/>
      <point x="479" y="0"/>
      <point x="479" y="98"/>
    </contour>
    <contour>
      <point x="479" y="98" type="curve"/>
      <point x="318" y="98"/>
      <point x="482" y="98"/>
      <point x="321" y="98" type="curve"/>
      <point x="321" y="0"/>
      <point x="321" y="98"/>
      <point x="321" y="0" type="curve"/>
      <point x="375" y="0"/>
      <point x="424" y="0"/>
      <point x="479" y="0" type="curve"/>
      <point x="479" y="98"/>
      <point x="479" y="0"/>
    </contour>
    <contour>
      <point x="402" y="289" type="curve"/>
      <point x="338" y="289"/>
      <point x="274" y="289"/>
      <point x="210" y="289" type="curve"/>
      <point x="159" y="185"/>
      <point x="210" y="289"/>
      <point x="159" y="185" type="curve"/>
      <point x="253" y="185"/>
      <point x="348" y="185"/>
      <point x="442" y="185" type="curve"/>
      <point x="402" y="289"/>
      <point x="442" y="185"/>
    </contour>
    <contour>
      <point x="552" y="0" type="curve"/>
      <point x="491" y="241"/>
      <point x="426" y="481"/>
      <point x="366" y="722" type="curve"/>
      <point x="252" y="722"/>
      <point x="366" y="722"/>
      <point x="252" y="722" type="curve"/>
      <point x="310" y="482"/>
      <point x="362" y="240"/>
      <point x="422" y="0" type="curve"/>
      <point x="552" y="0"/>
      <point x="422" y="0"/>
    </contour>
    <contour>
      <point x="179" y="0" type="curve"/>
      <point x="244" y="240"/>
      <point x="299" y="482"/>
      <point x="365" y="722" type="curve"/>
      <point x="252" y="722"/>
      <point x="365" y="722"/>
      <point x="252" y="722" type="curve"/>
      <point x="185" y="480"/>
      <point x="108" y="242"/>
      <point x="43" y="0" type="curve"/>
      <point x="179" y="0"/>
      <point x="43" y="0"/>
    </contour>
    <contour>
      <point x="391" y="971" type="curve"/>
      <point x="374" y="934"/>
      <point x="364" y="926"/>
      <point x="351" y="926" type="curve"/>
      <point x="327" y="926"/>
      <point x="316" y="933"/>
      <point x="301" y="948" type="curve"/>
      <point x="279" y="968"/>
      <point x="268" y="977"/>
      <point x="242" y="977" type="curve"/>
      <point x="179" y="977"/>
      <point x="150" y="906"/>
      <point x="132" y="847" type="curve"/>
      <point x="224" y="792"/>
      <point x="132" y="847"/>
      <point x="224" y="792" type="curve"/>
      <point x="243" y="833"/>
      <point x="256" y="842"/>
      <point x="275" y="842" type="curve"/>
      <point x="294" y="842"/>
      <point x="302" y="835"/>
      <point x="314" y="822" type="curve"/>
      <point x="340" y="799"/>
      <point x="354" y="786"/>
      <point x="385" y="786" type="curve"/>
      <point x="449" y="786"/>
      <point x="467" y="852"/>
      <point x="491" y="918" type="curve"/>
      <point x="391" y="971"/>
      <point x="491" y="917"/>
    </contour>
  </outline>
</glyph>
